<?xml version="1.0" encoding="utf-8"?>
<!-- Generator: Adobe Illustrator 27.5.0, SVG Export Plug-In . SVG Version: 6.00 Build 0)  -->
<svg version="1.1" xmlns="http://www.w3.org/2000/svg" xmlns:xlink="http://www.w3.org/1999/xlink" x="0px" y="0px"
	 viewBox="0 0 500 500" style="enable-background:new 0 0 500 500;" xml:space="preserve">
<g id="Floor">
	<path id="Floor_1_" style="fill:#FAFAFA;" d="M81.377,447.192c-93.13-53.768-93.131-140.944-0.002-194.711s244.121-53.767,337.25,0
		s93.13,140.943,0.002,194.711C325.499,500.961,174.507,500.961,81.377,447.192z"/>
</g>
<g id="Plants">
	<g id="Plants_6_">
		<g id="XMLID_676_">
			<g id="XMLID_680_">
				<path id="XMLID_686_" style="fill:#BA68C8;" d="M58.935,384.438c3.469-16.494,6.832-29.509,3.058-54.672
					c-3.167-21.116-14.923-42.265-33.351-45.415c-15.241-2.605-15.368,12.632-5.396,25.776c9.924,13.081,27.997,36.953,26.01,54.383
					l-1.309,26.272L58.935,384.438z"/>
				<path id="XMLID_682_" style="opacity:0.4;fill:#FFFFFF;" d="M58.935,384.438c3.469-16.494,6.832-29.509,3.058-54.672
					c-3.167-21.116-14.923-42.265-33.351-45.415c-15.241-2.605-15.368,12.632-5.396,25.776c9.924,13.081,27.997,36.953,26.01,54.383
					l-1.309,26.272L58.935,384.438z"/>
			</g>
			<path style="fill:#FFFFFF;" d="M58.725,384.559c7.299-48.551-15.028-80.244-28.861-91.816c-0.322-0.273-0.787-0.221-1.049,0.093
				c-0.264,0.315-0.222,0.785,0.093,1.049c13.683,11.447,35.235,43.448,28.155,91.633L58.725,384.559z"/>
		</g>
		<g id="XMLID_322_">
			<g id="XMLID_671_">
				<path id="XMLID_675_" style="fill:#BA68C8;" d="M42.827,393.738c-1.182-5.733-3.136-18.855-11.06-30.093
					c-8.766-12.431-22.263-21.632-23.369-29.204c-1.328-9.096,7.003-13.644,18.916-8.542c14.318,6.132,27.84,27.594,23.757,63.079
					L42.827,393.738z"/>
			</g>
			<g id="XMLID_661_" style="opacity:0.25;">
				<path id="XMLID_663_" style="fill:#FFFFFF;" d="M42.827,393.738c-1.182-5.733-3.136-18.855-11.06-30.093
					c-8.766-12.431-22.263-21.632-23.369-29.204c-1.328-9.096,7.003-13.644,18.916-8.542c14.318,6.132,27.84,27.594,23.757,63.079
					L42.827,393.738z"/>
			</g>
			<g id="XMLID_323_">
				<path id="XMLID_571_" style="fill:#FFFFFF;" d="M46.963,387.331c-0.257-0.119-0.434-0.38-0.432-0.683
					c0.282-31.656-17.446-49.327-26.858-54.248c-0.364-0.19-0.505-0.641-0.315-1.005c0.19-0.366,0.625-0.512,1.005-0.315
					c10.408,5.441,27.945,23.27,27.658,55.581c-0.004,0.411-0.341,0.742-0.752,0.738C47.159,387.399,47.056,387.374,46.963,387.331z
					"/>
			</g>
		</g>
	</g>
</g>
<g id="Shadows">
	<polygon id="Shadow_111_" style="fill:#E0E0E0;" points="289.568,366.972 373.253,318.634 269.247,258.573 185.561,306.911 	"/>
	<ellipse id="Shadow_27_" style="fill:#E0E0E0;" cx="392.163" cy="380.818" rx="89.621" ry="51.743"/>
	<polygon id="Shadow_12_" style="fill:#E0E0E0;" points="270.302,370.286 290.612,358.56 197.367,304.514 42.827,393.738 
		140.316,450.023 160.627,438.297 213.434,468.785 327.171,403.119 	"/>
</g>
<g id="Boxes_1_">
	<g id="Boxes">
		<g id="Box_6_">
			<polygon id="XMLID_473_" style="fill:#BA68C8;" points="288.507,359.181 288.507,303.146 361.298,261.12 361.298,317.155 			"/>
			<polygon id="XMLID_472_" style="opacity:0.3;" points="288.507,359.181 288.507,303.146 361.298,261.12 361.298,317.155 			"/>
			<polygon id="XMLID_471_" style="fill:#BA68C8;" points="288.507,303.146 197.516,250.613 197.516,306.648 288.507,359.181 			"/>
			<polygon id="XMLID_467_" style="opacity:0.55;" points="288.507,303.146 197.516,250.613 197.516,306.648 288.507,359.181 			"/>
			<polygon id="XMLID_466_" style="fill:#BA68C8;" points="288.507,303.146 363.455,259.856 270.308,206.065 195.359,249.356 			"/>
			<polygon id="XMLID_465_" style="opacity:0.15;" points="288.507,303.146 363.455,259.856 270.308,206.065 195.359,249.356 			"/>
			<polygon id="XMLID_464_" style="fill:#BA68C8;" points="288.507,303.146 288.507,317.155 363.455,273.883 363.455,259.856 			"/>
			<polygon id="XMLID_461_" style="opacity:0.3;" points="288.507,303.146 288.507,317.155 363.455,273.883 363.455,259.856 			"/>
			<polygon id="XMLID_455_" style="opacity:0.2;" points="288.507,317.155 361.298,275.128 361.298,278.208 288.507,320.235 			"/>
			<polygon id="XMLID_449_" style="fill:#BA68C8;" points="195.359,249.356 288.507,303.146 288.507,317.155 195.359,263.377 			"/>
			<polygon id="XMLID_447_" style="opacity:0.55;" points="195.359,249.356 288.507,303.146 288.507,317.155 195.359,263.377 			"/>
			<polygon id="XMLID_442_" style="opacity:0.2;" points="288.507,317.155 197.516,264.622 197.517,267.702 288.506,320.235 			"/>
			<path id="XMLID_672_" style="fill:#37474F;" d="M312.47,311.662l24.866-14.356c1.071-0.618,1.94-0.117,1.94,1.12v14.702
				c0,1.237-0.868,2.741-1.94,3.36l-24.866,14.355c-1.072,0.619-1.94,0.117-1.94-1.12v-14.701
				C310.53,313.785,311.399,312.281,312.47,311.662z"/>
			<path id="XMLID_668_" style="fill:#F5F5F5;" d="M314.063,313.33l21.678-12.517c0.715-0.412,1.294-0.078,1.294,0.747v11.022
				c0,0.825-0.579,1.828-1.294,2.24l-21.679,12.515c-0.714,0.412-1.293,0.078-1.293-0.747l0-11.021
				C312.77,314.745,313.349,313.742,314.063,313.33z"/>
			<g style="opacity:0.5;">
				<g>
					<path style="fill:#455A64;" d="M314.668,316.24c-0.109,0-0.214-0.056-0.273-0.158c-0.087-0.151-0.036-0.344,0.115-0.431
						l20.47-11.817c0.148-0.087,0.343-0.037,0.43,0.115c0.086,0.151,0.036,0.344-0.115,0.43l-20.47,11.818
						C314.776,316.227,314.721,316.24,314.668,316.24z"/>
				</g>
				<g>
					<path style="fill:#455A64;" d="M314.668,318.947c-0.109,0-0.214-0.056-0.273-0.158c-0.087-0.151-0.036-0.344,0.115-0.43
						l20.47-11.818c0.148-0.088,0.343-0.036,0.43,0.115c0.086,0.151,0.036,0.344-0.115,0.43l-20.47,11.818
						C314.776,318.933,314.721,318.947,314.668,318.947z"/>
				</g>
				<g>
					<path style="fill:#455A64;" d="M314.668,321.653c-0.109,0-0.214-0.056-0.273-0.158c-0.087-0.151-0.036-0.344,0.115-0.43
						l20.47-11.818c0.148-0.086,0.343-0.037,0.43,0.115c0.086,0.151,0.036,0.344-0.115,0.431l-20.47,11.817
						C314.776,321.639,314.721,321.653,314.668,321.653z"/>
				</g>
				<g>
					<path style="fill:#455A64;" d="M314.668,324.359c-0.109,0-0.214-0.056-0.273-0.158c-0.087-0.151-0.036-0.344,0.115-0.431
						l20.47-11.818c0.148-0.086,0.343-0.035,0.43,0.116c0.086,0.151,0.036,0.344-0.115,0.43l-20.47,11.817
						C314.776,324.345,314.721,324.359,314.668,324.359z"/>
				</g>
			</g>
		</g>
		<g id="Box_1_">
			<polygon style="opacity:0.3;" points="197.367,248.197 288.729,300.955 361.669,258.824 270.308,206.065 			"/>
			<g id="Box_8_">
				<polygon id="XMLID_428_" style="fill:#BA68C8;" points="288.729,298.814 288.729,242.779 361.52,200.753 361.52,256.788 				"/>
				<polygon id="XMLID_427_" style="fill:#BA68C8;" points="288.729,242.779 197.738,190.246 197.738,246.281 288.729,298.814 				
					"/>
				<polygon id="XMLID_418_" style="opacity:0.15;" points="288.729,242.779 197.738,190.246 197.738,246.281 288.729,298.814 				
					"/>
				<polygon id="XMLID_413_" style="fill:#BA68C8;" points="288.729,242.779 363.676,199.488 270.53,145.698 195.581,188.989 				
					"/>
				<polygon id="XMLID_412_" style="opacity:0.2;fill:#FFFFFF;" points="288.729,242.779 363.676,199.488 270.53,145.698 
					195.581,188.989 				"/>
				<polygon id="XMLID_411_" style="fill:#BA68C8;" points="288.729,242.779 288.729,256.788 363.676,213.516 363.676,199.488 				
					"/>
				<polygon id="XMLID_410_" style="opacity:0.2;" points="288.729,256.788 361.52,214.762 361.519,217.841 288.729,259.868 				"/>
				<polygon id="XMLID_409_" style="fill:#BA68C8;" points="195.581,188.989 288.729,242.779 288.729,256.788 195.581,203.01 				
					"/>
				<polygon id="XMLID_408_" style="opacity:0.2;" points="195.581,188.989 288.729,242.779 288.729,256.788 195.581,203.01 				"/>
				<polygon id="XMLID_406_" style="opacity:0.2;" points="288.729,256.788 197.737,204.255 197.738,207.335 288.727,259.868 				
					"/>
				<path id="XMLID_404_" style="fill:#455A64;" d="M312.692,251.296l24.866-14.356c1.071-0.619,1.939-0.117,1.939,1.12v14.703
					c0,1.237-0.868,2.742-1.939,3.36l-24.866,14.355c-1.072,0.619-1.94,0.117-1.94-1.12v-14.702
					C310.752,253.418,311.62,251.914,312.692,251.296z"/>
				<path id="XMLID_387_" style="fill:#F5F5F5;" d="M314.285,252.962l21.678-12.516c0.715-0.412,1.294-0.078,1.294,0.747v11.022
					c0,0.825-0.579,1.828-1.294,2.24l-21.679,12.515c-0.714,0.413-1.293,0.078-1.293-0.747l0-11.021
					C312.992,254.377,313.571,253.375,314.285,252.962z"/>
				<g style="opacity:0.5;">
					<g>
						<path style="fill:#455A64;" d="M314.889,255.873c-0.108,0-0.214-0.056-0.273-0.158c-0.087-0.151-0.036-0.344,0.115-0.43
							l20.47-11.817c0.148-0.088,0.343-0.037,0.431,0.115c0.086,0.151,0.035,0.344-0.115,0.43l-20.47,11.818
							C314.998,255.859,314.943,255.873,314.889,255.873z"/>
					</g>
					<g>
						<path style="fill:#455A64;" d="M314.889,258.579c-0.108,0-0.214-0.056-0.273-0.158c-0.087-0.151-0.036-0.344,0.115-0.43
							l20.47-11.818c0.148-0.088,0.343-0.036,0.431,0.115c0.086,0.151,0.035,0.344-0.115,0.43l-20.47,11.818
							C314.998,258.566,314.943,258.579,314.889,258.579z"/>
					</g>
					<g>
						<path style="fill:#455A64;" d="M314.889,261.286c-0.108,0-0.214-0.056-0.273-0.158c-0.087-0.151-0.036-0.344,0.115-0.431
							l20.47-11.818c0.148-0.086,0.343-0.037,0.431,0.115c0.086,0.151,0.035,0.344-0.115,0.431l-20.47,11.817
							C314.998,261.272,314.943,261.286,314.889,261.286z"/>
					</g>
					<g>
						<path style="fill:#455A64;" d="M314.889,263.992c-0.108,0-0.214-0.056-0.273-0.158c-0.087-0.151-0.036-0.344,0.115-0.431
							l20.47-11.818c0.148-0.086,0.343-0.035,0.431,0.116c0.086,0.15,0.035,0.344-0.115,0.43l-20.47,11.817
							C314.998,263.978,314.943,263.992,314.889,263.992z"/>
					</g>
				</g>
			</g>
		</g>
	</g>
</g>
<g id="Cabinet">
	<g id="Cabinet_4_">
		<g id="Cabinet_5_">
			<g id="XMLID_482_">
				<polygon id="XMLID_488_" style="fill:#263238;" points="145.127,439.1 57.001,388.221 57,134.234 145.126,185.114 				"/>
				<polygon id="XMLID_487_" style="fill:#37474F;" points="145.126,185.114 265.66,115.522 265.662,369.51 145.127,439.1 				"/>
				<polygon id="XMLID_483_" style="fill:#455A64;" points="265.66,115.522 145.126,185.114 57,134.234 177.534,64.643 				"/>
			</g>
			<g id="Drawer_1_">
				<polygon id="XMLID_470_" style="fill:#263238;" points="155.769,359.572 255.012,302.272 255.012,361.452 155.769,418.749 				
					"/>
				<g>
					<g id="XMLID_567_">
						<polygon id="XMLID_569_" style="fill:#37474F;" points="297.592,336.011 250.341,308.746 250.338,360.892 297.59,388.157 
													"/>
					</g>
					<g id="XMLID_565_" style="opacity:0.1;">
						<polygon id="XMLID_566_" points="297.592,336.011 250.341,308.746 250.338,360.892 297.59,388.157 						"/>
					</g>
					<polygon style="fill:#455A64;" points="253.644,306.835 250.338,308.74 297.592,336.011 300.898,334.106 					"/>
				</g>
				<g>
					<g id="XMLID_543_">
						<path id="XMLID_564_" style="fill:#BA68C8;" d="M255.458,318.67c0-0.541-0.186-0.923-0.484-1.115c0,0-0.043-0.036-0.125-0.072
							l-2.55-1.489c0,0-0.002-0.001-0.003-0.002l-0.006-0.003v0.001c-0.319-0.18-0.756-0.153-1.24,0.126l-47.615,27.439
							l-0.779-2.626c-0.136-0.452-0.404-0.779-0.737-0.975l0.01-0.004l-2.654-1.542l0.001,0.011
							c-0.46-0.272-1.049-0.285-1.615,0.042l-21.697,12.523c-0.974,0.562-1.764,1.93-1.764,3.055l0.002,63.038
							c0,0.54,0.178,0.924,0.474,1.117l0,0l2.731,1.583l0,0c0.315,0.158,0.735,0.123,1.201-0.146l75.117-43.343
							c0.974-0.563,1.764-1.93,1.764-3.055L255.458,318.67z"/>
						<path id="XMLID_563_" style="fill:#BA68C8;" d="M255.457,318.674l0.031,54.562c0,1.127-0.789,2.496-1.766,3.057
							l-75.319,43.458c-0.693,0.4-1.56-0.1-1.56-0.901v-63.272c0-0.56,0.196-1.186,0.515-1.734c0.326-0.554,0.769-1.036,1.245-1.316
							l21.697-12.527c0.554-0.313,1.127-0.326,1.584-0.072l0.046,0.026h-0.013c0.332,0.196,0.6,0.522,0.736,0.978l0.782,2.623
							l0.235,0.645c0.326,1.082,2.081,1.082,3.058,0.521l46.963-27.066c0.437-0.254,0.847-0.3,1.154-0.17l0.072,0.039
							c0.013,0.007,0.026,0.013,0.039,0.02l0.02,0.013C255.268,317.748,255.457,318.133,255.457,318.674z"/>
						<path id="XMLID_548_" style="opacity:0.15;" d="M255.457,318.674l0.031,54.562c0,1.127-0.789,2.496-1.766,3.057
							l-75.319,43.458c-0.693,0.4-1.56-0.1-1.56-0.901v-63.272c0-0.56,0.196-1.186,0.515-1.734c0.326-0.554,0.769-1.036,1.245-1.316
							l21.697-12.527c0.554-0.313,1.127-0.326,1.584-0.072l0.046,0.026h-0.013c0.332,0.196,0.6,0.522,0.736,0.978l0.782,2.623
							l0.235,0.645c0.326,1.082,2.081,1.082,3.058,0.521l46.963-27.066c0.437-0.254,0.847-0.3,1.154-0.17l0.072,0.039
							c0.013,0.007,0.026,0.013,0.039,0.02l0.02,0.013C255.268,317.748,255.457,318.133,255.457,318.674z"/>
						<path id="XMLID_545_" style="opacity:0.35;" d="M177.484,419.806c-0.026-0.007-0.052-0.013-0.078-0.026l-2.731-1.584
							c-0.293-0.195-0.476-0.58-0.476-1.121v-63.038c0-0.567,0.202-1.18,0.521-1.734l2.639,1.538v0.006
							c-0.319,0.548-0.515,1.173-0.515,1.734v63.266C176.845,419.297,177.119,419.655,177.484,419.806z"/>
					</g>
					<g>
						<path style="fill:#BA68C8;" d="M263.959,323.625c0-0.541-0.186-0.923-0.484-1.116c0,0-0.043-0.036-0.125-0.072l-2.551-1.489
							c0,0-0.002-0.001-0.003-0.001l-0.006-0.003v0.001c-0.319-0.18-0.756-0.153-1.24,0.126l-47.615,27.439l-0.779-2.626
							c-0.136-0.452-0.404-0.779-0.737-0.975l0.01-0.004l-2.654-1.541l0.002,0.011c-0.46-0.272-1.049-0.285-1.615,0.042
							l-21.697,12.523c-0.974,0.562-1.764,1.93-1.764,3.055l0.002,63.038c0,0.54,0.177,0.924,0.474,1.117l0,0l2.731,1.583l0,0
							c0.315,0.158,0.735,0.122,1.201-0.146l75.117-43.343c0.974-0.562,1.764-1.93,1.764-3.055L263.959,323.625z"/>
						<path style="opacity:0.15;fill:#FFFFFF;" d="M210.384,344.881c-0.456-0.253-1.026-0.244-1.58,0.073l-21.696,12.522
							c-0.481,0.285-0.921,0.766-1.246,1.32l-2.643-1.54c0.318-0.554,0.758-1.043,1.246-1.32l21.696-12.522
							c0.57-0.326,1.157-0.31,1.613-0.041v-0.008L210.384,344.881z"/>
						<path style="opacity:0.15;fill:#FFFFFF;" d="M263.35,322.438c-0.31-0.13-0.717-0.082-1.157,0.171l-46.96,27.065
							c-0.978,0.562-2.734,0.564-3.06-0.52l-0.237-0.644l47.614-27.441c0.277-0.163,0.546-0.236,0.782-0.236
							c0.171,0,0.326,0.041,0.456,0.114h0.008L263.35,322.438z"/>
						<path style="fill:#BA68C8;" d="M263.958,323.629l0.031,54.562c0,1.127-0.788,2.496-1.766,3.057l-75.319,43.458
							c-0.693,0.4-1.56-0.1-1.56-0.901v-63.272c0-0.561,0.195-1.186,0.515-1.734c0.326-0.554,0.769-1.036,1.245-1.317l21.697-12.527
							c0.554-0.313,1.128-0.326,1.584-0.072l0.046,0.026h-0.013c0.332,0.195,0.6,0.521,0.737,0.978l0.782,2.623l0.235,0.645
							c0.326,1.082,2.081,1.082,3.058,0.521l46.963-27.066c0.437-0.254,0.847-0.3,1.154-0.169l0.072,0.039
							c0.013,0.007,0.026,0.013,0.039,0.02l0.02,0.013C263.769,322.703,263.958,323.088,263.958,323.629z"/>
						<path style="opacity:0.2;" d="M185.985,424.76c-0.026-0.006-0.052-0.013-0.078-0.026l-2.731-1.584
							c-0.293-0.195-0.476-0.58-0.476-1.121v-63.038c0-0.567,0.202-1.18,0.521-1.734l2.64,1.538v0.006
							c-0.319,0.548-0.515,1.173-0.515,1.734v63.266C185.346,424.252,185.62,424.611,185.985,424.76z"/>
					</g>
					<g>
						<path style="fill:#BA68C8;" d="M272.46,328.58c0-0.541-0.186-0.923-0.484-1.116c0,0-0.043-0.036-0.125-0.073l-2.55-1.489
							c0,0-0.002-0.001-0.003-0.002l-0.006-0.003v0.001c-0.319-0.18-0.756-0.153-1.24,0.126l-47.615,27.439l-0.779-2.626
							c-0.136-0.452-0.404-0.78-0.737-0.976l0.01-0.004l-2.654-1.541l0.001,0.011c-0.46-0.272-1.049-0.285-1.615,0.042
							l-21.697,12.523c-0.974,0.562-1.764,1.93-1.764,3.055l0.002,63.038c0,0.54,0.178,0.924,0.474,1.117l0,0l2.731,1.584l0,0
							c0.315,0.158,0.735,0.122,1.201-0.146l75.117-43.343c0.974-0.562,1.764-1.93,1.764-3.055L272.46,328.58z"/>
						<path style="opacity:0.3;fill:#FFFFFF;" d="M218.885,349.836c-0.456-0.253-1.027-0.244-1.58,0.073l-21.695,12.522
							c-0.481,0.285-0.921,0.766-1.247,1.32l-2.643-1.54c0.318-0.554,0.758-1.043,1.247-1.32l21.696-12.522
							c0.57-0.326,1.157-0.31,1.613-0.041v-0.008L218.885,349.836z"/>
						<path style="opacity:0.3;fill:#FFFFFF;" d="M271.85,327.392c-0.309-0.13-0.717-0.082-1.157,0.171l-46.96,27.065
							c-0.978,0.562-2.734,0.564-3.06-0.52l-0.237-0.644l47.615-27.441c0.277-0.163,0.546-0.236,0.782-0.236
							c0.171,0,0.326,0.041,0.456,0.114h0.008L271.85,327.392z"/>
						<path style="fill:#BA68C8;" d="M272.459,328.584l0.031,54.562c0,1.128-0.789,2.496-1.766,3.057l-75.319,43.458
							c-0.693,0.401-1.56-0.1-1.56-0.901v-63.272c0-0.561,0.195-1.186,0.515-1.734c0.326-0.554,0.769-1.036,1.245-1.317
							l21.697-12.527c0.554-0.313,1.127-0.326,1.584-0.072l0.046,0.026h-0.013c0.333,0.195,0.6,0.521,0.736,0.978l0.782,2.623
							l0.235,0.645c0.326,1.082,2.081,1.082,3.058,0.521l46.963-27.066c0.437-0.254,0.847-0.3,1.154-0.169l0.072,0.039
							c0.013,0.007,0.026,0.013,0.039,0.019l0.019,0.013C272.27,327.658,272.459,328.043,272.459,328.584z"/>
						<path style="opacity:0.15;fill:#FFFFFF;" d="M272.459,328.584l0.031,54.562c0,1.128-0.789,2.496-1.766,3.057l-75.319,43.458
							c-0.693,0.401-1.56-0.1-1.56-0.901v-63.272c0-0.561,0.195-1.186,0.515-1.734c0.326-0.554,0.769-1.036,1.245-1.317
							l21.697-12.527c0.554-0.313,1.127-0.326,1.584-0.072l0.046,0.026h-0.013c0.333,0.195,0.6,0.521,0.736,0.978l0.782,2.623
							l0.235,0.645c0.326,1.082,2.081,1.082,3.058,0.521l46.963-27.066c0.437-0.254,0.847-0.3,1.154-0.169l0.072,0.039
							c0.013,0.007,0.026,0.013,0.039,0.019l0.019,0.013C272.27,327.658,272.459,328.043,272.459,328.584z"/>
						<path style="opacity:0.05;" d="M194.486,429.715c-0.026-0.006-0.052-0.013-0.078-0.026l-2.731-1.584
							c-0.293-0.195-0.476-0.58-0.476-1.121v-63.038c0-0.567,0.202-1.18,0.521-1.734l2.639,1.538v0.007
							c-0.319,0.547-0.515,1.173-0.515,1.734v63.266C193.847,429.207,194.121,429.566,194.486,429.715z"/>
					</g>
					<g id="XMLID_537_">
						<path id="XMLID_542_" style="fill:#BA68C8;" d="M280.961,333.535c0-0.541-0.186-0.923-0.484-1.115
							c0,0-0.043-0.036-0.125-0.073l-2.55-1.489c0,0-0.002-0.001-0.003-0.002l-0.006-0.003v0.001
							c-0.319-0.18-0.756-0.153-1.24,0.126l-47.615,27.439l-0.779-2.626c-0.136-0.452-0.404-0.78-0.737-0.976l0.01-0.004
							l-2.654-1.542l0.002,0.011c-0.461-0.272-1.049-0.285-1.615,0.042l-21.697,12.523c-0.974,0.562-1.764,1.93-1.764,3.055
							l0.003,63.038c0,0.54,0.177,0.924,0.474,1.117l0,0l2.731,1.583l0,0c0.315,0.158,0.735,0.122,1.201-0.146l75.117-43.343
							c0.974-0.562,1.764-1.93,1.764-3.055L280.961,333.535z"/>
						<path id="XMLID_541_" style="opacity:0.5;fill:#FFFFFF;" d="M227.385,354.791c-0.456-0.253-1.026-0.245-1.58,0.073
							l-21.696,12.522c-0.481,0.285-0.921,0.766-1.247,1.32l-2.643-1.54c0.318-0.554,0.758-1.043,1.246-1.32l21.696-12.522
							c0.57-0.326,1.157-0.31,1.613-0.041v-0.008L227.385,354.791z"/>
						<path id="XMLID_540_" style="opacity:0.5;fill:#FFFFFF;" d="M280.351,332.347c-0.309-0.13-0.717-0.081-1.157,0.171
							l-46.96,27.065c-0.978,0.562-2.734,0.564-3.06-0.52l-0.237-0.643l47.614-27.441c0.277-0.163,0.546-0.236,0.782-0.236
							c0.171,0,0.326,0.041,0.456,0.114h0.008L280.351,332.347z"/>
						<path id="XMLID_539_" style="fill:#BA68C8;" d="M280.96,333.539l0.031,54.562c0,1.128-0.788,2.496-1.766,3.057l-75.319,43.458
							c-0.693,0.401-1.56-0.1-1.56-0.9v-63.272c0-0.561,0.195-1.186,0.515-1.734c0.326-0.554,0.769-1.036,1.245-1.316l21.697-12.527
							c0.554-0.313,1.127-0.326,1.584-0.072l0.046,0.026h-0.013c0.332,0.195,0.6,0.521,0.737,0.978l0.782,2.623l0.234,0.645
							c0.326,1.082,2.081,1.082,3.058,0.522l46.963-27.066c0.437-0.254,0.847-0.3,1.154-0.169l0.072,0.039
							c0.013,0.007,0.026,0.013,0.039,0.019l0.02,0.013C280.771,332.613,280.96,332.998,280.96,333.539z"/>
						<path id="XMLID_538_" style="opacity:0.3;fill:#FFFFFF;" d="M280.96,333.539l0.031,54.562c0,1.128-0.788,2.496-1.766,3.057
							l-75.319,43.458c-0.693,0.401-1.56-0.1-1.56-0.9v-63.272c0-0.561,0.195-1.186,0.515-1.734
							c0.326-0.554,0.769-1.036,1.245-1.316l21.697-12.527c0.554-0.313,1.127-0.326,1.584-0.072l0.046,0.026h-0.013
							c0.332,0.195,0.6,0.521,0.737,0.978l0.782,2.623l0.234,0.645c0.326,1.082,2.081,1.082,3.058,0.522l46.963-27.066
							c0.437-0.254,0.847-0.3,1.154-0.169l0.072,0.039c0.013,0.007,0.026,0.013,0.039,0.019l0.02,0.013
							C280.771,332.613,280.96,332.998,280.96,333.539z"/>
					</g>
				</g>
				<g>
					<g id="XMLID_503_">
						<polygon id="XMLID_529_" style="fill:#37474F;" points="204.977,389.483 157.725,362.219 157.722,414.364 204.974,441.629 
													"/>
					</g>
					<polygon style="fill:#455A64;" points="161.028,360.307 157.722,362.213 204.977,389.483 208.282,387.578 					"/>
				</g>
				<g>
					<g>
						<polygon id="XMLID_492_" style="fill:#455A64;" points="206.54,386.876 305.783,329.577 305.78,388.767 206.539,446.065 
													"/>
						<polygon id="XMLID_490_" style="fill:#263238;" points="206.54,386.876 201.527,383.983 201.527,443.171 206.539,446.065 
													"/>
						<polygon id="XMLID_489_" style="fill:#37474F;" points="201.527,383.983 300.771,326.684 305.783,329.577 206.54,386.876 
													"/>
						<path style="fill:#263238;" d="M273.483,363.484l-3.488-2.027l-0.001,0.003c-0.267-0.165-0.639-0.15-1.053,0.089
							c-0.809,0.467-1.465,1.604-1.465,2.538c0,0.472,0.169,0.801,0.44,0.952l-0.001,0.001l3.498,2.032
							c0.49,0.282,0.621,0.523,0.629,0.567c-0.003,0.07-0.176,0.442-0.906,0.863l-16.272,9.395
							c-1.838,1.062-4.931,1.136-6.621,0.162l-3.486-2.018c-0.002-0.001-0.005-0.003-0.007-0.004l-0.007-0.004l-0.001,0.001
							c-0.264-0.146-0.626-0.123-1.025,0.107c-0.81,0.467-1.465,1.604-1.465,2.538c0,0.457,0.159,0.779,0.414,0.936l-0.001,0.002
							l0.014,0.008c0.002,0.001,0.004,0.002,0.006,0.004l3.486,2.016c1.421,0.82,3.26,1.228,5.131,1.228
							c1.999,0,4.033-0.465,5.632-1.389l16.272-9.395c1.892-1.093,2.978-2.715,2.978-4.45
							C276.184,365.991,275.199,364.475,273.483,363.484z"/>
					</g>
					<g id="Label">
						<path style="fill:#FAFAFA;" d="M213.23,387.571l18.895-10.91c0.623-0.359,1.127-0.068,1.127,0.651l0,9.608
							c0,0.719-0.505,1.593-1.127,1.952l-18.895,10.909c-0.623,0.359-1.127,0.068-1.127-0.651v-9.607
							C212.102,388.804,212.607,387.93,213.23,387.571z"/>
						<g>
							<path style="fill:#BA68C8;" d="M213.296,398.365v-8.842c0-0.292,0.277-0.773,0.53-0.919l18.233-10.526v8.842
								c0,0.292-0.277,0.772-0.53,0.919L213.296,398.365z M231.842,378.453l-17.907,10.339c-0.186,0.107-0.423,0.518-0.423,0.732
								v8.467l17.907-10.339c0.186-0.107,0.423-0.518,0.423-0.731V378.453z"/>
						</g>
						<g>
							<path style="fill:#E0E0E0;" d="M215.628,391.558c-0.149,0-0.295-0.077-0.376-0.217c-0.119-0.207-0.049-0.473,0.159-0.593
								l14.1-8.141c0.205-0.118,0.471-0.051,0.593,0.159c0.119,0.207,0.049,0.473-0.159,0.593l-14.1,8.141
								C215.776,391.54,215.702,391.558,215.628,391.558z"/>
						</g>
						<g>
							<path style="fill:#E0E0E0;" d="M215.628,393.892c-0.149,0-0.295-0.077-0.376-0.217c-0.119-0.207-0.049-0.473,0.159-0.593
								l14.1-8.141c0.205-0.119,0.471-0.05,0.593,0.159c0.119,0.207,0.049,0.473-0.159,0.593l-14.1,8.141
								C215.776,393.874,215.702,393.892,215.628,393.892z"/>
						</g>
					</g>
				</g>
			</g>
			<g>
				<g>
					<polygon id="XMLID_373_" style="fill:#455A64;" points="160.714,287.152 259.957,229.853 259.954,289.043 160.713,346.341 
											"/>
					<polygon id="XMLID_356_" style="fill:#263238;" points="160.714,287.152 155.701,284.26 155.701,343.448 160.713,346.341 					
						"/>
					<polygon id="XMLID_285_" style="fill:#37474F;" points="155.701,284.26 254.945,226.961 259.957,229.853 160.714,287.152 					
						"/>
					<path id="XMLID_385_" style="fill:#263238;" d="M155.701,284.26l12.306-7.335l12.346-7.266
						c8.226-4.851,16.507-9.608,24.758-14.416l24.839-14.276c8.308-4.709,16.598-9.45,24.948-14.087l0.049-0.027l0.046,0.027
						l4.965,2.974l-5.06-2.811h0.094c-8.191,4.912-16.441,9.721-24.674,14.562l-24.783,14.373
						c-8.29,4.741-16.55,9.534-24.863,14.233l-12.465,7.059L155.701,284.26z"/>
					<path style="fill:#263238;" d="M227.657,263.761l-3.488-2.027l-0.001,0.003c-0.267-0.165-0.639-0.15-1.053,0.089
						c-0.809,0.467-1.465,1.604-1.465,2.538c0,0.472,0.169,0.801,0.439,0.952l-0.001,0.001l3.498,2.032
						c0.489,0.282,0.621,0.523,0.629,0.567c-0.003,0.07-0.176,0.442-0.906,0.863l-16.272,9.395c-1.838,1.062-4.93,1.136-6.621,0.162
						l-3.486-2.018c-0.002-0.001-0.005-0.003-0.007-0.004l-0.007-0.004l-0.001,0.001c-0.264-0.146-0.626-0.123-1.025,0.107
						c-0.81,0.467-1.465,1.604-1.465,2.538c0,0.457,0.159,0.779,0.414,0.936l-0.001,0.002l0.014,0.008
						c0.002,0.001,0.004,0.002,0.006,0.003l3.486,2.016c1.421,0.82,3.26,1.228,5.131,1.228c1.999,0,4.033-0.465,5.632-1.389
						l16.272-9.395c1.892-1.093,2.978-2.715,2.978-4.45C230.358,266.267,229.374,264.752,227.657,263.761z"/>
				</g>
				<g id="Label_1_">
					<path style="fill:#FAFAFA;" d="M167.402,287.848l18.895-10.91c0.623-0.359,1.127-0.068,1.127,0.651l0,9.608
						c0,0.719-0.505,1.593-1.127,1.952l-18.895,10.909c-0.622,0.359-1.127,0.068-1.127-0.651V289.8
						C166.275,289.081,166.78,288.207,167.402,287.848z"/>
					<g>
						<path style="fill:#BA68C8;" d="M167.468,298.641v-8.842c0-0.291,0.277-0.771,0.53-0.919l18.233-10.525v8.842
							c0,0.292-0.277,0.772-0.53,0.919L167.468,298.641z M186.015,278.73l-17.907,10.338c-0.186,0.108-0.423,0.519-0.423,0.731
							v8.467l17.907-10.338c0.186-0.108,0.423-0.518,0.423-0.732V278.73z"/>
					</g>
					<g>
						<path style="fill:#E0E0E0;" d="M169.8,291.835c-0.149,0-0.295-0.077-0.376-0.217c-0.119-0.207-0.049-0.473,0.159-0.593
							l14.1-8.141c0.205-0.119,0.471-0.05,0.593,0.159c0.119,0.207,0.049,0.473-0.159,0.593l-14.1,8.141
							C169.949,291.816,169.875,291.835,169.8,291.835z"/>
					</g>
					<g>
						<path style="fill:#E0E0E0;" d="M169.8,294.169c-0.149,0-0.295-0.077-0.376-0.217c-0.119-0.207-0.049-0.473,0.159-0.593
							l14.1-8.141c0.205-0.119,0.471-0.05,0.593,0.159c0.119,0.207,0.049,0.473-0.159,0.593l-14.1,8.141
							C169.949,294.151,169.875,294.169,169.8,294.169z"/>
					</g>
				</g>
			</g>
			<g>
				<g>
					<polygon id="XMLID_395_" style="fill:#455A64;" points="160.714,211.423 259.957,154.124 259.954,213.314 160.713,270.612 
											"/>
					<polygon id="XMLID_394_" style="fill:#263238;" points="160.714,211.423 155.701,208.531 155.701,267.718 160.713,270.612 
											"/>
					<polygon id="XMLID_392_" style="fill:#37474F;" points="155.701,208.531 254.945,151.231 259.957,154.124 160.714,211.423 
											"/>
					<path id="XMLID_386_" style="fill:#263238;" d="M155.701,208.531l12.306-7.335l12.346-7.266
						c8.226-4.851,16.507-9.608,24.758-14.416l24.839-14.276c8.308-4.709,16.598-9.45,24.948-14.087l0.049-0.027l0.046,0.027
						l4.965,2.974l-5.06-2.811h0.094c-8.191,4.912-16.441,9.721-24.674,14.562l-24.783,14.373
						c-8.29,4.741-16.55,9.534-24.863,14.233l-12.465,7.059L155.701,208.531z"/>
					<path style="fill:#263238;" d="M227.657,188.031l-3.488-2.027l-0.001,0.003c-0.267-0.165-0.639-0.15-1.053,0.089
						c-0.809,0.467-1.465,1.604-1.465,2.538c0,0.472,0.169,0.801,0.439,0.952l-0.001,0.001l3.498,2.032
						c0.489,0.282,0.621,0.523,0.629,0.567c-0.003,0.07-0.176,0.442-0.906,0.863l-16.272,9.395c-1.838,1.062-4.93,1.136-6.621,0.162
						l-3.486-2.018c-0.002-0.001-0.005-0.003-0.007-0.004l-0.007-0.004l-0.001,0.001c-0.264-0.146-0.626-0.123-1.025,0.107
						c-0.81,0.467-1.465,1.604-1.465,2.538c0,0.457,0.159,0.779,0.414,0.936l-0.001,0.002l0.014,0.008
						c0.002,0.001,0.004,0.002,0.006,0.003l3.486,2.016c1.421,0.82,3.26,1.228,5.131,1.228c1.999,0,4.033-0.465,5.632-1.389
						l16.272-9.395c1.892-1.093,2.978-2.715,2.978-4.45C230.358,190.538,229.374,189.022,227.657,188.031z"/>
				</g>
				<g id="Label_2_">
					<path style="fill:#FAFAFA;" d="M167.402,211.717l18.895-10.91c0.623-0.359,1.127-0.068,1.127,0.651l0,9.608
						c0,0.719-0.505,1.593-1.127,1.953l-18.895,10.909c-0.622,0.359-1.127,0.068-1.127-0.651v-9.607
						C166.275,212.951,166.78,212.077,167.402,211.717z"/>
					<g>
						<path style="fill:#BA68C8;" d="M167.468,222.512v-8.842c0-0.291,0.277-0.772,0.53-0.919l18.233-10.526v8.842
							c0,0.292-0.277,0.772-0.53,0.919L167.468,222.512z M186.015,202.6l-17.907,10.338c-0.186,0.108-0.423,0.518-0.423,0.732v8.466
							l17.907-10.338c0.186-0.108,0.423-0.518,0.423-0.732V202.6z"/>
					</g>
					<g>
						<path style="fill:#E0E0E0;" d="M169.8,215.705c-0.149,0-0.295-0.078-0.376-0.217c-0.119-0.207-0.049-0.473,0.159-0.593
							l14.1-8.141c0.205-0.118,0.471-0.05,0.593,0.159c0.119,0.207,0.049,0.473-0.159,0.593l-14.1,8.141
							C169.949,215.686,169.875,215.705,169.8,215.705z"/>
					</g>
					<g>
						<path style="fill:#E0E0E0;" d="M169.8,218.04c-0.149,0-0.295-0.078-0.376-0.217c-0.119-0.207-0.049-0.473,0.159-0.593
							l14.1-8.141c0.205-0.118,0.471-0.049,0.593,0.159c0.119,0.208,0.049,0.473-0.159,0.593l-14.1,8.141
							C169.949,218.02,169.875,218.04,169.8,218.04z"/>
					</g>
				</g>
			</g>
		</g>
		<g id="Label_4_">
			<g id="Label_3_">
				<path style="fill:#FAFAFA;" d="M156.827,186.121l38.79-22.377c0.623-0.36,1.127-0.068,1.127,0.651l0,13.675
					c0,0.719-0.505,1.593-1.127,1.952l-38.79,22.377c-0.623,0.359-1.127,0.068-1.127-0.651v-13.675
					C155.7,187.355,156.205,186.481,156.827,186.121z"/>
				<g>
					<path style="fill:#BA68C8;" d="M156.893,200.983v-12.91c0-0.291,0.277-0.772,0.53-0.919l38.128-21.994v12.91
						c0,0.292-0.277,0.772-0.529,0.919L156.893,200.983z M195.335,165.536l-37.802,21.806c-0.186,0.108-0.423,0.518-0.423,0.732
						v12.534l37.804-21.806c0.185-0.107,0.421-0.518,0.421-0.731V165.536z"/>
				</g>
				<g>
					<path style="fill:none;stroke:#E0E0E0;stroke-width:0.8678;stroke-linecap:round;stroke-miterlimit:10;" d="M159.225,189.675"
						/>
				</g>
				<g>
					<path style="fill:none;stroke:#E0E0E0;stroke-width:0.8678;stroke-linecap:round;stroke-miterlimit:10;" d="M159.225,192.01"/>
				</g>
			</g>
			<g>
				<path style="fill:#455A64;" d="M162.251,191.271l1.483-4.824c0.022-0.052,0.058-0.137,0.107-0.253
					c0.049-0.117,0.125-0.205,0.231-0.265l0.53-0.307c0.058-0.033,0.107-0.029,0.149,0.01c0.041,0.04,0.061,0.105,0.061,0.193v7.768
					c0,0.088-0.02,0.176-0.061,0.264c-0.042,0.089-0.091,0.149-0.149,0.182l-0.632,0.365c-0.058,0.033-0.107,0.03-0.149-0.011
					c-0.041-0.04-0.063-0.104-0.063-0.192V189.5l-1.015,3.292c-0.025,0.079-0.063,0.166-0.108,0.261
					c-0.047,0.095-0.107,0.164-0.18,0.206l-0.407,0.234c-0.073,0.042-0.132,0.043-0.18,0.002c-0.047-0.042-0.083-0.087-0.108-0.135
					l-1.015-2.12v4.702c0,0.088-0.022,0.177-0.063,0.264c-0.042,0.089-0.092,0.15-0.149,0.183l-0.632,0.365
					c-0.058,0.033-0.107,0.029-0.149-0.011c-0.041-0.039-0.061-0.104-0.061-0.192v-7.768c0-0.088,0.02-0.176,0.061-0.265
					c0.042-0.088,0.092-0.148,0.149-0.181l0.531-0.307c0.105-0.06,0.181-0.06,0.23-0.001c0.049,0.06,0.085,0.104,0.107,0.131
					L162.251,191.271z"/>
				<path style="fill:#455A64;" d="M170.184,182.398c0.058-0.033,0.109-0.03,0.149,0.01c0.042,0.041,0.063,0.105,0.063,0.193
					c0,0.04-0.005,0.079-0.015,0.118l-1.851,6.082v2.646c0,0.088-0.022,0.176-0.063,0.264c-0.042,0.089-0.091,0.149-0.149,0.182
					l-0.624,0.361c-0.058,0.033-0.107,0.03-0.149-0.011c-0.041-0.039-0.063-0.103-0.063-0.191v-2.646l-1.851-3.945
					c-0.01-0.026-0.015-0.06-0.015-0.1c0-0.088,0.02-0.176,0.063-0.265c0.041-0.088,0.09-0.148,0.148-0.181l0.586-0.338
					c0.103-0.06,0.183-0.066,0.234-0.015c0.053,0.05,0.083,0.092,0.093,0.126l1.266,2.673l1.264-4.134
					c0.01-0.046,0.042-0.124,0.095-0.234c0.053-0.111,0.129-0.195,0.234-0.256L170.184,182.398z"/>
				<path style="fill:#455A64;" d="M176.932,178.502c0.058-0.033,0.109-0.03,0.149,0.01c0.041,0.041,0.063,0.105,0.063,0.193v0.853
					c0,0.088-0.022,0.177-0.063,0.265c-0.041,0.089-0.092,0.149-0.149,0.182l-2.49,1.438v2.333l2.336-1.348
					c0.056-0.033,0.105-0.029,0.147,0.011c0.041,0.04,0.063,0.104,0.063,0.192v0.854c0,0.088-0.022,0.177-0.063,0.264
					c-0.042,0.089-0.091,0.149-0.147,0.182l-2.336,1.348v2.753c0,0.088-0.022,0.177-0.063,0.264
					c-0.042,0.089-0.091,0.15-0.149,0.183l-0.632,0.365c-0.058,0.033-0.107,0.029-0.149-0.011c-0.041-0.039-0.063-0.104-0.063-0.192
					v-7.768c0-0.088,0.022-0.176,0.063-0.265c0.042-0.088,0.092-0.148,0.149-0.181L176.932,178.502z"/>
				<path style="fill:#455A64;" d="M178.261,186.152c-0.058,0.033-0.107,0.029-0.149-0.011c-0.041-0.039-0.063-0.104-0.063-0.192
					v-7.768c0-0.088,0.022-0.176,0.063-0.265c0.042-0.088,0.091-0.148,0.149-0.181l0.632-0.365c0.058-0.033,0.107-0.03,0.149,0.01
					c0.041,0.041,0.063,0.105,0.063,0.193v7.768c0,0.088-0.022,0.177-0.063,0.264c-0.042,0.089-0.091,0.15-0.149,0.183
					L178.261,186.152z"/>
				<path style="fill:#455A64;" d="M183.954,181.362c0.058-0.033,0.107-0.03,0.149,0.011c0.041,0.041,0.063,0.105,0.063,0.192v0.854
					c0,0.088-0.022,0.177-0.063,0.264c-0.042,0.089-0.092,0.15-0.149,0.183l-3.42,1.975c-0.058,0.033-0.107,0.029-0.149-0.011
					c-0.041-0.039-0.063-0.104-0.063-0.192v-7.768c0-0.088,0.022-0.176,0.063-0.265c0.042-0.088,0.091-0.148,0.149-0.181
					l0.632-0.365c0.058-0.033,0.107-0.03,0.149,0.01c0.041,0.041,0.063,0.105,0.063,0.193v6.589L183.954,181.362z"/>
				<path style="fill:#455A64;" d="M188.554,178.706c0.058-0.033,0.107-0.029,0.149,0.011c0.041,0.04,0.061,0.105,0.061,0.192v0.854
					c0,0.088-0.02,0.176-0.061,0.264c-0.042,0.089-0.091,0.149-0.149,0.182l-3.429,1.98c-0.058,0.033-0.107,0.029-0.147-0.011
					c-0.042-0.039-0.063-0.104-0.063-0.192v-7.768c0-0.088,0.02-0.176,0.063-0.265c0.041-0.088,0.09-0.148,0.147-0.181l3.366-1.944
					c0.058-0.033,0.107-0.029,0.149,0.01c0.041,0.04,0.063,0.105,0.063,0.193v0.853c0,0.088-0.022,0.176-0.063,0.265
					c-0.042,0.089-0.091,0.148-0.149,0.181l-2.522,1.456v1.912l2.351-1.357c0.058-0.033,0.107-0.029,0.147,0.011
					c0.042,0.04,0.063,0.105,0.063,0.192v0.854c0,0.088-0.02,0.176-0.063,0.265c-0.041,0.088-0.09,0.148-0.147,0.181l-2.351,1.357
					v1.996L188.554,178.706z"/>
				<path style="fill:#455A64;" d="M191.608,169.909c0.349-0.201,0.656-0.307,0.922-0.316c0.264-0.008,0.486,0.044,0.663,0.158
					c0.178,0.114,0.312,0.275,0.402,0.483c0.091,0.208,0.142,0.425,0.154,0.652c0.005,0.093-0.015,0.182-0.059,0.268
					c-0.044,0.086-0.095,0.145-0.152,0.178l-0.546,0.316c-0.09,0.051-0.156,0.064-0.2,0.036c-0.044-0.026-0.085-0.073-0.122-0.14
					c-0.076-0.155-0.197-0.261-0.354-0.318c-0.159-0.057-0.395,0.005-0.707,0.185c-0.136,0.078-0.264,0.175-0.387,0.289
					c-0.122,0.115-0.229,0.241-0.32,0.378c-0.091,0.137-0.163,0.28-0.215,0.43c-0.052,0.15-0.078,0.302-0.078,0.454
					c0,0.184,0.025,0.32,0.074,0.408c0.049,0.088,0.132,0.139,0.249,0.156c0.117,0.017,0.273,0.005,0.466-0.034
					c0.191-0.039,0.432-0.093,0.719-0.162c0.312-0.076,0.581-0.109,0.807-0.1c0.227,0.01,0.412,0.071,0.556,0.185
					c0.142,0.114,0.249,0.279,0.319,0.495c0.071,0.215,0.107,0.488,0.107,0.816c0,0.361-0.053,0.726-0.156,1.094
					c-0.105,0.369-0.252,0.72-0.446,1.051c-0.193,0.331-0.43,0.643-0.71,0.933c-0.281,0.29-0.598,0.537-0.946,0.738
					c-0.292,0.168-0.571,0.275-0.836,0.32c-0.266,0.046-0.502,0.025-0.707-0.061c-0.207-0.085-0.371-0.236-0.497-0.453
					c-0.124-0.216-0.195-0.496-0.21-0.84c-0.005-0.093,0.014-0.183,0.058-0.268c0.044-0.085,0.097-0.146,0.153-0.179l0.547-0.316
					c0.088-0.051,0.156-0.066,0.202-0.045c0.048,0.021,0.087,0.071,0.119,0.149c0.036,0.083,0.08,0.162,0.132,0.236
					c0.053,0.074,0.122,0.125,0.21,0.155c0.09,0.029,0.2,0.031,0.334,0.006c0.13-0.024,0.297-0.094,0.495-0.208
					c0.156-0.09,0.307-0.195,0.452-0.316c0.146-0.12,0.273-0.254,0.383-0.401c0.11-0.148,0.197-0.303,0.266-0.466
					c0.068-0.164,0.102-0.337,0.102-0.522c0-0.176-0.037-0.299-0.11-0.369c-0.073-0.071-0.183-0.103-0.332-0.097
					c-0.148,0.006-0.331,0.036-0.549,0.089c-0.22,0.054-0.473,0.109-0.759,0.161c-0.259,0.054-0.488,0.072-0.683,0.052
					c-0.195-0.02-0.356-0.089-0.485-0.208c-0.127-0.119-0.222-0.29-0.285-0.515c-0.063-0.224-0.093-0.517-0.093-0.877
					c0-0.361,0.053-0.723,0.156-1.089c0.105-0.364,0.247-0.708,0.429-1.029c0.183-0.322,0.4-0.617,0.652-0.888
					C191.044,170.296,191.317,170.077,191.608,169.909z"/>
			</g>
		</g>
	</g>
	<g id="Pot_3_">
		<g id="XMLID_575_">
			<path id="XMLID_658_" style="opacity:0.15;" d="M190.683,97.173c-6.656,3.843-6.656,10.073,0,13.916
				c6.656,3.843,17.448,3.843,24.104,0c6.656-3.843,6.656-10.073,0-13.916C208.131,93.33,197.339,93.33,190.683,97.173z"/>
			<path id="XMLID_657_" style="fill:#EBEBEB;" d="M213.724,105.14c5.878-5.998,9.331-20.974,3.598-25.731H188.15
				c-5.732,4.756-2.283,19.724,3.592,25.726c0.05,0.056,0.108,0.11,0.161,0.165c0.067,0.066,0.134,0.133,0.202,0.198
				c0.166,0.161,0.342,0.318,0.531,0.472c0.047,0.039,0.094,0.073,0.141,0.11c0.144,0.113,0.286,0.226,0.444,0.336
				c0.25,0.177,0.503,0.343,0.76,0.485c4.835,2.792,12.674,2.792,17.509,0h0h0.001c0.258-0.143,0.513-0.31,0.765-0.489
				c0.146-0.102,0.278-0.208,0.413-0.312c0.058-0.046,0.116-0.089,0.174-0.136c0.182-0.149,0.352-0.301,0.512-0.456
				c0.079-0.074,0.156-0.151,0.234-0.228C213.632,105.232,213.681,105.187,213.724,105.14z"/>
			<path id="XMLID_656_" style="fill:#FAFAFA;" d="M190.683,77.492c-6.656,3.843-6.656,10.074,0,13.916
				c6.656,3.842,17.448,3.843,24.104,0c6.656-3.843,6.656-10.074,0-13.916C208.131,73.649,197.339,73.649,190.683,77.492z"/>
			<path id="XMLID_655_" style="fill:#EBEBEB;" d="M195.402,80.217c-4.049,2.338-4.049,6.129,0,8.467
				c4.049,2.338,10.615,2.338,14.664,0c4.05-2.338,4.049-6.129,0-8.467C206.018,77.879,199.452,77.879,195.402,80.217z"/>
			<path id="XMLID_591_" style="fill:#E0E0E0;" d="M210.067,84.235c-4.05-2.338-10.615-2.338-14.664,0
				c-1.125,0.65-1.926,1.413-2.426,2.224c0.5,0.812,1.301,1.575,2.426,2.225c4.049,2.338,10.615,2.338,14.664,0
				c1.125-0.65,1.926-1.413,2.426-2.225C211.993,85.648,211.192,84.885,210.067,84.235z"/>
		</g>
		<g id="XMLID_389_">
			<path id="XMLID_573_" style="fill:#BA68C8;" d="M201.656,87.745c-3.325-0.315-6.341-2.079-8.332-4.76
				c-0.749-1.009-1.561-2.213-2.331-3.576c-2.449-4.331-2.902-10.134-1.635-10.85c1.266-0.716,6.421,5.072,6.421,5.072
				s-0.759-3.536-0.542-7.393c0.216-3.858,1.156-7.363,2.261-8.071c1.105-0.708,3.577,4.16,4.637,7.687
				c1.06,3.527,1.693,6.425,1.693,6.425s0.724-4.767,1.9-8.116c1.286-3.661,2.452-4.489,3.356-4.127
				c0.904,0.362,1.501,2.07,1.765,6.947c0.185,3.415-0.218,6.98-0.218,6.98s1.817-1.998,3.835-3.937
				c2.215-2.128,3.164-2.421,3.797-2.016c0.633,0.406,0.808,3.717-2.624,9.924c-1.21,2.189-2.488,3.99-3.585,5.363
				c-2.461,3.08-6.278,4.794-10.208,4.465C201.783,87.756,201.719,87.751,201.656,87.745z"/>
			<path id="XMLID_572_" style="opacity:0.15;" d="M201.656,87.745c-3.325-0.315-6.341-2.079-8.332-4.76
				c-0.749-1.009-1.561-2.213-2.331-3.576c-2.449-4.331-2.902-10.134-1.635-10.85c1.266-0.716,6.421,5.072,6.421,5.072
				s-0.759-3.536-0.542-7.393c0.216-3.858,1.156-7.363,2.261-8.071c1.105-0.708,3.577,4.16,4.637,7.687
				c1.06,3.527,1.693,6.425,1.693,6.425s0.724-4.767,1.9-8.116c1.286-3.661,2.452-4.489,3.356-4.127
				c0.904,0.362,1.501,2.07,1.765,6.947c0.185,3.415-0.218,6.98-0.218,6.98s1.817-1.998,3.835-3.937
				c2.215-2.128,3.164-2.421,3.797-2.016c0.633,0.406,0.808,3.717-2.624,9.924c-1.21,2.189-2.488,3.99-3.585,5.363
				c-2.461,3.08-6.278,4.794-10.208,4.465C201.783,87.756,201.719,87.751,201.656,87.745z"/>
			<path style="opacity:0.15;" d="M195.946,61.355c-0.354,1.392-0.611,3.097-0.711,4.882c-0.216,3.857,0.542,7.393,0.542,7.393
				l2.559,2.66C198.336,76.29,195.784,67.791,195.946,61.355z"/>
			<path style="opacity:0.15;" d="M216.993,68.05c-0.597,0.281-1.397,0.887-2.529,1.974c-2.018,1.939-3.835,3.937-3.835,3.937
				s-0.175,2.179-0.579,3.662C213.807,75.455,216.993,68.051,216.993,68.05z"/>
			<path style="opacity:0.15;" d="M205.259,69.474c0.643-4.069,1.578-7.437,2.286-8.914l0,0c-0.57,0.615-1.189,1.74-1.839,3.59
				c-1.176,3.349-1.9,8.116-1.9,8.116l0.689,3.311C204.495,75.578,204.755,72.656,205.259,69.474z"/>
		</g>
	</g>
	<g id="Files">
		<path id="Shadow_119_" style="opacity:0.15;" d="M216.616,138.897c1.001-0.567,1.001-1.485,0-2.053l-77.145-43.665
			c-1.001-0.566-2.624-0.566-3.626,0L65.834,132.81l80.802,45.702L216.616,138.897z"/>
		<g id="File">
			<path id="XMLID_9308_" style="fill:#BA68C8;" d="M210.128,139.275c0.453-0.257,0.681-0.593,0.682-0.93
				c0.001-0.338,0-1.434,0-1.434l-69.084-39.059c-0.909-0.515-2.383-0.515-3.293,0L74.858,133.84l71.723,41.409L210.128,139.275z"/>
			<path id="XMLID_9306_" style="fill:#BA68C8;" d="M210.128,137.878c0.909-0.515,0.909-1.349,0-1.864l-68.402-39.56
				c-0.909-0.515-2.383-0.515-3.293,0l-63.575,35.988l71.723,41.41L210.128,137.878z"/>
			<path id="XMLID_9305_" style="opacity:0.5;" d="M210.128,137.878c0.909-0.515,0.909-1.349,0-1.864l-68.402-39.56
				c-0.909-0.515-2.383-0.515-3.293,0l-63.575,35.988l71.723,41.41L210.128,137.878z"/>
			<g id="XMLID_9296_">
				<path id="XMLID_9304_" style="fill:#EBEBEB;" d="M89.493,123.037l47.068-26.629c0.909-0.515,2.383-0.515,3.292,0l62.963,36.48
					l6.121-3.496v7.107l-0.114,0.067c0.203,0.438,0.039,0.921-0.568,1.264l-53.904,30.499L82.63,126.92v-7.765L89.493,123.037z"/>
				<path id="XMLID_9302_" style="fill:#FAFAFA;" d="M208.255,130.066c0.909-0.515,0.909-1.349,0-1.864l-68.402-39.56
					c-0.909-0.514-2.383-0.514-3.293,0L82.63,119.155l71.722,41.41L208.255,130.066z"/>
				<polygon id="XMLID_9301_" style="fill:#E6E6E6;" points="154.352,160.565 154.352,168.33 82.63,126.92 82.63,119.155 				"/>
				<path id="XMLID_9299_" style="fill:#263238;" d="M153.48,157.533c0.19,0.093,0.38,0.168,0.608,0.205
					c0.323,0.075,0.685,0.075,0.969-0.019c0.114-0.019,0.209-0.056,0.304-0.112c0.494-0.261,0.437-0.745-0.133-1.062
					c-0.247-0.13-0.552-0.223-0.855-0.242c-0.38-0.037-0.76,0.019-1.027,0.168c-0.038,0.019-0.076,0.037-0.095,0.075
					C152.872,156.825,152.948,157.234,153.48,157.533z"/>
				<path id="XMLID_9297_" style="fill:#455A64;" d="M145.173,163.608c0,1.1,0.285,2.013,0.837,2.684
					c0.57,0.708,1.407,1.099,2.357,1.099c0.019,0,0.019,0,0.019,0c0.723,0,1.502-0.224,2.281-0.671
					c0.133-0.074,0.285-0.149,0.418-0.242l-0.931-0.522c-2.243,1.231-4.03,0.187-4.03-2.348s1.825-5.647,4.068-6.914
					c1.216-0.689,2.319-0.708,3.061-0.149c0.38,0.242,0.665,0.653,0.836,1.193c0.323,0.075,0.685,0.075,0.969-0.019
					c-0.133-0.559-0.361-1.044-0.684-1.416c-0.57-0.69-1.388-1.081-2.357-1.081c-0.741,0-1.502,0.224-2.3,0.671
					C147.169,157.328,145.173,160.72,145.173,163.608z"/>
			</g>
			<path id="XMLID_9295_" style="fill:#BA68C8;" d="M147.534,156.27l63.276-30.319v1.013c0,0.514-0.368,1.141-0.823,1.398
				l-62.453,29.314V156.27z"/>
			<path id="XMLID_9293_" style="fill:#BA68C8;" d="M210.128,126.876c0.909-0.515,0.909-1.349,0-1.864l-68.402-39.56
				c-0.909-0.514-2.383-0.514-3.293,0l-63.575,29.927l71.723,41.41L210.128,126.876z"/>
			<path id="XMLID_476_" style="opacity:0.4;fill:#FFFFFF;" d="M210.128,126.876c0.909-0.515,0.909-1.349,0-1.864l-68.402-39.56
				c-0.909-0.514-2.383-0.514-3.293,0l-63.575,29.927l71.723,41.41L210.128,126.876z"/>
			<g id="XMLID_9280_">
				<polygon id="XMLID_9289_" style="fill:#BA68C8;" points="146.581,175.249 74.858,133.84 74.858,115.354 146.579,156.796 				"/>
				<polygon id="XMLID_9288_" style="opacity:0.2;fill:#FFFFFF;" points="146.581,175.249 74.858,133.84 74.858,115.354 
					146.579,156.796 				"/>
				<g id="XMLID_9284_">
					<path id="XMLID_9286_" style="fill:#455A64;" d="M132.105,163.393c0.953,0,1.795-0.39,2.371-1.099
						c0.546-0.67,0.833-1.599,0.833-2.686c-0.002-2.887-2.001-6.281-4.552-7.727c-0.787-0.445-1.559-0.671-2.296-0.671
						c-1.918,0-3.205,1.521-3.205,3.785c0,2.889,2,6.283,4.553,7.727c0.787,0.444,1.559,0.67,2.294,0.67H132.105z"/>
					<path id="XMLID_9285_" style="fill:#F5F5F5;" d="M134.359,159.609c0.001,2.547-1.823,3.579-4.075,2.306
						c-2.252-1.272-4.077-4.371-4.077-6.919c0-2.549,1.824-3.581,4.074-2.307C132.532,153.964,134.357,157.063,134.359,159.609z"/>
				</g>
				<path id="XMLID_9283_" style="fill:#F5F5F5;" d="M119.569,150.332v1.397c0,2.799-2.004,3.933-4.477,2.534L84.95,136.357
					c-2.472-1.399-4.476-4.802-4.476-7.602v-1.397c0-2.799,2.004-3.933,4.476-2.534l30.143,17.906
					C117.565,144.13,119.569,147.533,119.569,150.332z"/>
				<polygon id="XMLID_9282_" style="fill:#BA68C8;" points="147.562,174.703 147.562,156.327 146.579,156.796 146.581,175.249 				
					"/>
			</g>
		</g>
		<g id="Photo_1_">
			<path style="fill:#FAFAFA;" d="M137.842,101.711l-26.716,12.582c-0.663,0.312-0.686,0.862-0.051,1.228l31.937,18.452
				c0.634,0.366,1.686,0.411,2.348,0.098l26.716-12.581c0.663-0.312,0.686-0.862,0.051-1.228L140.19,101.81
				C139.556,101.443,138.505,101.399,137.842,101.711z"/>
			<g id="Top_7_">
				<path style="fill:#E6E6E6;" d="M172.371,120.448c0.37,0.346,0.262,0.781-0.296,1.041l-7.487,3.522l-9.021-6.016
					c4.224-1.484,5.523-1.231,10.124-0.167C167.595,119.268,169.949,119.842,172.371,120.448z"/>
				<g id="XMLID_592_">
					<path style="fill:#F5F5F5;" d="M165.799,121.757c0.848,0.567,1.608,1.099,2.301,1.608l-22.743,10.707
						c-0.659,0.311-1.715,0.268-2.348-0.097l-2.57-1.484c-1.258-1.332-2.253-2.847-1.809-4.369c0,0,4.85-3.616,3.061-4.796
						l8.052-3.499c1.002,0.664,4.157-0.652,7.258-1.091C159.866,118.331,164.117,120.631,165.799,121.757z"/>
					<g id="XMLID_593_">
						<g id="XMLID_645_">
							<g id="XMLID_652_">
								<path style="fill:#37474F;" d="M143.225,115.279c-0.278,0.609-0.721,1.32-1.459,1.796c-0.667,0.431-1.012,0.992-1.624,1.458
									c-1.311,0.997,1.01,2.676-1.114,2.957c-2.014-0.736-7.69-0.427-12.103-2.887c-2.24-1.248-2.985-2.933-1.756-4.513
									c-1.257-1.094-0.697-1.883-0.448-2.299c0.551-0.921,1.472-1.687,2.628-2.388c1.127-0.683,2.307-1.329,3.689-1.838
									c1.461-0.538,2.904-1.034,3.575-2.007c0.285-0.413,0.924-0.208,1.315,0.03c0.307,0.187,0.554,0.402,0.757,0.63
									c0.187,0.21,0.391,0.567,0.391,0.567c0.247-0.257,0.327-0.592,0.313-0.914c-0.012-0.276-0.162-0.876,0.404-0.823
									c0.491,0.046,1.207,0.425,1.503,0.715c0.421,0.413,0.829,0.871,0.864,1.351c0.727-0.315,1.659-0.144,2.141,0.027
									c0.974,0.346,1.586,1.025,1.653,1.673c0.058,0.568-0.365,1.074-0.825,1.56c-0.11,0.116-0.217,0.313-0.225,0.447
									c-0.012,0.19,0.208,0.428,0.282,0.614C143.688,112.697,143.8,114.022,143.225,115.279z"/>
								<path style="fill:#455A64;" d="M130.061,113.077c1.895,0.255,7.272,2.802,10.599,4.992
									c-0.159,0.159-0.325,0.317-0.519,0.464c-1.311,0.997,1.12,2.752-1.005,3.033c-2.014-0.736-7.551-0.193-11.963-2.652
									c-2.24-1.248-3.787-3.35-2.005-4.823C125.169,114.091,127.794,113.021,130.061,113.077z"/>
								<g>
									<path style="fill:#FFA8A7;" d="M130.061,113.077c2.332,0.89,3.356,2.94,2.34,3.869c1.25,0.527,1.8,0.807,2.382,1.315
										c0.183,0.16,0.357,0.328,0.424,0.516c0.067,0.188,0.018,0.397-0.193,0.544c-0.285,0.198-0.608,0.166-0.955,0.083
										c-0.447-0.107-0.934-0.166-1.404-0.239c-0.227-0.035-0.415-0.032-0.635-0.036c-0.922,0.031-2.867,0.559-1.975,1.802
										c0.924,1.287,4.194,1.646,5.713,1.232c2.06-0.562,1.549-1.859,1.549-1.859l5.029,3.465
										c0.477,0.329,1.449,0.865,3.033,1.021c2.901,0.285,6.667-0.247,10.564,0.342c-0.793-1.961-3.21-3.764-4.778-4.375
										l-2.742-1.808c0,0,1.711-0.776,2.429-1.356c1.48-1.194,0.643-2.616-0.596-3.723c-2.766-2.471-10.233-6.284-12.527-5.744
										c-0.765,0.442-0.225,1.945-0.974,2.491C134.898,111.965,131.424,111.481,130.061,113.077z"/>
								</g>
								<path style="fill:#263238;" d="M137.737,114.961c0.319,0.233,0.905,0.272,1.308,0.088s0.471-0.523,0.152-0.755
									c-0.319-0.233-0.905-0.272-1.308-0.088C137.486,114.39,137.418,114.728,137.737,114.961z"/>
								<path style="fill:#263238;" d="M142.827,112.075c0.356,0.214,0.945,0.221,1.317,0.016c0.371-0.206,0.384-0.546,0.028-0.76
									c-0.356-0.214-0.946-0.221-1.317-0.016C142.483,111.52,142.471,111.86,142.827,112.075z"/>
								<path id="XMLID_653_" style="fill:#F28F8F;" d="M148.413,118.95c0,0-3.007,1.281-4.715,1.599
									c-1.962,0.365-3.635,0.185-4.272,0.052c0,0,1.446,0.792,3.559,0.614c3.355-0.281,6.171-1.775,6.171-1.775L148.413,118.95z"
									/>
							</g>
							<g id="XMLID_648_">
								<polygon id="XMLID_651_" style="fill:#F28F8F;" points="139.246,112.795 144.356,114.991 145.537,113.219 								"/>
								<path id="XMLID_650_" style="fill:#263238;" d="M136.838,113.325l-1.001,1.227c-0.592-0.174-0.848-0.59-0.571-0.928
									C135.542,113.285,136.246,113.151,136.838,113.325z"/>
								<path id="XMLID_649_" style="fill:#263238;" d="M143.287,110.292l-2.312,0.293c-0.165-0.369,0.218-0.733,0.857-0.814
									C142.47,109.69,143.122,109.923,143.287,110.292z"/>
							</g>
						</g>
						<g id="XMLID_600_">
							<g>
								<g id="XMLID_602_">
									<path id="XMLID_642_" style="fill:#B16668;" d="M142.813,116.89l2.629-0.594c0.314,0.416-0.02,0.887-0.746,1.051
										C143.969,117.511,143.126,117.306,142.813,116.89z"/>
								</g>
								<path style="fill:#F28F8F;" d="M143.388,117.076c-0.082,0.028-0.14,0.068-0.202,0.106c0.403,0.207,0.986,0.283,1.51,0.164
									c0.031-0.007,0.057-0.018,0.087-0.026c-0.013-0.015-0.013-0.031-0.028-0.046
									C144.472,117.002,143.86,116.913,143.388,117.076z"/>
							</g>
						</g>
					</g>
				</g>
				<g>
					<path style="fill:#E6E6E6;" d="M154.332,124.949c-2.13-0.177-6.494-0.529-8.62-0.718c-2.126-0.189-4.022-0.905-4.022-0.905
						l-0.807-0.556c0,0-0.4,0.001,0.005,1.018c0.405,1.017-0.263,2.589-0.263,2.589s6.038,1.731,10.997,1.244
						C151.43,125.168,153.166,125.004,154.332,124.949z"/>
					<path style="fill:#E6E6E6;" d="M155.415,124.175c-1.505-1.67-2.307-2.289-4.26-3.416l-1.999-1.318c0,0,0.508-0.045,1.057,0.05
						c0.549,0.095,1.897,0.309,3.312-0.019c2.708,0.865,5.118,2.523,5.677,3.775C157.432,122.972,155.004,122.619,155.415,124.175z"
						/>
				</g>
				<g id="Arms_2_">
					<g>
						<path style="fill:#E6E6E6;" d="M147.24,131.913c0.289,0.229,0.605,0.513,0.942,0.831l-2.825,1.328
							c-0.659,0.311-1.715,0.268-2.348-0.097l-6.592-3.806c0.552-0.614,1.292-1.289,2.213-2.047
							C140.473,128.122,144.233,129.509,147.24,131.913z"/>
					</g>
				</g>
			</g>
		</g>
		<g id="Label_5_">
			<path style="fill:#FAFAFA;" d="M179.465,122l-38.253,17.839c-1.086,0.506-1.126,1.404-0.089,2.005l6.271,3.635
				c1.037,0.601,2.757,0.677,3.843,0.171l38.253-17.84c1.086-0.506,1.126-1.404,0.089-2.005l-6.271-3.635
				C182.272,121.57,180.551,121.493,179.465,122z"/>
			<g>
				<path style="fill:#455A64;" d="M184.538,127.593c-1.005-0.146-1.956-0.44-2.857-0.852c-0.561-0.601-1.532-1.028-2.104-1.252
					c-0.267-0.105-0.236,0.421-0.104,0.53c0.617,0.511,1.281,0.924,1.972,1.28c0.137,0.388,0.116,0.881-0.402,0.857
					c-0.36-0.016-0.728-0.282-1.012-0.474c-0.111-0.074-0.18,0.188-0.095,0.256c0.086,0.135,0.171,0.269,0.257,0.404
					c-0.703-0.117-1.335-0.385-1.908-0.804c-0.139-0.107-0.249-0.187-0.301-0.221c-0.123-0.082-0.202,0.213-0.122,0.286
					c0.007,0.007,0.016,0.011,0.023,0.018c0,0.001,0,0.001,0,0.002c0.044,0.033,0.09,0.07,0.135,0.104
					c0.102,0.086,0.206,0.168,0.311,0.244c0.359,0.292,0.705,0.615,0.962,0.986c0.069,0.089,0.139,0.179,0.208,0.268
					c0.175,0.365,0.158,0.495-0.049,0.389c-0.114,0.104-1.093-0.509-1.383-0.666c-1.116-0.606-2.152-1.333-3.123-2.151
					c-0.209-0.178-0.316,0.308-0.158,0.445c0.69,0.569,1.316,1.188,1.868,1.893c0.355,0.453,0.647,1.213-0.272,0.95
					c-0.436-0.124-0.826-0.324-1.201-0.572c-0.158-0.104-0.207,0.242-0.175,0.325c0.157,0.343,0.21,0.705,0.205,1.077
					c-0.549-0.14-1.004-0.381-1.422-0.81c-0.223-0.229-0.358,0.139-0.303,0.328c0.182,0.628,0.523,1.973-0.565,1.216
					c-0.258-0.18-0.472-0.393-0.664-0.623c0-0.532-0.236-1.03-0.839-1.422c-0.262-0.171-0.321,0.286-0.265,0.438
					c0.106,0.287,0.299,0.683,0.546,1.076c-0.075,0.725-0.76,1.562-1.121,1.934c-0.411,0.424-0.9,0.779-1.425,1.047
					c-0.538,0.275-1.614,0.781-1.235-0.331c0.094-0.276,0.24-0.514,0.409-0.733c0.38-0.238,0.717-0.572,1.011-0.874
					c0.188-0.193-0.035-0.774-0.332-0.605c-0.326,0.185-0.627,0.432-0.887,0.717c-0.767,0.49-1.73,0.777-1.832-0.596
					c-0.003-0.038,0.011-0.079,0.012-0.117c0.966-0.295,1.798-0.898,2.437-1.765c0.068-0.092,0.069-0.312-0.035-0.384
					c-1.279-0.889-2.741,0.721-2.88,2.046c-0.306,0.094-0.621,0.167-0.949,0.207c-0.041,0.005-0.07,0.104-0.018,0.104
					c0.33,0.005,0.647-0.03,0.955-0.087c0.001,0.071,0.003,0.141,0.012,0.209c0.096,0.661,0.53,1.287,1.211,1.431
					c0.148,0.031,0.289,0.032,0.428,0.021c-0.119,0.32-0.189,0.658-0.178,1.007c0.039,1.222,1.08,0.891,1.886,0.522
					c0.955-0.437,2.518-1.811,2.967-3.146c0.424,0.507,0.935,0.897,1.468,0.852c0.657-0.056,0.601-0.92,0.45-1.614
					c0.396,0.276,0.823,0.47,1.327,0.579c0.129,0.028,0.219-0.106,0.22-0.224c0.004-0.428-0.04-0.798-0.147-1.173
					c0.757,0.402,2.068,0.969,2.006-0.217c-0.021-0.405-0.276-0.759-0.527-1.074c0.185,0.122,0.362,0.255,0.552,0.37
					c0.479,0.288,1.719,1.243,2.329,1.054c0.807-0.251,0.319-1.018-0.359-1.711c0.349,0.128,0.711,0.23,1.102,0.278
					c0.144,0.018,0.175-0.239,0.136-0.327c-0.029-0.067-0.062-0.123-0.094-0.18c0.636,0.287,1.394,0.37,1.508-0.525
					c0.009-0.069-0.01-0.132-0.014-0.198c0.795,0.342,1.63,0.599,2.511,0.746C184.984,128.425,184.887,127.643,184.538,127.593z
					 M168.273,129.768c-0.518,0.668-1.176,1.172-1.93,1.497C166.574,130.483,167.511,129.664,168.273,129.768z"/>
				<g>
					<path style="fill:#455A64;" d="M167.009,136.438c-0.627-0.485-1.357-0.816-2.029-1.241c-0.556-0.848-1.5-1.547-2.268-1.89
						c-0.266-0.119-0.243,0.436-0.134,0.548c0.248,0.255,0.504,0.5,0.769,0.737c0.125,0.112,0.242,0.194,0.381,0.281
						c0.14,0.089,0.257,0.207,0.389,0.306c0.153,0.115,0.291,0.237,0.436,0.362c0.07,0.061,0.139,0.121,0.189,0.198
						c0.09,0.136,0.178,0.294,0.22,0.454c0.131,0.503-0.228,1.003-0.749,1.044c-0.352,0.027-0.669-0.011-1.009-0.104
						c-0.286-0.078-0.498-0.221-0.66-0.473c-0.075-0.117-0.219-0.07-0.256,0.051c-0.017,0.068-0.088,0.347-0.076,0.337
						c-0.293,0.243-0.659-0.229-0.829-0.388c-0.221-0.208-0.288,0.298-0.229,0.421c0.01,0.106,0.019,0.213,0.029,0.319
						c-0.211-0.083-0.402-0.185-0.574-0.313c-0.16-0.206-0.353-0.393-0.56-0.555c-0.253-0.199-0.298,0.336-0.193,0.474
						c0.124,0.164,0.261,0.304,0.405,0.432c0.505,0.724,0.234,1.586-0.798,1.431c-0.308-0.046-0.604-0.173-0.882-0.321
						c0-0.045,0.009-0.089,0.005-0.135c-0.112-1.276-1.08-2.313-2.274-2.68c-0.078-0.024-0.137,0.024-0.176,0.086
						c-0.448,0.697,0.253,1.399,0.696,1.896c0.407,0.456,0.87,0.89,1.392,1.22c-0.206,0.6-0.865,0.728-1.327,0.258
						c-0.057-0.058-0.139-0.021-0.168,0.049c-0.018,0.045-0.076,0.461-0.076,0.462c-0.298,0.411-1.062-0.386-1.326-0.617
						c-0.203-0.178-0.282,0.282-0.16,0.415c0.066,0.299,0.131,0.598,0.197,0.897c-0.343-0.166-0.629-0.391-0.863-0.686
						c-0.015-0.025-0.035-0.047-0.05-0.071c-0.058-0.079-0.119-0.155-0.173-0.24c-0.017-0.021-0.029-0.045-0.047-0.065
						c-0.267-0.308-0.405,0.276-0.283,0.476c0.024,0.039,0.052,0.069,0.077,0.107c0.771,0.973,0.073,2.273-1.101,2.378
						c-0.892,0.08-1.551-0.621-2.051-1.265c-0.506-0.652-1.849-2.771-0.204-3c0.94-0.131,1.898,0.939,2.419,1.518
						c0.041,0.045,0.089-0.073,0.069-0.108c-0.531-0.889-2.106-2.674-3.246-1.607c-1.087,1.018,0.024,2.795,0.703,3.68
						c0.833,1.085,2.18,2.046,3.485,1.046c0.597-0.458,0.806-1.14,0.737-1.814c0.232,0.157,0.484,0.291,0.774,0.385
						c0.112,0.036,0.19-0.081,0.216-0.171c0.091-0.322,0.098-0.627,0.042-0.915c0.309,0.206,0.639,0.36,0.863,0.253
						c0.259-0.123,0.186-0.425,0.175-0.675c0.649,0.528,1.326,0.136,1.579-0.529c0.253,0.133,0.516,0.244,0.801,0.307
						c0.807,0.178,1.55-0.099,1.703-0.977c0.031-0.18,0.027-0.351-0.001-0.515c0.119,0.053,0.241,0.103,0.372,0.143
						c0.102,0.031,0.182-0.065,0.206-0.153c0.036-0.129,0.053-0.248,0.06-0.365c0.248,0.214,0.538,0.401,0.77,0.256
						c0.19-0.119,0.226-0.401,0.144-0.594c0.151,0.168,0.402,0.273,0.616,0.329c0.247,0.065,0.492,0.126,0.749,0.126
						c0.244,0,0.457-0.017,0.683-0.113c0.406-0.171,0.825-0.316,0.859-0.823c0.013-0.195-0.007-0.389-0.05-0.579
						c0.478,0.304,0.983,0.566,1.541,0.637C167.098,136.799,167.099,136.508,167.009,136.438z M156.815,136.999
						c-0.083-0.098-0.164-0.197-0.244-0.296c-0.188-0.356-0.141-0.445,0.141-0.267c0.371,0.074,0.832,0.539,1.052,0.819
						c0.236,0.301,0.467,0.725,0.514,1.124C157.714,138.011,157.246,137.511,156.815,136.999z"/>
					<path style="fill:#455A64;" d="M161.038,136.765c0-0.002,0.002-0.002,0.002-0.004
						C161.045,136.742,161.046,136.737,161.038,136.765z"/>
				</g>
			</g>
		</g>
	</g>
</g>
<g id="Character">
	<g id="Character_2_">
		<g id="Bottom_8_">
			<g id="Leg">
				<g>
					<path d="M402.511,383.188c-0.013,1.332,0.665,3.423,2.246,4.306c4.921,2.747,12.051,3.295,17.932,1.478
						c6.753-2.087,9.816-5.612,11.129-10.23c1.312-4.618,0.969-9.771-0.92-15.935c-1.227-4.003-0.382-9.423,0.119-13.485
						c0.853-6.915,0.198-11.07-2.041-14.247c-2.578-3.659-7.33-5.143-11.126-3.715l1.333,47.469L402.511,383.188z"/>
					<path style="fill:#263238;" d="M410.834,362.119c0.049,6.227-1.388,8.475-4.112,12.169c-2.393,3.245-8.624,8.358-0.647,12.28
						c6.212,3.055,21.649,2.725,25.769-7.557c3.199-7.982-1.623-15.457-0.432-25.924c0.799-7.025,0.18-19.285-7.976-21.162
						c-4.454-1.025-5.905-0.942-12.89,2.632c-4.857,2.485-5.259,3.604-5.069,4.257l1.189-0.544c4.045-0.773,7.485,1.172,9.278,3.975
						c2.812,4.398,3.158,10.909,0.134,15.194L410.834,362.119z"/>
				</g>
				<g>
					<path style="fill:#455A64;" d="M359.535,294.39l36.671-9.24c1.789,7.401,2.904,21.997-0.177,33.149
						c-3.081,11.153-13.421,29.773-13.421,29.773l25.447-12.957c0,0,5.256-0.474,9.148,6.558
						c6.145,11.102,0.348,22.251,0.348,22.251s-30.209,17.83-49.38,29.363c-18.95,11.4-30.925,14.948-41.271,6.691
						c-6.112-4.878-7.419-13.918-5.046-26.869C325.877,351.143,359.535,294.39,359.535,294.39"/>
					<path style="fill:#37474F;" d="M368.172,393.286c19.171-11.533,49.378-29.362,49.378-29.362s5.797-11.15-0.348-22.251
						c-3.857-6.968-9.045-6.566-9.139-6.559l0,0.001c-0.001,0-0.006,0-0.007,0l-0.001,0l-25.447,12.957l0,0l0,0
						c0,0,4.697-8.459,8.702-17.389c0.004-0.009,0.008-0.018,0.012-0.027c0-0.001,0.001-0.001,0.001-0.002
						c0.163-0.363,0.324-0.726,0.484-1.089c0.004-0.009,0.008-0.017,0.011-0.026c0.008-0.017,0.015-0.034,0.022-0.05
						c0.154-0.35,0.306-0.7,0.456-1.05c0.007-0.017,0.015-0.034,0.022-0.051c0.712-1.656,1.383-3.304,1.982-4.895
						c0.012-0.033,0.025-0.065,0.037-0.098c0.194-0.518,0.382-1.031,0.559-1.535l-31.855-10.312
						c1.978,11.437,11.292,22.159,11.292,22.159s-12.783,33.417-19.069,49.777c-4.935,12.843-16.307,16.646-24.5,14.657
						c-7.302-1.772-9.242-7.364-9.471-8.11c0,0.001,0,0.001,0,0.002c0.21,1.065,0.48,2.071,0.815,3.019c0,0,0,0,0,0.001
						c0.166,0.471,0.348,0.927,0.546,1.368c0.01,0.022,0.021,0.042,0.031,0.064c0.19,0.418,0.392,0.824,0.61,1.216
						c0.032,0.057,0.069,0.11,0.102,0.167c0.202,0.352,0.413,0.698,0.639,1.028c0.071,0.103,0.151,0.198,0.225,0.299
						c0.2,0.276,0.401,0.552,0.62,0.813c0.141,0.167,0.296,0.321,0.444,0.481c0.169,0.183,0.33,0.372,0.508,0.546
						c0.338,0.329,0.693,0.645,1.067,0.943c1.293,1.032,2.612,1.88,3.966,2.551c1.016,0.503,2.052,0.907,3.113,1.215
						c0.707,0.205,1.425,0.367,2.155,0.488c1.096,0.181,2.219,0.268,3.374,0.264c0.011,0,0.022-0.001,0.033-0.001
						c0.731-0.003,1.476-0.045,2.234-0.12c1.626-0.162,3.316-0.485,5.081-0.965c1.3-0.354,2.641-0.792,4.028-1.311
						c0.924-0.346,1.868-0.728,2.834-1.145c4.345-1.876,9.123-4.461,14.453-7.668C368.17,393.287,368.171,393.287,368.172,393.286z"
						/>
					<path style="opacity:0.15;" d="M381.421,363.77c7.529-9.647,28.361-22.849,32.94-25.862c-3.163-3.024-6.226-2.8-6.299-2.794
						l0,0.001c-0.001,0-0.006,0-0.007,0l-0.001,0l-12.724,6.478l-12.724,6.479c0,0-12.299,26.607-22.307,30.656
						C360.3,378.729,372.714,374.927,381.421,363.77z"/>
				</g>
			</g>
			<g id="Le">
				<g>
					<path style="fill:#263238;" d="M435.281,403.112c-0.013,1.332,0.665,3.423,2.246,4.306c4.921,2.748,12.051,3.295,17.932,1.478
						c6.753-2.087,9.816-5.612,11.129-10.23c1.312-4.618,0.969-9.771-0.92-15.935c-1.227-4.003-0.382-9.424,0.119-13.485
						c0.853-6.915,0.198-11.07-2.041-14.247c-2.578-3.659-7.33-5.143-11.126-3.715l1.333,47.469L435.281,403.112z"/>
					<path style="fill:#37474F;" d="M443.605,382.044c0.049,6.227-1.388,8.475-4.112,12.169c-2.393,3.245-8.624,8.358-0.647,12.28
						c6.212,3.055,21.649,2.725,25.769-7.557c3.199-7.982-1.623-15.457-0.432-25.924c0.799-7.025,0.18-19.285-7.976-21.162
						c-4.454-1.025-5.905-0.942-12.89,2.632c-4.857,2.485-5.259,3.604-5.069,4.257l1.189-0.544c4.045-0.773,7.485,1.172,9.279,3.975
						c2.812,4.398,3.158,10.909,0.134,15.194L443.605,382.044z"/>
				</g>
				<g>
					<path style="fill:#455A64;" d="M450.903,361.296c-4.394-8.376-12.781-5.541-12.781-5.541l-19.101,10.528
						c0,0,11.113-18.199,15.333-28.973c4.996-12.757,6.83-20.32,4.611-38.773l-51.602-0.897l-27.828-3.25
						c0.915,25.958,19.331,38.168,19.331,38.168s-17.253,42.6-20.712,56.991c-3.258,13.555-0.952,23.762,5.159,28.64
						c10.346,8.257,23.77,6.96,42.719-4.44c19.171-11.533,46.034-30.54,46.034-30.54S457.203,373.306,450.903,361.296z"/>
					<path style="fill:#37474F;" d="M417.836,381.981c11.666-16.037,22.122-22.682,27.51-25.962
						c-3.684-1.457-7.223-0.265-7.224-0.264l0,0l-19.1,10.529c0,0-12.299,26.607-22.307,30.656
						C396.715,396.94,409.51,393.426,417.836,381.981z"/>
				</g>
			</g>
		</g>
		<g id="Top_1_">
			<path style="fill:#E6E6E6;" d="M363.827,204.061c-13.968,5.323-14.7,9.323-18.688,21.032
				c-4.56,13.387-12.142,34.322-16.063,45.509c0.78,5.606,16.06,17.119,21.984,15.747l18.119-40.666L363.827,204.061z"/>
			<g id="XMLID_5682_">
				<path id="XMLID_5700_" style="fill:#F5F5F5;" d="M434.846,226.98c9.345,41.14,5.262,79.512,5.262,79.512
					c-10.916,9.758-67.357,13.385-82.296-11.286c7.408-25.874,0.007-33.369-2.355-65.357c-0.472-6.392-0.004-20.83,6.255-24.623
					c6.784-4.111,16.303-5.649,16.051-9.443l24.77-3.485c0.456,6.735,19.965,9.205,19.965,9.205
					C430.587,207.3,432.951,218.637,434.846,226.98z"/>
				<g id="XMLID_477_">
					<g id="XMLID_4764_">
						<g id="XMLID_5431_">
							<path style="fill:#37474F;" d="M374.294,174.509c2.437,1.177,5.475,2.331,8.222,2.272c2.482-0.053,4.872,0.867,7.382,1.015
								c5.372,0.316,7.109,9.388,11.457,6.169c0.848-5.854,11.02-15.695,10.113-30.891c-0.46-7.713-4.757-13.827-11.904-15.93
								c-1.545-5.429-5.026-6.58-6.785-7.274c-3.898-1.537-7.886-1.941-12.04-1.722c-4.05,0.214-8.064,0.634-11.958,1.817
								c-4.116,1.25-8.066,2.584-12.325,1.13c-1.81-0.618-2.17,1.161-2.024,2.564c0.114,1.099,0.417,2.168,0.834,3.189
								c0.383,0.939,1.219,2.322,1.219,2.322c-1.238-0.252-2.461-1.039-3.489-1.964c-0.883-0.794-2.599-2.756-3.34-1.54
								c-0.643,1.054-0.561,3.463-0.09,4.834c0.669,1.948,1.506,3.999,3.018,5.408c-2.203,0.491-3.148,2.726-3.366,4.113
								c-0.442,2.804,0.786,5.857,2.796,7.796c1.76,1.697,4.095,2.314,6.425,2.806c0.557,0.118,1.372,0.467,1.822,0.826
								c0.639,0.509,1.061,1.587,1.55,2.249C365.113,168.161,369.259,172.078,374.294,174.509z"/>
							<path style="fill:#455A64;" d="M388.355,143.533c-2.226,4.287-2.589,21.546-0.809,33.943c0.777,0.146,1.558,0.273,2.352,0.32
								c5.372,0.316,7.083,9.805,11.431,6.586c0.848-5.854,11.657-14.775,10.75-29.971c-0.461-7.713-4.825-16.508-12.514-17.268
								C399.564,137.143,391.829,139.099,388.355,143.533z"/>
							<g>
								<path style="fill:#FFA8A7;" d="M388.355,143.533c-0.857,6.885,4.182,14.548,8.858,15.231
									c-0.298,3.83-0.271,5.652,0.449,8.167c0.227,0.792,0.494,1.591,0.998,2.242c0.504,0.651,1.266,1.145,2.09,1.157
									c1.108,0.017,1.524-0.683,1.813-1.568c0.373-1.143,0.967-2.224,1.489-3.315c0.252-0.526,0.566-0.873,0.907-1.297
									c1.588-1.652,6.455-3.841,9.074,1.316c2.712,5.342-1.395,12.511-5.199,14.216c-5.16,2.313-8.573-2.277-8.573-2.277
									l2.401,15.681c0.303,1.819,0.485,5.15-1.564,8.572c-3.753,6.268-11.569,11.881-15.937,20.875
									c-5.123-6.978-7.11-16.577-6.573-21.241l-0.683-6.736c0,0-5.389,1.063-9.722,0.37c-6.233-0.997-8.966-6.313-10.482-11.773
									c-2.879-10.368-3.345-36.209,2.124-39.023c2.677-0.207,6.714,5.013,9.705,5.128
									C376.915,149.541,380.94,141.637,388.355,143.533z"/>
							</g>
							<path style="fill:#263238;" d="M382.796,163.712c0.253,1.297-0.593,2.553-1.89,2.806c-1.297,0.253-2.553-0.593-2.806-1.89
								c-0.253-1.297,0.593-2.553,1.89-2.806C381.286,161.569,382.542,162.415,382.796,163.712z"/>
							<path style="fill:#263238;" d="M364.627,164.796c0.13,1.315-0.831,2.486-2.146,2.616c-1.315,0.129-2.486-0.831-2.616-2.146
								c-0.129-1.315,0.831-2.486,2.146-2.616C363.327,162.52,364.498,163.481,364.627,164.796z"/>
							<path id="XMLID_5433_" style="fill:#F28F8F;" d="M377.905,194.556c0,0,9.039-2.086,12.835-4.419
								c4.359-2.679,6.471-6.337,7.065-7.909c0,0,0.251,4.939-3.739,8.428c-6.335,5.538-15.88,6.67-15.88,6.67L377.905,194.556z"/>
						</g>
						<g id="XMLID_4765_">
							<path id="XMLID_5274_" style="fill:#F28F8F;" d="M373.504,159.152l-1.052,16.543l-8.172-1.032
								C365.008,170.353,369.157,162.695,373.504,159.152z"/>
							<path id="XMLID_4792_" style="fill:#263238;" d="M378.73,158.084l5.82,1.597c0.402-1.658-0.576-3.361-2.183-3.801
								C380.76,155.438,379.132,156.425,378.73,158.084z"/>
							<path id="XMLID_4789_" style="fill:#263238;" d="M358.374,160.516l5.616-2.335c-0.591-1.588-2.328-2.352-3.879-1.707
								C358.56,157.119,357.782,158.928,358.374,160.516z"/>
						</g>
					</g>
					<g id="XMLID_4513_">
						<g>
							<g id="XMLID_4520_">
								<path id="XMLID_4760_" style="fill:#B16668;" d="M381.914,177.889L373,180.555c0.649,2.509,3.171,3.946,5.633,3.209
									C381.093,183.028,382.563,180.397,381.914,177.889z"/>
							</g>
							<path style="fill:#F28F8F;" d="M378.633,183.764c1.692-0.507,2.896-1.916,3.283-3.559c-0.139-0.043-0.277-0.089-0.427-0.106
								c-2.466-0.281-4.678,1.349-5.244,3.702C377.003,183.994,377.818,184.008,378.633,183.764z"/>
						</g>
					</g>
				</g>
			</g>
			<g>
				<path style="fill:#E6E6E6;" d="M386.878,219.421c2.177-4.518,8.189-13.006,11.345-17.313c3.155-4.307,4.309-9.81,4.309-9.81
					l-0.508-3.374c0,0,0.94-0.429,3.321,3.374c2.38,3.803,8.332,7.41,8.332,7.41s-5.336,15.86-15.518,23.083
					C391.039,214.993,389.094,217.542,386.878,219.421z"/>
				<path style="fill:#E6E6E6;" d="M382.778,218.711c-2.6-6.559-4.19-10.747-4.19-17.605l-0.683-6.55c0,0-1.104,0.341-1.993,1.593
					c-0.823,1.159-3.124,3.715-5.871,5.2c-2.122,7.383,0.768,16.852,3.594,21.638C374.635,218.737,378.77,213.26,382.778,218.711z"
					/>
			</g>
			<g id="Arms_1_">
				<g id="XMLID_479_">
					<path style="fill:#FFA8A7;" d="M384.732,287.629c0.476-0.726,2.182,0.598,5.654,1.117c4.433,0.662,6.118,0.39,10.833,1.273
						c1.776,0.333,3.615,0.897,6.525,0.737l-16.615,4.641c-2.645-1.082-3.698-1.587-4.933-2.546
						C383.745,290.944,384.12,288.562,384.732,287.629z"/>
					<g>
						<path id="XMLID_570_" style="fill:#BA68C8;" d="M307.516,246.978c-1.224-0.421-2.029,0.121-1.797,1.21l11.848,55.762
							l81.449,27.995l-12.049-55.838c-0.235-1.088-1.418-2.312-2.641-2.732l-46.52-15.987l-3.614-5.495
							c-0.231-0.351-0.599-0.627-1.037-0.778l-19.289-6.646c-1.057-0.364-2.213,0.084-2.526,0.98l-0.749,2.586L307.516,246.978z"/>
						<path id="XMLID_491_" style="opacity:0.6;fill:#FFFFFF;" d="M307.516,246.978c-1.224-0.421-2.029,0.121-1.797,1.21
							l11.848,55.762l81.449,27.995l-12.049-55.838c-0.235-1.088-1.418-2.312-2.641-2.732l-46.52-15.987l-3.614-5.495
							c-0.231-0.351-0.599-0.627-1.037-0.778l-19.289-6.646c-1.057-0.364-2.213,0.084-2.526,0.98l-0.749,2.586L307.516,246.978z"/>
						<polygon id="XMLID_481_" style="fill:#F0F0F0;" points="317.568,303.95 396.262,330.996 384.333,275.628 303.091,247.708 
													"/>
						<path id="XMLID_480_" style="fill:#BA68C8;" d="M399.016,331.945l-16.98-52.402c-0.347-1.071-1.621-2.281-2.845-2.702
							l-76.809-26.397c-1.224-0.421-1.937,0.108-1.593,1.18l16.78,52.326L399.016,331.945z"/>
						<path id="XMLID_403_" style="opacity:0.4;fill:#FFFFFF;" d="M399.016,331.945l-16.98-52.402
							c-0.347-1.071-1.621-2.281-2.845-2.702l-76.809-26.397c-1.224-0.421-1.937,0.108-1.593,1.18l16.78,52.326L399.016,331.945z"/>
					</g>
					<path style="fill:#FFA8A7;" d="M306.671,269.97c-3.106,4.363-2.914,7.617-1.279,12.958c1.636,5.342,5.623,11.557,7.73,13.168
						c2.107,1.611,6,3.838,10.118,2.699c4.075-1.127,3.862-6.484,5.576-8.845c2.741-3.776-1.474-6.133-5.397-6.393
						c-9.247-0.614-13.971-4.923-13.971-4.923L306.671,269.97z"/>
				</g>
				<path style="fill:#FFA8A7;" d="M379.214,296.354c6.729,0.079,11.916-0.958,11.916-0.958l16.615-4.641
					c7.57,0.342,27.956-16.201,27.956-16.201l-11.298-31.48c-6.526-14.656-6.729-34.908-1.906-41.571
					c15.822,4.005,19.17,5.206,23.433,18.902c3.456,11.106,12.19,40.586,15.949,51.9c2.154,6.483,3.221,12.274-3.693,16.893
					c-6.154,4.111-22.161,12.391-36.081,17.422c-7.441,2.689-11.5,5.096-19.434,6.84c-3.83,0.842-7.699,1.605-11.622,1.835
					c-2.8,0.164-6.219,0.436-8.218-2.074c-0.444-0.557-0.855-1.672-1.426-2.021c-0.424-0.26-1.264-0.214-1.756-0.394
					c-0.536-0.195-0.983-0.464-1.415-0.851c-0.759-0.68-1.343-1.677-1.564-2.671c-0.232-1.042-0.4-0.91-1.457-1.266
					c-0.919-0.309-1.814-0.709-2.373-1.557c-0.417-0.632-0.395-2.001-0.851-2.419c-0.537-0.491-1.962-0.441-2.66-0.681
					c-0.967-0.332-2.933-1.287-2.705-2.542c0.184-1.01,1.547-1.579,2.39-1.903C372.183,295.699,375.901,296.315,379.214,296.354z"/>
				<g>
					<path style="fill:#E6E6E6;" d="M422.497,201.504c-3.24,3.24-5.629,14.058-3.609,26.643
						c2.02,12.585,15.848,46.333,15.848,46.333l-13.802,10.67c0,0,5.413,2.97,8.054,8.097s1.418,10.111,1.418,10.111
						s9.988-3.753,19.718-8.764c8.324-4.287,13.201-6.986,14.289-10.536c1.088-3.551-1.243-11.245-3.729-18.973
						c-2.486-7.728-14.262-47.078-17.591-53.881C440.497,205.902,433.785,203.488,422.497,201.504z"/>
					<path style="fill:#E0E0E0;" d="M420.933,285.15l-6.545,3.668c0,0,5.952,3.353,7.463,8.792c1.511,5.438,1.031,8.727,1.031,8.727
						l7.523-2.979c0,0,2.024-4.441-0.696-10.385C426.989,287.029,420.933,285.15,420.933,285.15z"/>
				</g>
			</g>
		</g>
	</g>
</g>
<g id="Speech_Bubble">
	<g id="Speech_Bubble_6_">
		<g id="Speech_Bubble_7_">
			<path id="XMLID_689_" style="fill:#BA68C8;" d="M378.477,112.842l3.266-6.141l-2.628-7.585v-4.643l8.041,4.643v4.643
				l-3.457,5.988c-0.059,0.101-0.142,0.167-0.235,0.209l0.002,0.003L378.477,112.842z"/>
			<path id="XMLID_688_" style="opacity:0.2;" d="M378.477,112.842l3.266-6.141l-2.628-7.585v-4.643l8.041,4.643v4.643l-3.457,5.988
				c-0.059,0.101-0.142,0.167-0.235,0.209l0.002,0.003L378.477,112.842z"/>
			<path id="XMLID_687_" style="fill:#BA68C8;" d="M356.695,46.731c0-1.537,1.079-3.407,2.411-4.176l1.963-1.133
				c1.331-0.769,3.49-0.769,4.822,0l38.119,22.063c1.332,0.769,2.411,2.638,2.411,4.176v42.442c0,1.538-1.08,3.407-2.411,4.176
				l-1.963,1.134c-1.332,0.769-3.49,0.769-4.822,0l-15.118-8.728l-3.45,5.976c-0.221,0.382-0.788,0.328-0.932-0.089l-3.647-10.526
				l-14.973-8.696c-1.332-0.769-2.411-2.638-2.411-4.176L356.695,46.731z"/>
			<path id="XMLID_695_" style="opacity:0.2;fill:#FFFFFF;" d="M356.695,46.731c0-1.537,1.079-3.407,2.411-4.176l1.963-1.133
				c1.331-0.769,3.49-0.769,4.822,0l38.119,22.063c1.332,0.769,2.411,2.638,2.411,4.176v42.442c0,1.538-1.08,3.407-2.411,4.176
				l-1.963,1.134c-1.332,0.769-3.49,0.769-4.822,0l-15.118-8.728l-3.45,5.976c-0.221,0.382-0.788,0.328-0.932-0.089l-3.647-10.526
				l-14.973-8.696c-1.332-0.769-2.411-2.638-2.411-4.176L356.695,46.731z"/>
			<path id="XMLID_678_" style="fill:#BA68C8;" d="M406.421,110.103c0,1.538-1.079,3.407-2.411,4.176l-1.963,1.133
				c-1.204,0.695-3.076,0.755-4.41,0.194c1.135,0.429,1.999-0.211,1.999-1.586l0-42.443c0-0.769-0.27-1.62-0.706-2.376l6.785-3.917
				c0.436,0.755,0.706,1.607,0.706,2.376V110.103z"/>
			<path id="XMLID_677_" style="opacity:0.3;fill:#FFFFFF;" d="M356.774,46.046c0.281-1.024,1.215-1.35,2.328-0.708l38.124,22.067
				c0.664,0.382,1.271,1.035,1.698,1.799l6.782-3.914c-0.439-0.765-1.035-1.417-1.698-1.8l-38.113-22.067
				c-1.338-0.765-3.498-0.765-4.826,0l-1.968,1.136C357.966,43.212,357.01,44.674,356.774,46.046z"/>
		</g>
		<path style="fill:#FAFAFA;" d="M393.808,71.789L362.59,53.766c-0.487-0.281-0.969-0.317-1.35-0.095
			c-0.377,0.218-0.593,0.661-0.593,1.217l0.001,31.148c0,1.005,0.682,2.187,1.552,2.688l31.216,18.023
			c0.275,0.159,0.549,0.239,0.802,0.239c0.197,0,0.381-0.048,0.549-0.144c0.382-0.221,0.592-0.653,0.592-1.217V74.478
			C395.359,73.472,394.677,72.292,393.808,71.789z M394.576,105.626c0,0.269-0.073,0.465-0.201,0.539
			c-0.129,0.073-0.335,0.039-0.568-0.095l-31.216-18.023c-0.629-0.363-1.16-1.283-1.16-2.01l-0.001-31.148
			c0-0.269,0.073-0.465,0.202-0.539c0.127-0.073,0.334-0.039,0.567,0.095l31.218,18.023c0.629,0.363,1.16,1.283,1.16,2.01V105.626z
			 M386.848,81.011c-0.041-0.097-0.119-0.174-0.217-0.214c-0.099-0.039-0.208-0.037-0.305,0.007l-6.275,2.802l-7.633-14.303
			c-0.055-0.103-0.154-0.177-0.269-0.199c-0.115-0.025-0.235,0.007-0.325,0.081l-7.901,6.513c-0.091,0.074-0.143,0.186-0.143,0.302
			v9.794c0,0.14,0.074,0.269,0.196,0.339l27.664,15.972c0.06,0.035,0.128,0.053,0.196,0.053c0.067,0,0.136-0.017,0.196-0.053
			c0.121-0.07,0.196-0.199,0.196-0.339v-7.722c0-0.051-0.01-0.103-0.03-0.15L386.848,81.011z M391.444,101.089l-26.881-15.52v-9.384
			l7.389-6.091l7.57,14.185c0.003,0.006,0.006,0.012,0.009,0.018l1.778,3.331c0.101,0.191,0.339,0.262,0.53,0.161
			c0.191-0.102,0.263-0.339,0.161-0.53l-1.58-2.961l5.859-2.616l5.165,12.44V101.089z M383.457,76.885
			c0.418,0.242,0.827,0.363,1.203,0.363c0.279,0,0.54-0.066,0.772-0.201c0.546-0.315,0.847-0.952,0.847-1.792
			c0-1.607-1.09-3.495-2.482-4.299c-0.728-0.42-1.429-0.477-1.975-0.162c-0.546,0.316-0.847,0.952-0.847,1.792
			C380.975,74.194,382.065,76.082,383.457,76.885z M382.162,71.385c0.127-0.073,0.273-0.109,0.433-0.109
			c0.256,0,0.549,0.091,0.861,0.271c1.181,0.682,2.142,2.346,2.142,3.709c0,0.586-0.18,1.013-0.507,1.202
			c-0.33,0.19-0.787,0.131-1.295-0.162c-1.181-0.681-2.142-2.345-2.142-3.709C381.655,72.001,381.835,71.573,382.162,71.385z"/>
	</g>
</g>
</svg>
