<?xml version="1.0" encoding="utf-8"?>
<!-- Generator: Adobe Illustrator 27.5.0, SVG Export Plug-In . SVG Version: 6.00 Build 0)  -->
<svg version="1.1" xmlns="http://www.w3.org/2000/svg" xmlns:xlink="http://www.w3.org/1999/xlink" x="0px" y="0px"
	 viewBox="0 0 2475 1650" style="enable-background:new 0 0 2475 1650;" xml:space="preserve">
<g id="Background">
	<rect style="fill:#FFFFFF;" width="2475" height="1650"/>
</g>
<g id="Illustration">
	<g>
		<linearGradient id="SVGID_1_" gradientUnits="userSpaceOnUse" x1="921.3408" y1="-76.788" x2="1591.7386" y2="1823.3633">
			<stop  offset="0" style="stop-color:#DAE3FE"/>
			<stop  offset="1" style="stop-color:#E9EFFD"/>
		</linearGradient>
		<path style="fill:url(#SVGID_1_);" d="M2295.848,397.799c-55.876-111.183-178.564-194.793-297.98-169.141
			c-71.501,15.36-142.567,66.887-211.124,41.019c-49.416-18.645-77.307-71.52-118.844-104.696
			c-63.932-51.063-154.679-50.469-232.594-27.59c-77.914,22.878-149.235,64.952-226.209,90.961
			c-131.185,44.328-277.601,39.515-405.747-13.336c-56.254-23.202-108.911-55.222-166.179-75.649
			c-57.269-20.428-122.221-28.36-177.499-2.813c-55.278,25.546-94.945,92.364-75.761,151.329c3.826,11.757,9.826,23.342,9.041,35.71
			c-1.257,19.832-19.945,34.358-38.85,38.769c-18.904,4.411-38.605,1.531-57.986,2.034
			c-86.976,2.261-164.702,83.594-165.114,172.779c-0.342,73.956,44.155,138.945,82.197,201.786
			c38.041,62.841,72.231,138.243,49.57,208.457c-13.438,41.636-44.961,74.206-65.613,112.613
			c-53.541,99.572-24.921,231.385,49.84,315.371c74.761,83.987,186.728,125.081,297.231,134.864
			c110.503,9.784,221.326-8.583,330.817-26.736c109.492-18.153,220.4-36.21,330.85-25.808l-5.936-3.306
			c215.781,54.647,441.5,67.766,661.925,38.477c46.146-6.132,99.12-19.317,118.623-62.624c16.466-36.563,1.682-79.421,5.07-119.542
			c4.884-57.817,47.209-105.179,93.359-138.795c46.149-33.615,98.505-58.633,140.083-98.02
			c81.338-77.052,108.94-196.315,121.067-309.16C2353.446,640.433,2351.723,508.982,2295.848,397.799z"/>
		<g>
			
				<linearGradient id="SVGID_00000070831120023324597070000016631973057398520507_" gradientUnits="userSpaceOnUse" x1="2748.0159" y1="100.0163" x2="2519.9929" y2="307.037">
				<stop  offset="0" style="stop-color:#09005D"/>
				<stop  offset="1" style="stop-color:#1A0F91"/>
			</linearGradient>
			<path style="fill:url(#SVGID_00000070831120023324597070000016631973057398520507_);" d="M2187.439,1504.277h-697.581
				c-25.494,0-46.21-20.576-46.382-46.07l-7.149-1058.048c-0.17-25.079,19.627-45.751,44.69-46.666l704.729-25.72
				c26.263-0.958,48.075,20.072,48.075,46.352v1083.768C2233.822,1483.511,2213.056,1504.277,2187.439,1504.277z"/>
			
				<linearGradient id="SVGID_00000129905727667009712530000012198183716526009484_" gradientUnits="userSpaceOnUse" x1="2365.7146" y1="198.3867" x2="2071.7734" y2="606.3049">
				<stop  offset="0" style="stop-color:#4042E2"/>
				<stop  offset="1" style="stop-color:#4F52FF"/>
			</linearGradient>
			<path style="fill:url(#SVGID_00000129905727667009712530000012198183716526009484_);" d="M2139.117,1467.396h-616.153
				c-9.422,0-17.06-7.638-17.06-17.06V430.43c0-9.422,7.638-17.06,17.06-17.06h616.153c9.422,0,17.061,7.638,17.061,17.06v1019.906
				C2156.178,1459.758,2148.54,1467.396,2139.117,1467.396z"/>
			
				<linearGradient id="SVGID_00000070817007351014383450000004651485404438892698_" gradientUnits="userSpaceOnUse" x1="1881.9943" y1="-362.2821" x2="1837.9948" y2="73.7159">
				<stop  offset="0" style="stop-color:#09005D"/>
				<stop  offset="1" style="stop-color:#1A0F91"/>
			</linearGradient>
			<path style="fill:url(#SVGID_00000070817007351014383450000004651485404438892698_);" d="M1861.964,382.312H1753.53
				c-4.898,0-8.869-3.971-8.869-8.869l0,0c0-4.792,3.807-8.718,8.597-8.865l108.434-3.336c5.003-0.154,9.142,3.86,9.142,8.865v3.336
				C1870.834,378.341,1866.863,382.312,1861.964,382.312z"/>
			<path style="fill:#91B3FA;" d="M1802.78,675.42h-220.187c-4.832,0-8.75-3.918-8.75-8.75V490.059c0-4.832,3.918-8.75,8.75-8.75
				h220.187c4.833,0,8.75,3.918,8.75,8.75V666.67C1811.53,671.503,1807.612,675.42,1802.78,675.42z"/>
			<path style="fill:#7D97F4;" d="M2090.165,675.42h-220.187c-4.833,0-8.75-3.918-8.75-8.75V490.059c0-4.832,3.917-8.75,8.75-8.75
				h220.187c4.833,0,8.75,3.918,8.75,8.75V666.67C2098.915,671.503,2094.997,675.42,2090.165,675.42z"/>
			<path style="fill:#7D97F4;" d="M1802.78,904.472h-220.187c-4.832,0-8.75-3.917-8.75-8.75V719.11c0-4.833,3.918-8.75,8.75-8.75
				h220.187c4.833,0,8.75,3.917,8.75,8.75v176.612C1811.53,900.555,1807.612,904.472,1802.78,904.472z"/>
			<path style="fill:#91B3FA;" d="M2090.165,904.472h-220.187c-4.833,0-8.75-3.917-8.75-8.75V719.11c0-4.833,3.917-8.75,8.75-8.75
				h220.187c4.833,0,8.75,3.917,8.75,8.75v176.612C2098.915,900.555,2094.997,904.472,2090.165,904.472z"/>
			<path style="fill:#7D97F4;" d="M2081.445,1005.41h-498.867c-9.112,0-16.5-7.387-16.5-16.5l0,0c0-9.112,7.387-16.5,16.5-16.5
				h498.867c9.113,0,16.5,7.387,16.5,16.5l0,0C2097.944,998.023,2090.557,1005.41,2081.445,1005.41z"/>
			<path style="fill:#7D97F4;" d="M2081.445,1051.997h-498.867c-9.112,0-16.5-7.387-16.5-16.5l0,0c0-9.112,7.387-16.5,16.5-16.5
				h498.867c9.113,0,16.5,7.387,16.5,16.5l0,0C2097.944,1044.61,2090.557,1051.997,2081.445,1051.997z"/>
			<path style="fill:#7D97F4;" d="M2081.445,1098.584h-498.867c-9.112,0-16.5-7.387-16.5-16.5l0,0c0-9.112,7.387-16.5,16.5-16.5
				h498.867c9.113,0,16.5,7.387,16.5,16.5l0,0C2097.944,1091.197,2090.557,1098.584,2081.445,1098.584z"/>
			<rect x="1741.749" y="1149.053" style="fill:#7D97F4;" width="356.195" height="20.561"/>
			<rect x="1741.749" y="1178.08" style="fill:#7D97F4;" width="356.195" height="20.561"/>
			<rect x="1741.749" y="1207.107" style="fill:#7D97F4;" width="356.195" height="20.561"/>
			<path style="fill:#7D97F4;" d="M2198.882,778.299c-1.072,0-1.941-0.869-1.941-1.941V394.143c0-9.193-3.679-17.733-10.362-24.048
				c-6.681-6.313-15.408-9.508-24.594-8.985l-168.752,9.552c-1.08,0.058-1.987-0.758-2.048-1.828
				c-0.061-1.071,0.758-1.988,1.828-2.048l168.752-9.552c10.272-0.585,20.015,2.986,27.48,10.04
				c7.466,7.056,11.578,16.597,11.578,26.87v382.215C2200.823,777.43,2199.954,778.299,2198.882,778.299z"/>
		</g>
		<path style="fill:#BDD0FB;" d="M1426.318,739.477c0,0-102.879-265.933-87.35-395.988
			c15.529-130.055,104.82-225.17,166.936-133.937C1568.019,300.785,1404.966,591.952,1426.318,739.477z"/>
		<path style="fill:#91B3FA;" d="M1195.325,296.902c-34.878,15.427-95.115,108.703,23.293,203.817s161.113,141.702,186.347,219.346
			s23.293-97.056,0-166.936C1381.672,483.25,1296.263,252.257,1195.325,296.902z"/>
		<g>
			
				<linearGradient id="SVGID_00000034049936159128939750000001473550311170389918_" gradientUnits="userSpaceOnUse" x1="881.2206" y1="-127.2146" x2="770.2098" y2="286.8262">
				<stop  offset="0" style="stop-color:#E1473D"/>
				<stop  offset="1" style="stop-color:#E9605A"/>
			</linearGradient>
			<path style="fill:url(#SVGID_00000034049936159128939750000001473550311170389918_);" d="M1133.209,586.129l-844.067,13.072
				c-20.103,0.311-36.178-16.899-34.183-36.905c3.532-35.413,21.431-83.878,92.098-88.752
				C459.642,465.78,1133.209,586.129,1133.209,586.129z"/>
			
				<linearGradient id="SVGID_00000182490094366773699970000013186722147092935359_" gradientUnits="userSpaceOnUse" x1="1106.8942" y1="801.7321" x2="1550.9366" y2="-230.3692">
				<stop  offset="0" style="stop-color:#FE7062"/>
				<stop  offset="1" style="stop-color:#FF928E"/>
			</linearGradient>
			<path style="fill:url(#SVGID_00000182490094366773699970000013186722147092935359_);" d="M1224.442,470.595l-877.385,3.882
				c0,0,120.349-17.47,192.17,194.112c71.821,211.582,137.819,786.152,487.22,826.916c349.401,40.763,434.81-73.763,434.81-73.763
				h279.521c0,0-166.936-85.409-234.875-401.811C1437.965,703.529,1387.495,486.124,1224.442,470.595z"/>
			<path style="fill:#BDD0FB;" d="M521.81,511.847c-5.571-6.659-0.711-16.786,7.971-16.69l679.132,7.504
				c0,0,106.761,0,207.699,372.694c100.938,372.694,130.055,485.279,271.756,566.806l-507.173,52.287
				c0,0-232.392,38.946-385.741-223.105C647.874,1019.148,649.515,664.476,521.81,511.847z"/>
			
				<linearGradient id="SVGID_00000142136839215400409570000007322873427805718921_" gradientUnits="userSpaceOnUse" x1="629.2216" y1="552.1594" x2="1227.6212" y2="552.1594">
				<stop  offset="0" style="stop-color:#DAE3FE"/>
				<stop  offset="1" style="stop-color:#E9EFFD"/>
			</linearGradient>
			<path style="fill:url(#SVGID_00000142136839215400409570000007322873427805718921_);" d="M1215.019,564.777h-573.16
				c-4.63,0-8.885-2.542-11.081-6.618l-0.035-0.065c-4.515-8.384,1.558-18.551,11.08-18.551h573.16c4.63,0,8.885,2.542,11.081,6.618
				l0.035,0.065C1230.614,554.61,1224.542,564.777,1215.019,564.777z"/>
			
				<linearGradient id="SVGID_00000150065033795840848570000008781922572819614873_" gradientUnits="userSpaceOnUse" x1="650.5739" y1="614.275" x2="1248.9735" y2="614.275">
				<stop  offset="0" style="stop-color:#DAE3FE"/>
				<stop  offset="1" style="stop-color:#E9EFFD"/>
			</linearGradient>
			<path style="fill:url(#SVGID_00000150065033795840848570000008781922572819614873_);" d="M1236.371,626.892h-573.16
				c-4.63,0-8.885-2.542-11.081-6.618l-0.035-0.065c-4.515-8.384,1.558-18.551,11.08-18.551h573.16c4.63,0,8.885,2.542,11.081,6.618
				l0.035,0.065C1251.966,616.726,1245.894,626.892,1236.371,626.892z"/>
			
				<linearGradient id="SVGID_00000032624945817054544350000002660753380579097017_" gradientUnits="userSpaceOnUse" x1="671.9805" y1="677.3613" x2="1074.2186" y2="677.3613">
				<stop  offset="0" style="stop-color:#DAE3FE"/>
				<stop  offset="1" style="stop-color:#E9EFFD"/>
			</linearGradient>
			<path style="fill:url(#SVGID_00000032624945817054544350000002660753380579097017_);" d="M1061.556,690.848l-377.034-1.804
				c-4.608-0.022-8.835-2.561-11.02-6.618l0,0c-4.527-8.408,1.592-18.596,11.141-18.551l377.034,1.804
				c4.608,0.022,8.835,2.561,11.02,6.618l0,0C1077.224,680.705,1071.105,690.893,1061.556,690.848z"/>
			
				<linearGradient id="SVGID_00000096051907015984081540000002571310412465541525_" gradientUnits="userSpaceOnUse" x1="1145.3311" y1="1676.861" x2="1513.3309" y2="1488.8611">
				<stop  offset="0" style="stop-color:#FE7062"/>
				<stop  offset="1" style="stop-color:#FF928E"/>
			</linearGradient>
			<path style="fill:url(#SVGID_00000096051907015984081540000002571310412465541525_);" d="M1344.61,1298.036l812.879-14.548
				c16.629-0.298,30.177,13.184,30.045,29.816c-0.427,53.93-22.615,163.471-190.527,190.974h-852.808
				c0,0,151.732-19.331,171.466-180.063C1317.472,1309.489,1329.777,1298.301,1344.61,1298.036z"/>
			<path style="fill:#BDD0FB;" d="M2129.179,1355.037c4.349-10.114-3.179-21.332-14.185-21.081l-729.881,16.672
				c-7.348,0.168-13.399,5.624-14.574,12.879c-9.193,56.777-54.191,110.526-84.041,140.769h675.479
				C2070.689,1462.488,2113.808,1390.786,2129.179,1355.037z"/>
			<path style="opacity:0.32;fill:#FFFFFF;" d="M772.565,1327.512l672.013-567.735c-40.529-143.558-88.687-242.683-170.321-276.894
				L617.896,961.109C653.481,1088.124,700.55,1224.172,772.565,1327.512z"/>
			<path style="opacity:0.32;fill:#FFFFFF;" d="M1464.244,834.821l-645.87,549.904c22.299,24.011,46.631,45.005,73.24,62.19
				l602.015-483.79C1483.766,917.909,1474.113,875.039,1464.244,834.821z"/>
		</g>
		<g>
			<path style="fill:#7D97F4;" d="M637.483,1484.886c4.562,5.698,0.32,14.072-6.974,13.793
				c-44.845-1.721-152.269-19.646-155.339-151.632c-3.882-166.936-32.999-263.992-149.466-372.694s-114.526-236.816-15.529-283.403
				c132.765-62.478,287.285,116.467,285.344,306.696C593.671,1178.859,560.115,1388.257,637.483,1484.886z"/>
			<path style="fill:#BDD0FB;" d="M628.521,1487.778c-0.889,0-1.768-0.407-2.339-1.175c-40.576-54.621-46.232-93.215-64.976-221.091
				c-4.866-33.205-10.382-70.84-17.645-116.646c-18.224-114.932-58.479-192.035-89.04-236.478
				c-33.106-48.144-62.284-69.398-62.574-69.607c-1.305-0.937-1.604-2.757-0.666-4.062c0.937-1.306,2.756-1.606,4.061-0.668
				c1.214,0.87,30.124,21.889,63.786,70.76c30.974,44.968,71.763,122.96,90.185,239.144c7.269,45.84,12.787,83.493,17.657,116.714
				c18.579,126.761,24.186,165.019,63.888,218.463c0.959,1.291,0.69,3.115-0.601,4.074
				C629.734,1487.591,629.125,1487.778,628.521,1487.778z"/>
		</g>
		<g>
			<path style="fill:#91B3FA;" d="M663.953,1498.686h-10.712c-2.847,0-5.543-1.242-7.41-3.391
				c-15.613-17.97-86.022-107.878-99.81-281.953c-15.529-196.053,139.76-376.577,238.757-347.46
				c98.997,29.117,151.407,106.761,0,298.932c-126.169,160.137-117.546,285.229-111.165,322.482
				C674.634,1493.255,669.999,1498.686,663.953,1498.686z"/>
			<path style="fill:#BDD0FB;" d="M654.723,1491.893c-1.249,0-2.404-0.809-2.785-2.066
				c-28.869-95.045-42.738-181.658-41.222-257.435c1.215-60.772,12.271-114.769,32.861-160.491
				c35.196-78.16,85.343-104.64,87.46-105.729c1.426-0.734,3.182-0.173,3.918,1.256c0.737,1.428,0.175,3.184-1.252,3.922
				c-0.503,0.26-50.717,26.882-85.023,103.403c-20.178,45.007-30.995,98.22-32.15,158.159
				c-1.446,75.066,12.341,160.934,40.98,255.222c0.467,1.539-0.401,3.165-1.939,3.632
				C655.288,1491.852,655.003,1491.893,654.723,1491.893z"/>
		</g>
		<g>
			<path style="fill:#91B3FA;" d="M710.133,1490.085c-0.273,8.356-11.019,11.729-16.091,5.083
				c-15.204-19.927-30.109-62.252,0.475-145.44c48.528-131.996,254.286-194.112,300.873-116.467
				C1039.751,1307.196,714.492,1356.49,710.133,1490.085z"/>
			<path style="fill:#BDD0FB;" d="M698.395,1490.458c-1.469,0-2.732-1.109-2.892-2.603c-11.19-104.78,41.93-161.342,88.463-190.34
				c50.197-31.282,103.781-37.966,104.317-38.029c1.603-0.197,3.044,0.95,3.236,2.545c0.19,1.597-0.949,3.046-2.545,3.237
				c-0.524,0.063-52.986,6.634-102.088,37.29c-28.692,17.913-50.655,40.443-65.277,66.963
				c-18.281,33.157-25.117,72.762-20.315,117.717c0.171,1.599-0.988,3.033-2.587,3.205
				C698.603,1490.452,698.499,1490.458,698.395,1490.458z"/>
		</g>
		<g>
			<g>
				<g>
					<g>
						
							<linearGradient id="SVGID_00000121275935659871808320000006666470747954269108_" gradientUnits="userSpaceOnUse" x1="11475.085" y1="-717.1569" x2="11462.585" y2="-798.1566" gradientTransform="matrix(-1 0 0 1 13415.8018 0)">
							<stop  offset="0" style="stop-color:#09005D"/>
							<stop  offset="1" style="stop-color:#1A0F91"/>
						</linearGradient>
						<path style="fill:url(#SVGID_00000121275935659871808320000006666470747954269108_);" d="M1603.43,1289.29
							c9.905,0.856,27.095,2.247,40.647,2.843c8.146,0.359,12.836-0.439,15.537-1.52c-0.005,0.304-0.013,0.592-0.025,0.859
							c-0.064,1.426-1.223,2.567-2.663,2.647c-25.606,1.429-45.972,0.495-53.222,0.054c-1.499-0.092-2.392-1.72-1.626-2.999
							C1602.461,1290.535,1602.926,1289.909,1603.43,1289.29z"/>
						
							<linearGradient id="SVGID_00000122697387922897541380000010429775333421337529_" gradientUnits="userSpaceOnUse" x1="11535.9072" y1="-628.0437" x2="11544.9072" y2="-558.5437" gradientTransform="matrix(-1 0 0 1 13415.8018 0)">
							<stop  offset="0" style="stop-color:#09005D"/>
							<stop  offset="1" style="stop-color:#1A0F91"/>
						</linearGradient>
						<path style="fill:url(#SVGID_00000122697387922897541380000010429775333421337529_);" d="M1644.076,1292.133
							c-13.552-0.597-30.742-1.987-40.647-2.843c9.738-11.947,40.647-20,40.647-20h8.73c6.004,8.655,6.873,16.895,6.808,21.323
							C1656.913,1291.694,1652.223,1292.492,1644.076,1292.133z"/>
						
							<linearGradient id="SVGID_00000173159587096640395000000012999357387053949315_" gradientUnits="userSpaceOnUse" x1="11761.5254" y1="1264.9351" x2="11777.8115" y2="1264.9351" gradientTransform="matrix(-1 0 0 1 13415.8018 0)">
							<stop  offset="0" style="stop-color:#FF928E"/>
							<stop  offset="1" style="stop-color:#FEB3B1"/>
						</linearGradient>
						<path style="fill:url(#SVGID_00000173159587096640395000000012999357387053949315_);" d="M1654.276,1255.039l-0.817,16.166
							c-0.088,1.75-1.399,3.221-3.152,3.472c-1.745,0.25-4.081,0.281-6.558-0.543c-1.524-0.507-2.655-1.791-2.937-3.358
							l-2.823-15.737H1654.276z"/>
					</g>
					<g>
						<g>
							
								<linearGradient id="SVGID_00000083773807082167188040000006201164914475792256_" gradientUnits="userSpaceOnUse" x1="11345.3789" y1="-697.138" x2="11332.8789" y2="-778.1376" gradientTransform="matrix(-1 0 0 1 13415.8018 0)">
								<stop  offset="0" style="stop-color:#09005D"/>
								<stop  offset="1" style="stop-color:#1A0F91"/>
							</linearGradient>
							<path style="fill:url(#SVGID_00000083773807082167188040000006201164914475792256_);" d="M1767.661,1292.012
								c4.295-0.599,6.239-2.83,7.053-5.216c0.006,0.021,0.011,0.043,0.016,0.064c0.632,2.516-0.833,5.124-3.762,6.365
								c-3.54,1.499-7.411,1.754-10.416,1.63c-3.224-0.133-6.183-1.467-7.809-3.602l-0.024-0.032
								C1755.955,1292.822,1760.497,1293.011,1767.661,1292.012z"/>
							
								<linearGradient id="SVGID_00000140695377270706205710000015449755320555157643_" gradientUnits="userSpaceOnUse" x1="11413.0234" y1="-612.1284" x2="11422.0234" y2="-542.6284" gradientTransform="matrix(-1 0 0 1 13415.8018 0)">
								<stop  offset="0" style="stop-color:#09005D"/>
								<stop  offset="1" style="stop-color:#1A0F91"/>
							</linearGradient>
							<path style="fill:url(#SVGID_00000140695377270706205710000015449755320555157643_);" d="M1747.409,1254.935h7.199
								c10.966-0.224,17.852,22.905,20.106,31.861c-0.815,2.385-2.758,4.616-7.053,5.216c-7.163,0.999-11.705,0.81-14.941-0.791
								c-5.924-7.796-8.862-19.214-10.273-25.877C1740.84,1257.766,1747.409,1254.935,1747.409,1254.935z"/>
						</g>
						
							<linearGradient id="SVGID_00000000943065676492420510000015764046610796565136_" gradientUnits="userSpaceOnUse" x1="11657.9912" y1="1251.3588" x2="11677.4541" y2="1251.3588" gradientTransform="matrix(-1 0 0 1 13415.8018 0)">
							<stop  offset="0" style="stop-color:#FF928E"/>
							<stop  offset="1" style="stop-color:#FEB3B1"/>
						</linearGradient>
						<path style="fill:url(#SVGID_00000000943065676492420510000015764046610796565136_);" d="M1753.683,1239.931l3.997,15.9
							c0.49,1.949-0.443,3.966-2.245,4.891c-2.237,1.148-5.385,2.354-8.279,2.005c-1.361-0.164-2.491-1.123-2.941-2.404
							l-5.869-16.728L1753.683,1239.931z"/>
					</g>
					
						<linearGradient id="SVGID_00000047041333264720932050000014145473931508383923_" gradientUnits="userSpaceOnUse" x1="1873.3785" y1="875.6502" x2="1768.3837" y2="1021.1429">
						<stop  offset="0" style="stop-color:#09005D"/>
						<stop  offset="1" style="stop-color:#1A0F91"/>
					</linearGradient>
					<path style="fill:url(#SVGID_00000047041333264720932050000014145473931508383923_);" d="M1758.451,1244.526
						c-4.974,4.412-21.151,4.994-21.151,4.994c-58.272-139.861-82.11-159.73-82.11-159.73c8.414,52.79,1.357,169.66,1.357,169.66
						c-9.616,4.243-22.014,0-22.014,0c-0.781-86.424-14.065-161.794-29.757-221.214c39.385-0.885,60.33-14.363,67.169-19.772
						C1704.775,1071.394,1758.451,1244.526,1758.451,1244.526z"/>
					
						<linearGradient id="SVGID_00000148656413733644055540000012732314002688158366_" gradientUnits="userSpaceOnUse" x1="501.4157" y1="-9785.0996" x2="285.356" y2="-9990.4902" gradientTransform="matrix(-1 0 0 1 13415.8018 0)">
						<stop  offset="0" style="stop-color:#FE7062"/>
						<stop  offset="1" style="stop-color:#FF928E"/>
					</linearGradient>
					<path style="fill:url(#SVGID_00000148656413733644055540000012732314002688158366_);" d="M1661.942,857.624
						c7.455,37.185,4.783,103.738,3.028,134.096c-0.493,8.532,5.463,20.361,10.278,28.43c0.755,1.266,0.289,2.886-1.022,3.56
						c-8.061,4.142-35.367,16.982-67.014,18.579c-2.11,0.106-3.995-1.331-4.541-3.372c-23.475-87.654-50.742-143.666-50.742-143.666
						C1582.032,847.179,1661.942,857.624,1661.942,857.624z"/>
					
						<linearGradient id="SVGID_00000162318484280237443470000009934465963891798146_" gradientUnits="userSpaceOnUse" x1="1645.9668" y1="1070.7775" x2="1306.9839" y2="1309.2654">
						<stop  offset="0" style="stop-color:#09005D"/>
						<stop  offset="1" style="stop-color:#1A0F91"/>
					</linearGradient>
					<path style="fill:url(#SVGID_00000162318484280237443470000009934465963891798146_);" d="M1651.214,1086.48
						c0.331,0,0.666-0.089,0.97-0.273c0.879-0.537,1.158-1.684,0.623-2.562c-0.314-0.516-7.851-12.699-23.105-20.059
						c-0.927-0.445-2.043-0.06-2.492,0.87c-0.447,0.927-0.058,2.045,0.87,2.491c14.22,6.862,21.468,18.522,21.539,18.639
						C1649.971,1086.161,1650.585,1086.48,1651.214,1086.48z"/>
					<g>
						
							<linearGradient id="SVGID_00000044875215925684579660000014658340401666627249_" gradientUnits="userSpaceOnUse" x1="11747.1602" y1="967.6606" x2="11677.876" y2="1029.0135" gradientTransform="matrix(-1 0 0 1 13415.8018 0)">
							<stop  offset="0" style="stop-color:#FF928E"/>
							<stop  offset="1" style="stop-color:#FEB3B1"/>
						</linearGradient>
						<path style="fill:url(#SVGID_00000044875215925684579660000014658340401666627249_);" d="M1708.703,964.344
							c-2.395,17.323-9.469,36.217-23.622,56.287l-5.38-4.386c0,0,6.211-25.198,2.68-53.795
							C1691.11,960.747,1701.421,962.502,1708.703,964.344z"/>
						
							<linearGradient id="SVGID_00000072965342426233816060000013836254455656309672_" gradientUnits="userSpaceOnUse" x1="490.647" y1="-9773.8018" x2="274.5872" y2="-9979.1924" gradientTransform="matrix(-1 0 0 1 13415.8018 0)">
							<stop  offset="0" style="stop-color:#FE7062"/>
							<stop  offset="1" style="stop-color:#FF928E"/>
						</linearGradient>
						<path style="fill:url(#SVGID_00000072965342426233816060000013836254455656309672_);" d="M1653.616,903.505l8.327-45.881
							c0,0,55.633,42.525,46.76,106.72c-7.281-1.842-17.592-3.597-26.322-1.894C1679.837,941.85,1672.24,919.486,1653.616,903.505z"
							/>
					</g>
					<g>
						
							<linearGradient id="SVGID_00000028285019716275136630000012785320114364102808_" gradientUnits="userSpaceOnUse" x1="540.3815" y1="-9826.0547" x2="324.3225" y2="-10031.4443" gradientTransform="matrix(-1 0 0 1 13415.8018 0)">
							<stop  offset="0" style="stop-color:#FE7062"/>
							<stop  offset="1" style="stop-color:#FF928E"/>
						</linearGradient>
						<path style="fill:url(#SVGID_00000028285019716275136630000012785320114364102808_);" d="M1551.928,895.252l21.474,46.248
							c-3.472,27.922-18.471,39.994-34.644,44.625c-1.008-12.725-4.226-23.006-7.212-30.118
							C1552.211,934.672,1551.928,895.252,1551.928,895.252z"/>
						
							<linearGradient id="SVGID_00000050659714224082163920000013541324414799059603_" gradientUnits="userSpaceOnUse" x1="11877.043" y1="973.4639" x2="11931.6074" y2="973.4639" gradientTransform="matrix(-1 0 0 1 13415.8018 0)">
							<stop  offset="0" style="stop-color:#FF928E"/>
							<stop  offset="1" style="stop-color:#FEB3B1"/>
						</linearGradient>
						<path style="fill:url(#SVGID_00000050659714224082163920000013541324414799059603_);" d="M1531.547,956.007
							c2.986,7.111,6.203,17.392,7.212,30.118c-43.149,16.741-54.565-15.726-54.565-15.726l7.975-1.407
							C1510.177,970.889,1522.756,965.083,1531.547,956.007z"/>
					</g>
					
						<linearGradient id="SVGID_00000137828504218501304900000004517026087560837289_" gradientUnits="userSpaceOnUse" x1="11824.0049" y1="827.6472" x2="11823.4082" y2="929.5427" gradientTransform="matrix(-1 0 0 1 13415.8018 0)">
						<stop  offset="0" style="stop-color:#FF928E"/>
						<stop  offset="1" style="stop-color:#FEB3B1"/>
					</linearGradient>
					<path style="fill:url(#SVGID_00000137828504218501304900000004517026087560837289_);" d="M1571.714,838.155l10.367,38.111
						c1.165,4.281,5.796,6.58,9.916,4.934c4.446-1.778,10.086-4.203,14.942-6.825c5.183-2.798,6.805-9.466,3.524-14.358
						l-21.554-32.138L1571.714,838.155z"/>
				</g>
				
					<linearGradient id="SVGID_00000083065409024427061810000003162318172408286138_" gradientUnits="userSpaceOnUse" x1="11672.3428" y1="1013.4348" x2="11958.0742" y2="1013.4348" gradientTransform="matrix(-1 0 0 1 13415.8018 0)">
					<stop  offset="0" style="stop-color:#09005D"/>
					<stop  offset="1" style="stop-color:#1A0F91"/>
				</linearGradient>
				<path style="fill:url(#SVGID_00000083065409024427061810000003162318172408286138_);" d="M1464.418,944.896l265.651,96.686
					c11.142,4.055,16.467,16.741,11.559,27.534l-0.806,1.772c-4.343,9.549-15.63,13.738-25.15,9.333l-257.944-119.326
					L1464.418,944.896z"/>
				<ellipse style="opacity:0.15;fill:#FFFFFF;" cx="1342.314" cy="886.736" rx="131.138" ry="128.772"/>
				
					<linearGradient id="SVGID_00000074426938897170222010000017903885263398227092_" gradientUnits="userSpaceOnUse" x1="11927.5664" y1="886.7362" x2="12219.4082" y2="886.7362" gradientTransform="matrix(-1 0 0 1 13415.8018 0)">
					<stop  offset="0" style="stop-color:#09005D"/>
					<stop  offset="1" style="stop-color:#1A0F91"/>
				</linearGradient>
				<path style="fill:url(#SVGID_00000074426938897170222010000017903885263398227092_);" d="M1196.393,886.736
					c0,79.137,65.331,143.289,145.921,143.289c80.59,0,145.921-64.152,145.921-143.289c0-79.136-65.331-143.288-145.921-143.288
					C1261.724,743.448,1196.393,807.6,1196.393,886.736z M1217.828,886.736c0-67.511,55.734-122.24,124.486-122.24
					c68.751,0,124.486,54.729,124.486,122.24c0,67.512-55.734,122.24-124.486,122.24
					C1273.562,1008.976,1217.828,954.248,1217.828,886.736z"/>
				<g>
					<path style="fill:#7D97F4;" d="M1477.141,904.477c-0.041,0-0.083-0.003-0.124-0.008c-0.532-0.068-0.907-0.554-0.84-1.086
						c0.427-3.344,0.728-6.749,0.895-10.124c0.026-0.535,0.448-0.948,1.018-0.921c0.535,0.026,0.948,0.482,0.921,1.018
						c-0.17,3.422-0.475,6.879-0.908,10.273C1478.04,904.12,1477.622,904.477,1477.141,904.477z M1476.138,864.41
						c-0.462,0-0.87-0.33-0.955-0.799c-1.628-9.077-4.238-18.008-7.756-26.543c-20.733-50.298-69.843-82.799-125.114-82.799
						c-25.774,0-50.829,7.16-72.457,20.705c-0.454,0.283-1.054,0.146-1.338-0.307c-0.284-0.455-0.147-1.054,0.307-1.338
						c21.938-13.739,47.35-21.001,73.489-21.001c56.06,0,105.874,32.972,126.909,84.001c3.57,8.663,6.22,17.727,7.872,26.94
						c0.095,0.528-0.257,1.032-0.784,1.127C1476.253,864.405,1476.195,864.41,1476.138,864.41z"/>
				</g>
				
					<linearGradient id="SVGID_00000141432153417928465410000017862176014979970477_" gradientUnits="userSpaceOnUse" x1="11774.5215" y1="998.5583" x2="11705.2363" y2="1059.9117" gradientTransform="matrix(-1 0 0 1 13415.8018 0)">
					<stop  offset="0" style="stop-color:#FF928E"/>
					<stop  offset="1" style="stop-color:#FEB3B1"/>
				</linearGradient>
				<path style="fill:url(#SVGID_00000141432153417928465410000017862176014979970477_);" d="M1681.919,1015.481l-25.113-2.047
					l-10.876,10.026c0,0,2.573,3.557,10.617,1.512c8.044-2.044,19.063-2.546,19.063-2.546s11.105,5.006,11.24-4.361
					L1681.919,1015.481z"/>
				
					<linearGradient id="SVGID_00000111903420349964026060000017694874222782247808_" gradientUnits="userSpaceOnUse" x1="11925.8105" y1="967.0557" x2="11945.3506" y2="967.0557" gradientTransform="matrix(-1 0 0 1 13415.8018 0)">
					<stop  offset="0" style="stop-color:#FF928E"/>
					<stop  offset="1" style="stop-color:#FEB3B1"/>
				</linearGradient>
				<path style="fill:url(#SVGID_00000111903420349964026060000017694874222782247808_);" d="M1487.392,976.339
					c-2.172,1.697-9.613-1.846-14.166-4.295c-2.219-1.194-3.294-3.788-2.532-6.19c1.096-3.456,2.921-7.916,5.171-8.478
					C1479.598,956.443,1496.342,969.347,1487.392,976.339z"/>
				<path style="fill:#7D97F4;" d="M1724.827,1076.496c-0.403,0-0.778-0.252-0.917-0.653c-0.175-0.507,0.094-1.06,0.6-1.235
					c7.5-2.593,11.428-6.789,11.675-12.471c0.249-5.758-3.393-11.113-9.065-13.325l-31.897-12.437
					c-0.5-0.194-0.746-0.757-0.552-1.257c0.196-0.501,0.759-0.749,1.257-0.552l31.897,12.437c6.446,2.514,10.584,8.63,10.299,15.217
					c-0.196,4.509-2.607,10.636-12.979,14.223C1725.04,1076.479,1724.933,1076.496,1724.827,1076.496z"/>
				<path style="fill:#7D97F4;" d="M1685.747,1032.608c-0.117,0-0.237-0.021-0.353-0.066l-4.133-1.612
					c-0.5-0.195-0.747-0.757-0.552-1.257c0.196-0.5,0.76-0.747,1.257-0.552l4.133,1.612c0.499,0.195,0.747,0.757,0.552,1.257
					C1686.502,1032.374,1686.135,1032.608,1685.747,1032.608z"/>
				<g>
					
						<linearGradient id="SVGID_00000075163657963111714750000003013917858226218635_" gradientUnits="userSpaceOnUse" x1="8169.7026" y1="4583.127" x2="8195.7021" y2="4509.7935" gradientTransform="matrix(-1 0 0 1 11082.8018 0)">
						<stop  offset="0" style="stop-color:#FF928E"/>
						<stop  offset="1" style="stop-color:#FEB3B1"/>
					</linearGradient>
					<path style="fill:url(#SVGID_00000075163657963111714750000003013917858226218635_);" d="M1569.474,800.741
						c0,0-8.581,19.712-9.157,30.058c-0.576,10.346-2.806,17.06,9.157,19.143c11.963,2.084,22.041-3.876,27.5-14.182
						c0,0,8.554-15.88,6.635-22.384C1601.69,806.873,1569.474,800.741,1569.474,800.741z"/>
					
						<linearGradient id="SVGID_00000096745501113835267400000008556895141715278262_" gradientUnits="userSpaceOnUse" x1="9480.6641" y1="788.4624" x2="9525.083" y2="845.6525" gradientTransform="matrix(-1 0 0 1 11082.8018 0)">
						<stop  offset="0" style="stop-color:#09005D"/>
						<stop  offset="1" style="stop-color:#1A0F91"/>
					</linearGradient>
					<path style="fill:url(#SVGID_00000096745501113835267400000008556895141715278262_);" d="M1592.886,828.35h-1.512
						c0,0,6.231-12.781,0.756-15.026c-5.475-2.245-27.163-6.668-31.842-14.364c-4.511-7.419-0.488-17.002,5.531-19.683
						c0.381-0.169,0.83,0.01,1.024,0.378l0.499,0.943c0.341,0.646,1.296,0.548,1.499-0.154l0,0c0.193-0.666,1.091-0.811,1.457-0.223
						c1.433,2.301,5.311,6.044,15.714,7.963c14.76,2.724,24.519,8.698,24.759,18.899c0.015,0.646,0.706,1.003,1.258,0.666
						c1.09-0.664,2.833-0.976,5.164,0.984c4.053,3.408,2.395,12.249-6.49,19.52c-0.422,0.346-0.419,1.005,0.038,1.302
						c1.611,1.049,4.011,3.544-2.21,6.87c-6.364,3.402-10.13,3.031-11.552,2.667c-0.383-0.098-0.64-0.446-0.615-0.841l0.558-9.04
						c0.029-0.468-0.342-0.863-0.811-0.863H1592.886z"/>
					
						<linearGradient id="SVGID_00000097469548715747035080000016418680872772455063_" gradientUnits="userSpaceOnUse" x1="8155.25" y1="4578.0283" x2="8181.25" y2="4504.6943" gradientTransform="matrix(-1 0 0 1 11082.8018 0)">
						<stop  offset="0" style="stop-color:#FF928E"/>
						<stop  offset="1" style="stop-color:#FEB3B1"/>
					</linearGradient>
					<path style="fill:url(#SVGID_00000097469548715747035080000016418680872772455063_);" d="M1592.514,830.241
						c0,0,3.274-12.592,8.919-9.061c5.645,3.531-2.93,14.108-7.468,14.58L1592.514,830.241z"/>
				</g>
			</g>
		</g>
		<g>
			
				<linearGradient id="SVGID_00000110430577675972419350000010327367209664799136_" gradientUnits="userSpaceOnUse" x1="1175.5095" y1="1381.5004" x2="1261.0905" y2="1161.1846" gradientTransform="matrix(1 0 0 1 -267.923 0)">
				<stop  offset="0" style="stop-color:#FF928E"/>
				<stop  offset="1" style="stop-color:#FEB3B1"/>
			</linearGradient>
			<path style="fill:url(#SVGID_00000110430577675972419350000010327367209664799136_);" d="M933.618,1288.385l-30.313,7.578
				l7.578,56.838c0,0-11.367,11.368-15.156,26.525c-3.789,15.156-7.283,78.797-7.283,78.797l-7.193,4.348l-0.875,3.63l20.926,28.137
				l-3.47-22.395c-0.551-3.555,0.403-10.765,0.103-10.916c11.368-30.314,35.684-115.705,35.684-115.705V1288.385z"/>
			
				<linearGradient id="SVGID_00000121244873072603021410000008237889564235257731_" gradientUnits="userSpaceOnUse" x1="1212.8625" y1="1212.1296" x2="1062.8629" y2="1300.1293">
				<stop  offset="0" style="stop-color:#FF928E"/>
				<stop  offset="1" style="stop-color:#FEB3B1"/>
			</linearGradient>
			<path style="fill:url(#SVGID_00000121244873072603021410000008237889564235257731_);" d="M942.475,1466.492
				c-0.328-0.006-0.65,0.021-0.98,0c1.465-18.275,8.159-98.703,14.858-128.847c7.578-34.103-11.367-102.309-11.367-102.309
				l-34.103,34.103l18.947,64.416c-12.984,19.475,2.118,133.527,1.792,133.478l0.021,0.253l-4.944,6.797l0.601,3.685l30.2,17.821
				l-11.883-19.297C943.731,1473.53,942.688,1470.058,942.475,1466.492z"/>
			
				<linearGradient id="SVGID_00000027569340642033530950000001521934990267771022_" gradientUnits="userSpaceOnUse" x1="1142.5299" y1="1153.7759" x2="1178.8054" y2="1153.7759" gradientTransform="matrix(1 0 0 1 -267.923 0)">
				<stop  offset="0" style="stop-color:#FF928E"/>
				<stop  offset="1" style="stop-color:#FEB3B1"/>
			</linearGradient>
			<path style="fill:url(#SVGID_00000027569340642033530950000001521934990267771022_);" d="M904.117,1084.089
				c0,0-66.399,92.135,0,139.375l6.765-6.031c0,0-32.965-38.864,0-86.439L904.117,1084.089z"/>
			
				<linearGradient id="SVGID_00000108302274777692073920000011084265752114479531_" gradientUnits="userSpaceOnUse" x1="-2217.9155" y1="1325.5131" x2="-2219.9155" y2="1428.8466" gradientTransform="matrix(-1 0 0 1 -1277.8763 0)">
				<stop  offset="0" style="stop-color:#09005D"/>
				<stop  offset="1" style="stop-color:#1A0F91"/>
			</linearGradient>
			<path style="fill:url(#SVGID_00000108302274777692073920000011084265752114479531_);" d="M959.489,1498.686h-9.638
				c-1.804,0-3.505-0.828-4.606-2.258c-3.004-3.904-9.229-11.521-12.206-11.719c-4.007-0.268-3.494,13.977-3.494,13.977H927.3
				l-2.845-17.701c-0.716-4.454,1.499-8.865,5.498-10.952l0,0c0,0,0.916,6.774,5.883,9.769c4.966,2.997,20.21,13.726,20.21,13.726
				s1.867-0.266,3.917,0.104C963.003,1494.182,962.578,1498.686,959.489,1498.686z"/>
			
				<linearGradient id="SVGID_00000177442159441628350060000001090176436686379436_" gradientUnits="userSpaceOnUse" x1="-3517.8762" y1="130.9237" x2="-3519.8762" y2="234.257" gradientTransform="matrix(-0.9218 -0.3878 -0.3878 0.9218 -2162.167 -351.8376)">
				<stop  offset="0" style="stop-color:#09005D"/>
				<stop  offset="1" style="stop-color:#1A0F91"/>
			</linearGradient>
			<path style="fill:url(#SVGID_00000177442159441628350060000001090176436686379436_);" d="M902.051,1497.587l-8.883-3.737
				c-1.662-0.699-2.91-2.123-3.37-3.867c-1.255-4.764-4.04-14.198-6.706-15.535c-3.589-1.801-8.641,11.528-8.641,11.528l-2.07-0.871
				l4.241-17.419c1.067-4.383,4.82-7.591,9.315-7.963l0,0c0,0-1.782,6.599,1.634,11.286c3.416,4.687,13.306,20.489,13.306,20.489
				s1.824,0.479,3.57,1.615C907.037,1494.799,904.899,1498.785,902.051,1497.587z"/>
			
				<linearGradient id="SVGID_00000157304173442858311380000012243477043617397407_" gradientUnits="userSpaceOnUse" x1="975.7903" y1="1214.2247" x2="745.7793" y2="1388.9164">
				<stop  offset="0" style="stop-color:#4042E2"/>
				<stop  offset="1" style="stop-color:#4F52FF"/>
			</linearGradient>
			<path style="fill:url(#SVGID_00000157304173442858311380000012243477043617397407_);" d="M953.67,1177.673
				c0,0-1.115,6.83,0.518,25.607c1.633,18.777,9.438,62.862,7.849,105.041c0,0-22.188,5.17-60.735,2.721
				c0,0-16.268-65.855-12.305-90.89c3.963-25.036,25.461-42.996,25.461-42.996L953.67,1177.673z"/>
			
				<linearGradient id="SVGID_00000000199210242266350270000000503297737849343396_" gradientUnits="userSpaceOnUse" x1="1182.1467" y1="1059.7518" x2="1207.9109" y2="1059.7518" gradientTransform="matrix(1 0 0 1 -267.923 0)">
				<stop  offset="0" style="stop-color:#FF928E"/>
				<stop  offset="1" style="stop-color:#FEB3B1"/>
			</linearGradient>
			<polygon style="fill:url(#SVGID_00000000199210242266350270000000503297737849343396_);" points="937.276,1052.202 
				939.988,1084.089 914.224,1084.089 920.63,1035.415 			"/>
			
				<linearGradient id="SVGID_00000116916324881682289590000000942404242670637495_" gradientUnits="userSpaceOnUse" x1="1228.5648" y1="1087.6659" x2="1092.134" y2="1262.692" gradientTransform="matrix(1 0 0 1 -267.923 0)">
				<stop  offset="0" style="stop-color:#FE7062"/>
				<stop  offset="1" style="stop-color:#FF928E"/>
			</linearGradient>
			<path style="fill:url(#SVGID_00000116916324881682289590000000942404242670637495_);" d="M906.591,1079.679
				c8.892-0.491,28.772-1.398,42.856-0.63c7.415,0.404,13.627,5.724,15.143,12.994l3.435,16.461
				c1.28,6.131,1.088,12.479-0.558,18.522l-13.797,50.647c0,0-12.272,7.375-39.212-0.517c0,0-23.659-56.419-13.975-92.51
				C901.236,1081.842,903.693,1079.839,906.591,1079.679z"/>
			
				<linearGradient id="SVGID_00000173881134491106091250000015646209027742557335_" gradientUnits="userSpaceOnUse" x1="1274.5903" y1="1088.5381" x2="1247.9236" y2="1145.8715" gradientTransform="matrix(1 0 0 1 -267.923 0)">
				<stop  offset="0" style="stop-color:#FF928E"/>
				<stop  offset="1" style="stop-color:#FEB3B1"/>
			</linearGradient>
			<path style="fill:url(#SVGID_00000173881134491106091250000015646209027742557335_);" d="M963.917,1089.089
				c3.795,9.997,7.222,20.479,10.905,30.297c1.873,4.914,3.772,9.73,5.804,14.154c1.028,2.203,2.157,4.227,3.193,6.063
				c1.038,1.817,2.205,3.328,2.814,4.024c0.119,0.103-0.28,0.182-0.414,0.189c-0.08,0.01,2.565,0.434,3.377,0.57l3.172-0.019
				c4.546-0.234,9.695-1.035,14.859-2.039c10.417-1.942,21.247-4.669,32.367-6.732l0.085-0.016c2.128-0.395,4.173,1.01,4.568,3.138
				c0.26,1.403-0.268,2.774-1.264,3.656c-4.484,3.947-9.237,7.189-14.167,10.345c-2.482,1.517-5.006,3.005-7.573,4.433
				c-2.617,1.334-5.241,2.678-7.967,3.922c-5.488,2.391-11.158,4.594-17.688,6.009c-1.716,0.287-3.411,0.588-5.176,0.825
				c-1.981,0.069-3.78,0.244-5.943,0.119c-1.149-0.114-2.303-0.254-3.455-0.422c-0.614-0.108-1.065-0.12-1.809-0.325
				c-0.789-0.237-1.577-0.502-2.353-0.793c-1.622-0.582-2.67-1.286-3.987-2.02c-1.094-0.721-2.092-1.475-3.059-2.248
				c-3.571-3.042-5.788-6.06-7.742-8.958c-1.949-2.895-3.493-5.796-4.88-8.64c-2.781-5.679-4.953-11.306-6.716-16.972
				c-3.571-11.354-5.99-22.514-7.012-34.367c-0.489-5.677,3.717-10.676,9.395-11.166c4.699-0.405,8.933,2.407,10.53,6.607
				L963.917,1089.089z"/>
			
				<linearGradient id="SVGID_00000157300412875161127160000012906965881760614041_" gradientUnits="userSpaceOnUse" x1="1327.7852" y1="1113.2799" x2="1301.1185" y2="1170.6132" gradientTransform="matrix(1 0 0 1 -267.923 0)">
				<stop  offset="0" style="stop-color:#FF928E"/>
				<stop  offset="1" style="stop-color:#FEB3B1"/>
			</linearGradient>
			<path style="fill:url(#SVGID_00000157300412875161127160000012906965881760614041_);" d="M1036.492,1140.691l4.598-10.913
				l24.198-6.03c0,0,1.936,4.194-8.227,6.03c0,0,3.63,4.012,1.694,8.731S1036.25,1147.954,1036.492,1140.691z"/>
			
				<linearGradient id="SVGID_00000168811217085291737050000001492847193300957596_" gradientUnits="userSpaceOnUse" x1="1225.0583" y1="1059.7415" x2="1174.9921" y2="986.5314" gradientTransform="matrix(1 0 0 1 -267.923 0)">
				<stop  offset="0" style="stop-color:#FF928E"/>
				<stop  offset="1" style="stop-color:#FEB3B1"/>
			</linearGradient>
			<path style="fill:url(#SVGID_00000168811217085291737050000001492847193300957596_);" d="M948.185,1015.376
				c0.92,0.542,8.168,26.108,2.094,36.826c-6.074,10.718-24.622-1.287-29.649-16.786
				C915.603,1019.916,923.679,1000.924,948.185,1015.376z"/>
			
				<linearGradient id="SVGID_00000169547673359567336420000014839689887556061315_" gradientUnits="userSpaceOnUse" x1="-589.605" y1="1058.2072" x2="-592.9025" y2="1218.1383" gradientTransform="matrix(-1 0 0 1 284.842 0)">
				<stop  offset="0" style="stop-color:#09005D"/>
				<stop  offset="1" style="stop-color:#1A0F91"/>
			</linearGradient>
			<path style="fill:url(#SVGID_00000169547673359567336420000014839689887556061315_);" d="M900.111,1035.415
				c-4.16,20.384-17.945,14.805-27.709,23.874c-15.824,14.698-38.461-0.454-60.469,13.475
				c-15.887,10.055-23.542,35.781-15.918,56.551c10.56,28.768,46.647,40.598,65.348,31.836
				c17.873-8.374,15.328-33.454,39.375-43.146c10.21-4.115,15.25-1.441,21.364-7.54c10.703-10.677,7.815-31.395,6.703-39.377
				c-2.415-17.319-8.221-20.454-5.446-28.065c5.398-14.805,30.575-11.75,32.674-22.202c1.91-9.518-16.339-27.558-33.512-24.715
				C895.951,1000.505,901.964,1026.334,900.111,1035.415z"/>
			<path style="fill:#91B3FA;" d="M803.951,1124.443c-0.315,0-0.599-0.214-0.676-0.533c-3.402-14.123-1.859-25.705,4.589-34.426
				c10.701-14.473,31.497-15.906,31.706-15.918c0.328-0.054,0.712,0.268,0.737,0.653c0.023,0.383-0.268,0.713-0.652,0.736
				c-0.203,0.012-20.37,1.412-30.678,15.365c-6.187,8.373-7.65,19.566-4.349,33.265c0.09,0.373-0.14,0.75-0.514,0.84
				C804.06,1124.436,804.004,1124.443,803.951,1124.443z"/>
			<path style="fill:#91B3FA;" d="M872.064,1137.372c-0.029,0-0.058-0.004-0.088-0.011c-0.185-0.049-0.296-0.239-0.249-0.425
				c3.314-12.714,9.129-21.544,17.281-26.246c5.93-3.421,11.484-3.739,16.383-4.02c4.724-0.272,8.804-0.507,12.088-3.427
				c6.788-6.036,6.395-20.549-1.169-43.136c-0.061-0.182,0.038-0.38,0.22-0.441c0.183-0.061,0.379,0.038,0.44,0.22
				c7.66,22.875,7.986,37.637,0.97,43.875c-3.464,3.081-7.656,3.324-12.51,3.602c-4.822,0.277-10.287,0.591-16.076,3.929
				c-7.984,4.605-13.689,13.292-16.954,25.819C872.36,1137.269,872.219,1137.372,872.064,1137.372z"/>
			<path style="fill:#91B3FA;" d="M909.954,1030.356c-0.037,0-0.073-0.005-0.111-0.017c-0.182-0.061-0.28-0.26-0.218-0.441
				c2.634-7.837,10.224-6.672,18.265-5.436c5.089,0.782,10.351,1.589,14.815,0.267c3.33-0.987,5.308-2.517,5.88-4.548
				c0.977-3.458-2.444-7.314-2.478-7.353c-0.129-0.143-0.117-0.363,0.026-0.491c0.141-0.129,0.363-0.117,0.49,0.026
				c0.152,0.169,3.711,4.175,2.633,8.005c-0.641,2.276-2.778,3.968-6.353,5.027c-4.615,1.367-9.953,0.548-15.118-0.246
				c-8.072-1.239-15.051-2.314-17.499,4.971C910.235,1030.266,910.099,1030.356,909.954,1030.356z"/>
		</g>
		<g>
			<g>
				<path style="fill:#91B3FA;" d="M576.739,299.341c-0.036,5.442-4.477,9.825-9.919,9.789c-5.442-0.036-9.825-4.477-9.789-9.919
					c0.036-5.442,4.477-9.825,9.919-9.789C572.393,289.458,576.775,293.899,576.739,299.341z"/>
				<g>
					<path style="fill:#91B3FA;" d="M576.412,299.339c-0.035,5.261-4.328,9.498-9.589,9.464c-5.261-0.035-9.498-4.328-9.464-9.589
						c0.035-5.261,4.328-9.499,9.589-9.464C572.21,289.785,576.446,294.078,576.412,299.339z"/>
				</g>
			</g>
			<g>
				<path style="fill:#91B3FA;" d="M576.739,359.078c-0.036,5.442-4.477,9.825-9.919,9.789c-5.442-0.036-9.825-4.477-9.789-9.919
					c0.036-5.442,4.477-9.825,9.919-9.789C572.393,349.195,576.775,353.636,576.739,359.078z"/>
				<g>
					<path style="fill:#91B3FA;" d="M576.412,359.076c-0.035,5.261-4.328,9.498-9.589,9.464c-5.261-0.035-9.498-4.328-9.464-9.589
						c0.035-5.261,4.328-9.499,9.589-9.464C572.21,349.522,576.446,353.815,576.412,359.076z"/>
				</g>
			</g>
			<g>
				<path style="fill:#91B3FA;" d="M576.739,418.815c-0.036,5.442-4.477,9.825-9.919,9.789c-5.442-0.036-9.825-4.477-9.789-9.919
					c0.036-5.442,4.477-9.825,9.919-9.789C572.393,408.932,576.775,413.373,576.739,418.815z"/>
				<g>
					<path style="fill:#91B3FA;" d="M576.412,418.813c-0.035,5.261-4.328,9.498-9.589,9.463c-5.261-0.035-9.498-4.328-9.464-9.589
						c0.035-5.261,4.328-9.498,9.589-9.463C572.21,409.259,576.446,413.552,576.412,418.813z"/>
				</g>
			</g>
			<g>
				<path style="fill:#91B3FA;" d="M591.899,298.829l0.045,1.678c0.123,4.543,2.961,8.148,6.429,8.166l263.927,0.4
					c3.581,0.018,6.489-3.786,6.483-8.48l0,0c-0.006-4.603-2.817-8.357-6.328-8.45l-263.972-2.078
					C594.776,289.966,591.767,293.971,591.899,298.829z"/>
			</g>
			<g>
				<path style="fill:#91B3FA;" d="M591.899,358.274l0.045,1.678c0.123,4.543,2.961,8.148,6.429,8.166l263.927,0.4
					c3.581,0.018,6.489-3.786,6.483-8.48l0,0c-0.006-4.603-2.817-8.357-6.328-8.45l-263.972-2.078
					C594.776,349.412,591.767,353.417,591.899,358.274z"/>
			</g>
			<g>
				<path style="fill:#91B3FA;" d="M591.899,417.72l0.045,1.678c0.123,4.543,2.961,8.148,6.429,8.166l263.927,0.4
					c3.581,0.018,6.489-3.786,6.483-8.48l0,0c-0.006-4.603-2.817-8.357-6.328-8.45l-263.972-2.078
					C594.776,408.857,591.767,412.862,591.899,417.72z"/>
			</g>
		</g>
		<g>
			<path style="fill:#FFFFFF;" d="M2035.094,791.891l-1.432-5.638l-0.003-0.012c-0.137-0.541,0.19-1.091,0.731-1.229
				c0.541-0.137,1.092,0.19,1.229,0.731c0.001,0.003,0.003,0.011,0.003,0.014l1.359,5.681c0.125,0.521-0.197,1.045-0.718,1.169
				c-0.516,0.124-1.036-0.191-1.166-0.704L2035.094,791.891z"/>
			<path style="fill:#FFFFFF;" d="M2030.047,773.179l-1.665-5.567l-0.004-0.014c-0.182-0.607,0.163-1.246,0.77-1.427
				c0.607-0.181,1.246,0.163,1.427,0.77c0.001,0.003,0.003,0.012,0.004,0.015l1.595,5.617c0.167,0.588-0.174,1.199-0.762,1.366
				c-0.582,0.165-1.188-0.168-1.361-0.746L2030.047,773.179z"/>
			<path style="fill:#FFFFFF;" d="M2024.231,754.711l-1.892-5.49l-0.005-0.015c-0.231-0.669,0.125-1.399,0.794-1.63
				c0.67-0.231,1.399,0.125,1.63,0.795c0.001,0.003,0.005,0.013,0.006,0.017l1.825,5.545c0.214,0.651-0.14,1.353-0.791,1.567
				c-0.645,0.212-1.34-0.134-1.561-0.774L2024.231,754.711z"/>
			<path style="fill:#FFFFFF;" d="M2017.666,736.508l-2.104-5.409l-0.006-0.016c-0.282-0.725,0.077-1.541,0.802-1.823
				c0.725-0.282,1.541,0.077,1.823,0.802l0.005,0.014l2.058,5.463c0.268,0.712-0.092,1.506-0.803,1.774
				c-0.707,0.266-1.495-0.087-1.768-0.789L2017.666,736.508z"/>
			<path style="fill:#FFFFFF;" d="M2010.402,718.58l-2.318-5.319l-0.007-0.017c-0.333-0.764,0.016-1.654,0.781-1.987
				c0.764-0.333,1.654,0.016,1.987,0.781l0.006,0.014l2.277,5.376c0.318,0.752-0.033,1.62-0.785,1.939
				c-0.747,0.316-1.609-0.028-1.932-0.77L2010.402,718.58z"/>
			<path style="fill:#FFFFFF;" d="M2002.428,700.96l-2.528-5.222l-0.008-0.017c-0.388-0.801-0.053-1.764,0.748-2.151
				c0.801-0.388,1.764-0.053,2.151,0.748l0.007,0.015l2.489,5.283c0.372,0.789,0.034,1.731-0.756,2.103
				c-0.784,0.37-1.718,0.038-2.095-0.74L2002.428,700.96z"/>
			<path style="fill:#FFFFFF;" d="M1993.763,683.672l-2.731-5.119l-0.01-0.018c-0.445-0.834-0.13-1.871,0.704-2.316
				c0.834-0.445,1.871-0.13,2.316,0.704l0.008,0.016l2.696,5.182c0.428,0.824,0.108,1.839-0.715,2.267
				c-0.818,0.426-1.825,0.112-2.259-0.699L1993.763,683.672z"/>
			<path style="fill:#FFFFFF;" d="M1984.427,666.736l-2.929-5.008l-0.011-0.018c-0.505-0.864-0.214-1.974,0.65-2.48
				c0.864-0.505,1.974-0.214,2.48,0.65l0.01,0.016l2.898,5.075c0.488,0.855,0.191,1.943-0.664,2.431
				c-0.849,0.485-1.929,0.195-2.422-0.647L1984.427,666.736z"/>
			<path style="fill:#FFFFFF;" d="M1974.438,650.177l-3.121-4.891l-0.012-0.019c-0.569-0.891-0.307-2.074,0.584-2.643
				c0.891-0.568,2.074-0.307,2.642,0.584l0.011,0.017l3.093,4.961c0.55,0.882,0.281,2.044-0.602,2.594
				c-0.877,0.547-2.029,0.284-2.583-0.584L1974.438,650.177z"/>
			<path style="fill:#FFFFFF;" d="M1963.816,634.015l-3.307-4.768l-0.013-0.019c-0.634-0.914-0.407-2.169,0.507-2.804
				c0.914-0.634,2.17-0.407,2.804,0.507l0.012,0.017l3.283,4.84c0.615,0.907,0.379,2.141-0.528,2.756
				c-0.901,0.611-2.124,0.382-2.744-0.51L1963.816,634.015z"/>
			<path style="fill:#FFFFFF;" d="M1952.58,618.274l-3.488-4.637l-0.015-0.019c-0.702-0.934-0.515-2.26,0.419-2.962
				c0.934-0.702,2.26-0.515,2.962,0.419l0.013,0.018l3.468,4.712c0.683,0.927,0.484,2.233-0.443,2.915
				c-0.921,0.678-2.215,0.487-2.902-0.425L1952.58,618.274z"/>
			<path style="fill:#FFFFFF;" d="M1940.75,602.975l-3.662-4.5l-0.016-0.02c-0.773-0.95-0.63-2.346,0.32-3.119
				c0.95-0.773,2.346-0.629,3.119,0.32l0.014,0.018l3.647,4.578c0.752,0.944,0.597,2.32-0.348,3.072
				c-0.938,0.747-2.302,0.599-3.057-0.329L1940.75,602.975z"/>
			<path style="fill:#FFFFFF;" d="M1928.345,588.14l-3.822-4.364l-0.017-0.02c-0.839-0.957-0.742-2.413,0.215-3.252
				c0.957-0.839,2.413-0.742,3.252,0.215l0.01,0.011l3.829,4.428c0.826,0.955,0.721,2.398-0.234,3.224
				c-0.951,0.822-2.387,0.722-3.214-0.222L1928.345,588.14z"/>
			<path style="fill:#FFFFFF;" d="M1915.411,573.766l-3.986-4.214l-0.019-0.02c-0.898-0.949-0.856-2.447,0.093-3.345
				c0.949-0.898,2.447-0.856,3.345,0.093l0.01,0.011l3.996,4.279c0.885,0.948,0.834,2.433-0.113,3.318
				c-0.944,0.881-2.421,0.835-3.307-0.102L1915.411,573.766z"/>
			<path style="fill:#FFFFFF;" d="M1901.94,559.901l-4.144-4.057l-0.02-0.019c-0.958-0.938-0.974-2.475-0.036-3.433
				c0.938-0.958,2.475-0.974,3.433-0.036l0.011,0.011l4.157,4.123c0.945,0.937,0.951,2.462,0.014,3.407
				c-0.933,0.941-2.45,0.951-3.396,0.026L1901.94,559.901z"/>
			<path style="fill:#FFFFFF;" d="M1887.949,546.567l-4.295-3.893l-0.021-0.019c-1.019-0.923-1.096-2.498-0.173-3.517
				s2.498-1.096,3.517-0.173l0.012,0.011l4.313,3.959c1.005,0.923,1.072,2.486,0.149,3.491c-0.919,1.001-2.473,1.072-3.479,0.161
				L1887.949,546.567z"/>
			<path style="fill:#FFFFFF;" d="M1873.459,533.787l-4.441-3.723l-0.023-0.019c-1.08-0.905-1.222-2.514-0.317-3.594
				c0.905-1.08,2.514-1.222,3.594-0.316l0.012,0.01l4.463,3.789c1.066,0.905,1.197,2.504,0.292,3.57
				c-0.902,1.062-2.491,1.196-3.557,0.302L1873.459,533.787z"/>
			<path style="fill:#FFFFFF;" d="M1858.489,521.584l-4.582-3.545l-0.024-0.019c-1.141-0.883-1.351-2.524-0.468-3.666
				s2.524-1.351,3.666-0.468l0.013,0.01l4.607,3.612c1.128,0.884,1.325,2.515,0.441,3.643c-0.88,1.123-2.502,1.323-3.629,0.452
				L1858.489,521.584z"/>
			<path style="fill:#FFFFFF;" d="M1843.058,509.98l-4.716-3.361l-0.026-0.018c-1.203-0.857-1.483-2.528-0.626-3.73
				c0.857-1.203,2.528-1.483,3.731-0.626l0.014,0.01l4.746,3.428c1.189,0.859,1.457,2.519,0.598,3.709
				c-0.855,1.184-2.506,1.455-3.694,0.608L1843.058,509.98z"/>
			<path style="fill:#FFFFFF;" d="M1827.186,498.999l-4.844-3.169l-0.027-0.018c-1.265-0.827-1.619-2.523-0.792-3.788
				c0.828-1.265,2.524-1.619,3.788-0.792l0.015,0.01l4.878,3.236c1.251,0.83,1.592,2.517,0.762,3.767
				c-0.826,1.246-2.503,1.589-3.752,0.772L1827.186,498.999z"/>
			<path style="fill:#FFFFFF;" d="M1810.895,488.664l-4.966-2.971l-0.029-0.017c-1.326-0.794-1.758-2.512-0.964-3.838
				c0.794-1.326,2.512-1.758,3.838-0.965l0.015,0.009l5.005,3.038c1.312,0.797,1.73,2.506,0.934,3.819
				c-0.793,1.307-2.492,1.727-3.802,0.943L1810.895,488.664z"/>
			<path style="fill:#FFFFFF;" d="M1794.205,478.997l-5.082-2.766l-0.031-0.017c-1.387-0.755-1.9-2.492-1.145-3.879
				c0.755-1.387,2.492-1.9,3.879-1.145l0.016,0.009l5.126,2.832c1.373,0.759,1.871,2.488,1.113,3.861
				c-0.756,1.368-2.474,1.868-3.844,1.122L1794.205,478.997z"/>
			<path style="fill:#FFFFFF;" d="M1777.136,470.022l-5.191-2.554l-0.033-0.016c-1.448-0.712-2.044-2.464-1.332-3.911
				c0.712-1.448,2.464-2.044,3.911-1.332l0.017,0.008l5.24,2.62c1.434,0.717,2.015,2.461,1.298,3.895
				c-0.714,1.428-2.447,2.011-3.877,1.307L1777.136,470.022z"/>
			<path style="fill:#FFFFFF;" d="M1759.709,461.761l-5.293-2.335l-0.034-0.015c-1.508-0.665-2.191-2.426-1.525-3.934
				c0.665-1.507,2.426-2.19,3.934-1.525l0.018,0.008l5.347,2.4c1.494,0.67,2.161,2.425,1.491,3.919
				c-0.668,1.488-2.411,2.156-3.901,1.499L1759.709,461.761z"/>
			<path style="fill:#FFFFFF;" d="M1741.953,454.237l-5.389-2.112l-0.036-0.014c-1.566-0.614-2.338-2.38-1.724-3.946
				c0.614-1.566,2.381-2.338,3.946-1.724l0.018,0.007l5.446,2.174c1.552,0.62,2.308,2.381,1.688,3.933
				c-0.617,1.546-2.366,2.302-3.914,1.696L1741.953,454.237z"/>
			<path style="fill:#FFFFFF;" d="M1723.895,447.462l-5.469-1.886l-0.036-0.013c-1.622-0.559-2.484-2.328-1.924-3.95
				c0.559-1.622,2.328-2.484,3.95-1.924l0.019,0.007l5.529,1.946c1.609,0.566,2.454,2.33,1.888,3.939
				c-0.564,1.602-2.315,2.447-3.919,1.895L1723.895,447.462z"/>
			<path style="fill:#FFFFFF;" d="M1705.582,441.439l-5.539-1.66l-0.037-0.011c-1.676-0.502-2.628-2.269-2.126-3.945
				c0.502-1.676,2.269-2.628,3.945-2.126l0.019,0.006l5.602,1.718c1.663,0.51,2.598,2.272,2.088,3.935
				c-0.508,1.656-2.258,2.59-3.915,2.094L1705.582,441.439z"/>
			<path style="fill:#FFFFFF;" d="M1687.048,436.152l-5.598-1.447l-0.037-0.01c-1.712-0.442-2.74-2.189-2.298-3.9
				c0.442-1.712,2.188-2.74,3.9-2.298l0.006,0.002l5.669,1.478c1.707,0.445,2.731,2.19,2.286,3.897
				c-0.445,1.707-2.19,2.731-3.897,2.285L1687.048,436.152z"/>
			<path style="fill:#FFFFFF;" d="M1668.323,431.591l-5.652-1.222l-0.037-0.008c-1.739-0.376-2.844-2.091-2.468-3.829
				c0.376-1.739,2.091-2.844,3.83-2.467l0.007,0.001l5.724,1.251c1.735,0.379,2.834,2.093,2.455,3.827
				c-0.379,1.735-2.093,2.834-3.827,2.455L1668.323,431.591z"/>
			<path style="fill:#FFFFFF;" d="M1649.43,427.778l-5.696-0.998l-0.037-0.007c-1.764-0.309-2.943-1.989-2.633-3.753
				c0.309-1.763,1.989-2.942,3.753-2.633l0.007,0.001l5.769,1.024c1.76,0.312,2.933,1.992,2.62,3.751s-1.992,2.933-3.751,2.621
				L1649.43,427.778z"/>
			<path style="fill:#FFFFFF;" d="M1630.398,424.711l-5.732-0.775l-0.038-0.005c-1.785-0.241-3.037-1.884-2.796-3.67
				c0.241-1.785,1.884-3.037,3.67-2.796l0.007,0.001l5.806,0.797c1.781,0.245,3.027,1.887,2.783,3.669s-1.887,3.027-3.669,2.783
				L1630.398,424.711z"/>
			<path style="fill:#FFFFFF;" d="M1611.257,422.388l-5.759-0.552l-0.038-0.004c-1.805-0.173-3.127-1.776-2.955-3.581
				c0.173-1.805,1.776-3.127,3.581-2.954l0.007,0.001l5.834,0.571c1.801,0.176,3.118,1.779,2.941,3.58
				c-0.176,1.801-1.779,3.118-3.58,2.941L1611.257,422.388z"/>
			<path style="fill:#FFFFFF;" d="M1592.036,420.809l-5.777-0.329l-0.038-0.002c-1.821-0.104-3.213-1.664-3.11-3.486
				c0.104-1.821,1.664-3.214,3.486-3.11l0.007,0l5.853,0.346c1.818,0.107,3.204,1.668,3.097,3.486s-1.668,3.204-3.486,3.096
				L1592.036,420.809z"/>
			<path style="fill:#FFFFFF;" d="M1572.765,419.97l-5.787-0.107l-0.038-0.001c-1.835-0.034-3.295-1.549-3.261-3.384
				c0.034-1.835,1.549-3.295,3.384-3.261l0.007,0l5.863,0.121c1.832,0.038,3.286,1.553,3.248,3.385
				c-0.038,1.832-1.553,3.286-3.385,3.248L1572.765,419.97z"/>
			<path style="fill:#FFFFFF;" d="M1553.473,419.872l-5.787,0.114l-0.038,0.001c-1.846,0.036-3.373-1.431-3.409-3.277
				s1.431-3.373,3.277-3.409l0.007,0l5.864-0.104c1.843-0.033,3.364,1.435,3.396,3.278c0.033,1.843-1.435,3.363-3.278,3.396
				L1553.473,419.872z"/>
			<path style="fill:#FFFFFF;" d="M1534.189,420.512l-5.779,0.336l-0.039,0.002c-1.855,0.108-3.446-1.309-3.554-3.163
				c-0.108-1.855,1.309-3.446,3.164-3.554l0.007,0l5.857-0.328c1.852-0.104,3.437,1.313,3.54,3.165
				c0.104,1.852-1.313,3.437-3.165,3.54L1534.189,420.512z"/>
			<path style="fill:#FFFFFF;" d="M1514.943,421.888l-5.762,0.556l-0.039,0.004c-1.861,0.18-3.515-1.183-3.694-3.044
				c-0.18-1.861,1.183-3.515,3.044-3.694l0.007-0.001l5.84-0.552c1.858-0.175,3.506,1.188,3.681,3.046
				c0.175,1.858-1.188,3.506-3.046,3.681L1514.943,421.888z"/>
			<path style="fill:#FFFFFF;" d="M1495.765,424l-5.736,0.777l-0.039,0.005c-1.864,0.252-3.579-1.054-3.831-2.917
				c-0.252-1.863,1.054-3.579,2.917-3.831l0.007-0.001l5.815-0.775c1.861-0.248,3.57,1.059,3.818,2.92
				c0.248,1.861-1.059,3.57-2.92,3.818L1495.765,424z"/>
			<path style="fill:#FFFFFF;" d="M1476.685,426.845l-5.7,0.997l-0.039,0.007c-1.864,0.326-3.638-0.921-3.964-2.784
				c-0.326-1.864,0.921-3.638,2.785-3.964l0.007-0.001l5.78-0.998c1.861-0.321,3.63,0.927,3.951,2.788
				c0.321,1.861-0.927,3.63-2.788,3.951L1476.685,426.845z"/>
			<path style="fill:#FFFFFF;" d="M1457.734,430.423l-5.656,1.216l-0.039,0.008c-1.861,0.4-3.693-0.784-4.093-2.645
				c-0.4-1.861,0.784-3.693,2.645-4.093l0.007-0.001l5.737-1.221c1.858-0.395,3.685,0.79,4.08,2.649
				c0.395,1.858-0.791,3.685-2.649,4.08L1457.734,430.423z"/>
			<path style="fill:#FFFFFF;" d="M1438.94,434.731l-5.603,1.434l-0.039,0.01c-1.855,0.475-3.743-0.644-4.218-2.498
				c-0.475-1.855,0.644-3.743,2.498-4.218l0.007-0.002l5.684-1.443c1.852-0.47,3.735,0.65,4.205,2.503s-0.65,3.735-2.503,4.205
				L1438.94,434.731z"/>
			<path style="fill:#FFFFFF;" d="M1420.335,439.768l-5.541,1.653l-0.04,0.012c-1.845,0.551-3.787-0.499-4.338-2.345
				c-0.55-1.845,0.499-3.787,2.345-4.338l0.007-0.002l5.623-1.665c1.843-0.546,3.78,0.506,4.325,2.349
				c0.546,1.843-0.506,3.78-2.349,4.326L1420.335,439.768z"/>
			<path style="fill:#FFFFFF;" d="M1401.947,445.531l-5.469,1.871l-0.04,0.014c-1.833,0.627-3.827-0.351-4.453-2.184
				c-0.627-1.833,0.351-3.827,2.183-4.453l0.007-0.002l5.552-1.886c1.831-0.622,3.819,0.358,4.441,2.189
				c0.622,1.831-0.358,3.819-2.189,4.441L1401.947,445.531z"/>
			<path style="fill:#FFFFFF;" d="M1383.809,452.02l-5.388,2.087l-0.04,0.015c-1.817,0.704-3.86-0.198-4.564-2.015
				c-0.704-1.817,0.198-3.86,2.015-4.564l0.007-0.003l5.472-2.107c1.815-0.699,3.853,0.206,4.551,2.021
				c0.699,1.815-0.206,3.853-2.021,4.551L1383.809,452.02z"/>
			<path style="fill:#FFFFFF;" d="M1365.951,459.23l-5.299,2.304l-0.04,0.017c-1.797,0.781-3.887-0.042-4.668-1.839
				s0.042-3.887,1.839-4.668l0.007-0.003l5.383-2.327c1.796-0.776,3.88,0.05,4.656,1.846s-0.05,3.88-1.846,4.656L1365.951,459.23z"
				/>
			<path style="fill:#FFFFFF;" d="M1348.402,467.161l-5.199,2.519l-0.04,0.019c-1.774,0.859-3.908,0.118-4.767-1.656
				c-0.859-1.774-0.118-3.908,1.656-4.767l0.007-0.003l5.284-2.546c1.772-0.854,3.901-0.11,4.755,1.663
				c0.854,1.772,0.11,3.901-1.663,4.755L1348.402,467.161z"/>
			<path style="fill:#FFFFFF;" d="M1331.195,475.808l-5.09,2.733l-0.04,0.021c-1.746,0.938-3.922,0.282-4.86-1.464
				c-0.938-1.746-0.282-3.922,1.464-4.86l0.007-0.003l5.175-2.765c1.745-0.932,3.916-0.273,4.848,1.472
				c0.932,1.745,0.273,3.916-1.472,4.848L1331.195,475.808z"/>
			<path style="fill:#FFFFFF;" d="M1314.359,485.155l-4.984,2.931l-0.035,0.021c-1.71,1.006-3.911,0.435-4.917-1.275
				c-1.005-1.71-0.437-3.909,1.272-4.915l5.052-2.977c1.71-1.008,3.913-0.438,4.921,1.272c1.008,1.71,0.438,3.913-1.272,4.921
				l-0.003,0.002L1314.359,485.155z"/>
			<path style="fill:#FFFFFF;" d="M1297.874,495.145l-4.873,3.116l-0.033,0.021c-1.667,1.066-3.883,0.579-4.949-1.088
				c-1.066-1.667-0.581-3.881,1.086-4.947l4.936-3.162c1.667-1.068,3.885-0.583,4.953,1.085c1.068,1.667,0.582,3.885-1.085,4.953
				l-0.003,0.002L1297.874,495.145z"/>
			<path style="fill:#FFFFFF;" d="M1281.76,505.735l-4.762,3.287l-0.03,0.021c-1.625,1.121-3.851,0.714-4.972-0.911
				c-1.121-1.625-0.716-3.849,0.909-4.971l4.819-3.333c1.625-1.124,3.853-0.717,4.977,0.908c1.124,1.625,0.717,3.853-0.908,4.977
				l-0.003,0.002L1281.76,505.735z"/>
			<path style="fill:#FFFFFF;" d="M1266.015,516.877l-4.653,3.444l-0.027,0.02c-1.583,1.172-3.816,0.838-4.988-0.745
				c-1.172-1.583-0.841-3.815,0.743-4.986l4.705-3.488c1.583-1.174,3.818-0.842,4.992,0.741c1.174,1.583,0.842,3.818-0.741,4.992
				l-0.002,0.002L1266.015,516.877z"/>
			<path style="fill:#FFFFFF;" d="M1250.63,528.526l-4.547,3.586l-0.025,0.019c-1.543,1.217-3.78,0.953-4.997-0.59
				c-1.217-1.543-0.955-3.778,0.588-4.995l4.594-3.629c1.543-1.219,3.782-0.956,5.001,0.586s0.957,3.782-0.586,5.001l-0.002,0.002
				L1250.63,528.526z"/>
			<path style="fill:#FFFFFF;" d="M1235.591,540.634l-4.446,3.715l-0.022,0.018c-1.504,1.257-3.743,1.056-5-0.448
				c-1.257-1.504-1.059-3.741,0.446-4.998l4.487-3.755c1.504-1.259,3.745-1.06,5.003,0.444c1.259,1.504,1.06,3.745-0.444,5.004
				l-0.002,0.002L1235.591,540.634z"/>
			<path style="fill:#FFFFFF;" d="M1220.882,553.154l-4.352,3.829l-0.02,0.017c-1.468,1.292-3.706,1.149-4.997-0.319
				c-1.292-1.468-1.151-3.704,0.317-4.996l4.387-3.868c1.468-1.294,3.707-1.153,5.001,0.315c1.294,1.468,1.153,3.707-0.315,5.002
				l-0.002,0.002L1220.882,553.154z"/>
			<path style="fill:#FFFFFF;" d="M1206.48,566.041l-4.264,3.931l-0.017,0.016c-1.434,1.323-3.669,1.232-4.992-0.203
				c-1.323-1.434-1.234-3.667,0.201-4.99l4.295-3.966c1.434-1.325,3.671-1.236,4.996,0.199c1.325,1.434,1.236,3.671-0.199,4.995
				l-0.002,0.002L1206.48,566.041z"/>
			<path style="fill:#FFFFFF;" d="M1192.362,579.252l-4.184,4.02l-0.015,0.014c-1.403,1.349-3.634,1.304-4.983-0.099
				c-1.349-1.404-1.306-3.632,0.097-4.981l4.21-4.052c1.403-1.351,3.636-1.308,4.987,0.095c1.351,1.403,1.308,3.636-0.095,4.987
				l-0.002,0.002L1192.362,579.252z"/>
			<path style="fill:#FFFFFF;" d="M1178.501,592.746l-4.113,4.098l-0.013,0.012c-1.375,1.37-3.602,1.366-4.972-0.009
				c-1.37-1.375-1.368-3.599,0.007-4.97l4.134-4.126c1.375-1.373,3.603-1.37,4.976,0.005c1.373,1.375,1.371,3.603-0.005,4.976
				l-0.002,0.002L1178.501,592.746z"/>
			<path style="fill:#FFFFFF;" d="M1164.868,606.484l-4.05,4.163l-0.01,0.011c-1.351,1.389-3.571,1.419-4.96,0.069
				c-1.388-1.351-1.421-3.569-0.071-4.958l4.067-4.188c1.35-1.391,3.573-1.423,4.963-0.073c1.391,1.35,1.423,3.573,0.073,4.963
				l-0.002,0.002L1164.868,606.484z"/>
			<path style="fill:#FFFFFF;" d="M1151.433,620.428l-3.991,4.213l-0.009,0.009c-1.329,1.403-3.544,1.463-4.947,0.134
				c-1.403-1.329-1.465-3.542-0.136-4.944l4.005-4.235c1.329-1.405,3.545-1.467,4.95-0.138c1.405,1.329,1.467,3.545,0.138,4.95
				l-0.002,0.002L1151.433,620.428z"/>
			<path style="fill:#FFFFFF;" d="M1138.175,634.536l-3.954,4.266l-0.007,0.007c-1.31,1.414-3.519,1.497-4.933,0.187
				c-1.414-1.311-1.5-3.517-0.189-4.931l3.964-4.284c1.31-1.416,3.521-1.502,4.937-0.191c1.416,1.31,1.502,3.52,0.191,4.936
				l-0.002,0.002L1138.175,634.536z"/>
			<path style="fill:#FFFFFF;" d="M1125.042,648.792l-3.917,4.299c-1.292,1.424-3.495,1.531-4.919,0.239
				c-1.424-1.292-1.528-3.498-0.236-4.922l3.924-4.313c1.295-1.424,3.499-1.528,4.923-0.232c1.424,1.295,1.528,3.499,0.233,4.923
				L1125.042,648.792z"/>
			<path style="fill:#FFFFFF;" d="M1112.015,663.153l-3.893,4.324c-1.281,1.428-3.478,1.547-4.906,0.265
				c-1.428-1.282-1.545-3.479-0.263-4.907l3.896-4.335c1.283-1.428,3.481-1.546,4.909-0.262s1.545,3.481,0.262,4.909
				L1112.015,663.153z"/>
			<path style="fill:#FFFFFF;" d="M1099.06,677.589l-3.877,4.341c-1.274,1.428-3.464,1.554-4.893,0.28
				c-1.428-1.274-1.554-3.464-0.28-4.893l3.877-4.349c1.275-1.43,3.467-1.555,4.896-0.281c1.43,1.275,1.555,3.467,0.281,4.896
				L1099.06,677.589z"/>
			<path style="fill:#FFFFFF;" d="M1086.145,692.07l-3.872,4.349c-1.269,1.426-3.454,1.553-4.881,0.284
				c-1.426-1.269-1.555-3.453-0.285-4.879l3.869-4.353c1.269-1.428,3.456-1.557,4.884-0.288c1.428,1.269,1.557,3.456,0.288,4.884
				L1086.145,692.07z"/>
			<path style="fill:#FFFFFF;" d="M1073.236,706.568l-3.876,4.348c-1.268,1.422-3.448,1.547-4.869,0.279
				c-1.422-1.267-1.547-3.447-0.28-4.868l3.87-4.349c1.266-1.424,3.448-1.553,4.872-0.286c1.424,1.266,1.552,3.448,0.286,4.872
				L1073.236,706.568z"/>
			<path style="fill:#FFFFFF;" d="M1060.3,721.053l-3.891,4.339c-1.268,1.414-3.443,1.533-4.858,0.264
				c-1.415-1.268-1.532-3.445-0.264-4.859l3.881-4.336c1.266-1.418,3.443-1.541,4.861-0.275c1.418,1.267,1.541,3.443,0.275,4.861
				L1060.3,721.053z"/>
			<path style="fill:#FFFFFF;" d="M1047.306,735.496l-3.915,4.32c-1.273,1.404-3.443,1.511-4.847,0.238
				c-1.404-1.273-1.509-3.446-0.236-4.85l3.902-4.314c1.27-1.409,3.441-1.522,4.85-0.252c1.409,1.27,1.522,3.441,0.252,4.85
				L1047.306,735.496z"/>
			<path style="fill:#FFFFFF;" d="M1034.22,749.866l-3.948,4.292c-1.28,1.391-3.446,1.482-4.837,0.202
				c-1.391-1.28-1.478-3.45-0.198-4.842l3.933-4.283c1.276-1.397,3.443-1.495,4.84-0.219c1.397,1.276,1.495,3.443,0.219,4.84
				L1034.22,749.866z"/>
			<path style="fill:#FFFFFF;" d="M1021.01,764.133l-3.992,4.255c-1.29,1.375-3.452,1.445-4.827,0.154s-1.445-3.451-0.154-4.827
				l0.006-0.006l3.973-4.242l0.008-0.008c1.29-1.378,3.453-1.448,4.83-0.158c1.378,1.29,1.449,3.453,0.159,4.831L1021.01,764.133z"
				/>
			<path style="fill:#FFFFFF;" d="M1007.644,778.265l-4.045,4.208c-1.304,1.356-3.46,1.399-4.817,0.095
				c-1.356-1.304-1.399-3.46-0.095-4.817l0.008-0.008l4.022-4.192l0.009-0.01c1.304-1.358,3.462-1.403,4.82-0.1
				c1.359,1.304,1.403,3.462,0.1,4.82L1007.644,778.265z"/>
			<path style="fill:#FFFFFF;" d="M994.091,792.228l-4.107,4.151c-1.32,1.334-3.471,1.346-4.806,0.026
				c-1.334-1.32-1.346-3.471-0.026-4.806l0.009-0.009l4.081-4.132l0.011-0.011c1.32-1.336,3.473-1.349,4.809-0.03
				c1.336,1.32,1.35,3.473,0.03,4.809L994.091,792.228z"/>
			<path style="fill:#FFFFFF;" d="M980.32,805.988l-4.178,4.083c-1.339,1.308-3.485,1.283-4.794-0.055
				c-1.308-1.339-1.284-3.485,0.055-4.794l0.011-0.011l4.148-4.061l0.013-0.013c1.339-1.31,3.487-1.287,4.797,0.051
				c1.311,1.339,1.288,3.487-0.051,4.797L980.32,805.988z"/>
			<path style="fill:#FFFFFF;" d="M966.302,819.507l-4.258,4.003c-1.361,1.279-3.501,1.213-4.78-0.148
				c-1.279-1.361-1.213-3.501,0.147-4.78l0.013-0.012l4.224-3.978l0.015-0.014c1.36-1.281,3.502-1.217,4.783,0.143
				c1.281,1.36,1.217,3.502-0.143,4.783L966.302,819.507z"/>
			<path style="fill:#FFFFFF;" d="M952.008,832.747l-4.349,3.914c-1.385,1.246-3.517,1.134-4.763-0.251
				c-1.246-1.385-1.134-3.517,0.251-4.764l0.015-0.014l4.311-3.886l0.017-0.016c1.385-1.248,3.519-1.138,4.767,0.247
				c1.248,1.385,1.138,3.519-0.247,4.767L952.008,832.747z"/>
			<path style="fill:#FFFFFF;" d="M937.408,845.669l-4.44,3.806c-1.411,1.209-3.535,1.046-4.744-0.365
				c-1.209-1.411-1.046-3.535,0.365-4.744l0.017-0.015l4.398-3.776l0.019-0.017c1.411-1.211,3.537-1.05,4.748,0.361
				c1.211,1.411,1.05,3.537-0.361,4.748L937.408,845.669z"/>
			<path style="fill:#FFFFFF;" d="M922.494,858.218l-4.539,3.685c-1.439,1.168-3.552,0.949-4.721-0.49
				c-1.168-1.439-0.949-3.552,0.49-4.721l0.019-0.016l4.492-3.654l0.022-0.018c1.439-1.17,3.554-0.953,4.725,0.486
				c1.171,1.439,0.953,3.554-0.486,4.725L922.494,858.218z"/>
			<path style="fill:#FFFFFF;" d="M907.233,870.36l-4.644,3.553c-1.468,1.123-3.57,0.844-4.693-0.625
				c-1.123-1.469-0.844-3.57,0.625-4.693l0.022-0.017l4.593-3.52l0.024-0.018c1.469-1.125,3.572-0.847,4.697,0.621
				c1.125,1.469,0.847,3.572-0.621,4.697L907.233,870.36z"/>
			<path style="fill:#FFFFFF;" d="M891.619,882.04l-4.757,3.409c-1.499,1.074-3.585,0.73-4.659-0.769
				c-1.074-1.499-0.73-3.585,0.769-4.659l0.024-0.017l4.701-3.375l0.026-0.019c1.499-1.076,3.587-0.733,4.664,0.766
				c1.076,1.499,0.733,3.587-0.766,4.664L891.619,882.04z"/>
			<path style="fill:#FFFFFF;" d="M875.62,893.226l-4.884,3.253c-1.531,1.02-3.599,0.605-4.619-0.926
				c-1.02-1.531-0.605-3.599,0.926-4.619l0.028-0.019l4.819-3.216l0.031-0.021c1.531-1.022,3.601-0.609,4.623,0.923
				c1.022,1.531,0.609,3.601-0.923,4.623L875.62,893.226z"/>
			<path style="fill:#FFFFFF;" d="M859.218,903.846l-4.994,3.066c-1.564,0.96-3.61,0.471-4.57-1.093
				c-0.96-1.564-0.471-3.61,1.093-4.57l0.029-0.018l4.929-3.032l0.031-0.019c1.564-0.962,3.612-0.474,4.574,1.09
				c0.962,1.564,0.474,3.612-1.09,4.574L859.218,903.846z"/>
			<path style="fill:#FFFFFF;" d="M842.441,913.85l-5.104,2.879c-1.594,0.899-3.615,0.336-4.515-1.258
				c-0.899-1.594-0.336-3.616,1.258-4.515l0.03-0.017l5.037-2.847l0.032-0.018c1.595-0.901,3.618-0.339,4.519,1.255
				s0.339,3.618-1.255,4.519L842.441,913.85z"/>
			<path style="fill:#FFFFFF;" d="M825.303,923.224l-5.209,2.686c-1.623,0.837-3.616,0.2-4.453-1.423
				c-0.837-1.622-0.2-3.616,1.423-4.453l0.031-0.016l5.14-2.657l0.033-0.017c1.623-0.839,3.619-0.203,4.458,1.42
				c0.839,1.623,0.203,3.619-1.42,4.458L825.303,923.224z"/>
			<path style="fill:#FFFFFF;" d="M807.824,931.948l-5.307,2.488c-1.649,0.773-3.612,0.063-4.385-1.586
				c-0.773-1.649-0.063-3.612,1.586-4.385l0.032-0.015l5.237-2.46l0.034-0.016c1.65-0.775,3.615-0.066,4.39,1.584
				c0.775,1.649,0.066,3.615-1.583,4.39L807.824,931.948z"/>
			<path style="fill:#FFFFFF;" d="M790.025,940.002l-5.399,2.282c-1.673,0.707-3.603-0.076-4.31-1.749
				c-0.707-1.673,0.076-3.603,1.749-4.31l0.033-0.014l5.327-2.257l0.035-0.015c1.674-0.709,3.605,0.073,4.315,1.747
				c0.709,1.674-0.073,3.605-1.747,4.315L790.025,940.002z"/>
			<path style="fill:#FFFFFF;" d="M771.925,947.363l-5.485,2.069c-1.695,0.64-3.588-0.216-4.227-1.911
				c-0.639-1.695,0.216-3.588,1.911-4.227l0.034-0.013l5.41-2.046l0.036-0.014c1.696-0.641,3.591,0.213,4.232,1.909
				c0.641,1.696-0.213,3.591-1.909,4.232L771.925,947.363z"/>
			<path style="fill:#FFFFFF;" d="M753.547,954.005l-5.564,1.848c-1.715,0.57-3.567-0.359-4.137-2.074
				c-0.57-1.715,0.359-3.567,2.074-4.137l0.035-0.012l5.487-1.828l0.038-0.013c1.716-0.572,3.57,0.356,4.142,2.072
				c0.572,1.716-0.356,3.57-2.072,4.142L753.547,954.005z"/>
			<path style="fill:#FFFFFF;" d="M734.914,959.901l-5.636,1.619c-1.732,0.498-3.54-0.503-4.038-2.236
				c-0.498-1.732,0.503-3.54,2.236-4.038l0.036-0.01l5.556-1.601l0.039-0.011c1.733-0.5,3.543,0.501,4.043,2.234
				c0.5,1.733-0.501,3.543-2.234,4.043L734.914,959.901z"/>
			<path style="fill:#FFFFFF;" d="M716.05,965.022l-5.7,1.381c-1.747,0.423-3.507-0.65-3.93-2.397
				c-0.423-1.747,0.65-3.507,2.397-3.93l0.038-0.009l5.618-1.366l0.04-0.01c1.748-0.425,3.51,0.648,3.935,2.396
				c0.425,1.748-0.647,3.51-2.396,3.935L716.05,965.022z"/>
			<path style="fill:#FFFFFF;" d="M696.982,969.338l-5.756,1.133c-1.759,0.346-3.466-0.799-3.813-2.558
				c-0.346-1.759,0.799-3.466,2.558-3.813l0.039-0.008l5.671-1.122l0.042-0.008c1.76-0.348,3.47,0.797,3.818,2.557
				c0.348,1.76-0.797,3.47-2.557,3.818L696.982,969.338z"/>
			<path style="fill:#FFFFFF;" d="M677.74,972.818l-5.807,0.877c-1.768,0.267-3.419-0.95-3.686-2.719
				c-0.267-1.768,0.95-3.419,2.719-3.686l0.041-0.006l5.719-0.869l0.043-0.007c1.77-0.269,3.422,0.948,3.691,2.717
				c0.269,1.77-0.948,3.422-2.717,3.691L677.74,972.818z"/>
			<path style="fill:#FFFFFF;" d="M658.348,975.431l-5.835,0.609c-1.774,0.185-3.363-1.103-3.548-2.877
				c-0.185-1.774,1.103-3.363,2.877-3.548l0.042-0.005l5.745-0.605l0.045-0.005c1.775-0.187,3.366,1.101,3.553,2.876
				c0.187,1.775-1.101,3.366-2.876,3.553L658.348,975.431z"/>
			<path style="fill:#FFFFFF;" d="M638.862,977.141l-5.853,0.332c-1.776,0.101-3.298-1.257-3.399-3.034
				c-0.101-1.776,1.257-3.298,3.034-3.399l0.044-0.003l5.76-0.332l0.046-0.003c1.778-0.103,3.302,1.255,3.404,3.033
				c0.103,1.778-1.255,3.302-3.033,3.404L638.862,977.141z"/>
			<path style="fill:#FFFFFF;" d="M619.319,977.919l-5.871,0.047c-1.774,0.014-3.225-1.413-3.239-3.187
				c-0.014-1.774,1.412-3.225,3.187-3.239l0.045,0l5.776-0.052l0.048,0c1.776-0.016,3.228,1.411,3.244,3.187
				c0.016,1.776-1.411,3.228-3.187,3.244H619.319z"/>
			<path style="fill:#FFFFFF;" d="M599.75,977.737l-5.867-0.246c-1.768-0.074-3.142-1.568-3.068-3.336
				c0.074-1.768,1.568-3.142,3.336-3.068l0.046,0.002l5.77,0.237l0.049,0.002c1.77,0.073,3.146,1.566,3.073,3.336
				c-0.073,1.77-1.566,3.146-3.336,3.073L599.75,977.737z"/>
			<path style="fill:#FFFFFF;" d="M580.211,976.567l-5.838-0.546c-1.758-0.164-3.049-1.723-2.885-3.48
				c0.164-1.758,1.722-3.049,3.48-2.885l0.047,0.004l5.739,0.532l0.049,0.004c1.759,0.163,3.053,1.721,2.89,3.48
				c-0.163,1.759-1.721,3.053-3.48,2.89L580.211,976.567z"/>
			<path style="fill:#FFFFFF;" d="M560.762,974.388l-5.81-0.853c-1.742-0.256-2.947-1.875-2.691-3.617
				c0.256-1.742,1.875-2.947,3.617-2.691l0.048,0.007l5.71,0.833l0.05,0.007c1.744,0.255,2.951,1.874,2.696,3.618
				c-0.254,1.744-1.874,2.951-3.618,2.696L560.762,974.388z"/>
			<path style="fill:#FFFFFF;" d="M541.446,971.162l-5.758-1.187c-1.713-0.353-2.815-2.027-2.462-3.74
				c0.353-1.713,2.027-2.815,3.74-2.462l0.046,0.009l5.652,1.149l0.054,0.011c1.718,0.349,2.827,2.025,2.477,3.742
				c-0.349,1.718-2.025,2.827-3.742,2.478L541.446,971.162z"/>
			<path style="fill:#FFFFFF;" d="M522.341,966.82l-5.678-1.516c-1.676-0.448-2.671-2.169-2.224-3.844
				c0.447-1.676,2.169-2.671,3.844-2.224l0.044,0.012l5.578,1.474l0.052,0.014c1.681,0.444,2.684,2.167,2.24,3.848
				c-0.444,1.681-2.167,2.684-3.848,2.24L522.341,966.82z"/>
			<path style="fill:#FFFFFF;" d="M503.52,961.39l-5.582-1.836c-1.634-0.537-2.523-2.298-1.986-3.932
				c0.537-1.634,2.298-2.523,3.932-1.986l0.043,0.014l5.486,1.789l0.05,0.016c1.64,0.535,2.536,2.297,2.001,3.937
				c-0.534,1.64-2.297,2.536-3.937,2.001L503.52,961.39z"/>
			<path style="fill:#FFFFFF;" d="M485.04,954.906l-5.469-2.146c-1.589-0.623-2.371-2.416-1.748-4.005s2.416-2.371,4.005-1.748
				l0.041,0.016l5.378,2.094l0.048,0.019c1.594,0.621,2.383,2.416,1.763,4.01c-0.621,1.594-2.416,2.383-4.01,1.763L485.04,954.906z"
				/>
			<path style="fill:#FFFFFF;" d="M466.955,947.398l-5.341-2.447c-1.538-0.705-2.214-2.524-1.509-4.062
				c0.705-1.539,2.524-2.214,4.062-1.509l0.039,0.018l5.254,2.391l0.047,0.021c1.544,0.703,2.226,2.524,1.523,4.069
				c-0.703,1.544-2.524,2.226-4.069,1.523L466.955,947.398z"/>
			<path style="fill:#FFFFFF;" d="M449.318,938.895l-5.195-2.742c-1.484-0.783-2.053-2.621-1.27-4.106
				c0.783-1.484,2.621-2.053,4.106-1.269l0.038,0.02l5.112,2.681l0.045,0.024c1.49,0.781,2.065,2.623,1.283,4.113
				c-0.781,1.49-2.623,2.065-4.113,1.283L449.318,938.895z"/>
			<path style="fill:#FFFFFF;" d="M432.183,929.419l-5.033-3.028c-1.426-0.858-1.887-2.71-1.029-4.136
				c0.858-1.426,2.71-1.887,4.136-1.029l0.037,0.022l4.954,2.963l0.044,0.026c1.432,0.856,1.898,2.711,1.042,4.143
				c-0.856,1.432-2.711,1.898-4.143,1.042L432.183,929.419z"/>
			<path style="fill:#FFFFFF;" d="M415.609,918.995l-4.854-3.309c-1.363-0.93-1.715-2.788-0.786-4.152
				c0.93-1.363,2.788-1.715,4.152-0.786l0.036,0.025l4.778,3.239l0.042,0.029c1.37,0.928,1.727,2.791,0.799,4.161
				c-0.928,1.37-2.791,1.727-4.16,0.799L415.609,918.995z"/>
			<path style="fill:#FFFFFF;" d="M399.655,907.643l-4.656-3.583c-1.297-0.998-1.539-2.858-0.541-4.155
				c0.998-1.297,2.858-1.539,4.155-0.541l0.035,0.027l4.583,3.508l0.041,0.031c1.303,0.997,1.55,2.861,0.553,4.164
				c-0.997,1.303-2.861,1.55-4.164,0.553L399.655,907.643z"/>
			<path style="fill:#FFFFFF;" d="M384.383,895.385l-4.438-3.851c-1.225-1.063-1.357-2.918-0.293-4.143
				c1.063-1.225,2.918-1.357,4.143-0.293l0.034,0.029l4.369,3.771l0.04,0.034c1.231,1.063,1.368,2.922,0.305,4.154
				c-1.063,1.231-2.922,1.368-4.153,0.305L384.383,895.385z"/>
			<path style="fill:#FFFFFF;" d="M369.863,882.242l-4.199-4.112c-1.149-1.125-1.168-2.969-0.043-4.118
				c1.125-1.149,2.969-1.168,4.118-0.043l0.033,0.032l4.133,4.026l0.038,0.037c1.155,1.125,1.179,2.973,0.054,4.128
				c-1.125,1.155-2.974,1.179-4.128,0.054L369.863,882.242z"/>
			<path style="fill:#FFFFFF;" d="M356.166,868.238l-3.941-4.37c-1.068-1.184-0.974-3.009,0.21-4.077
				c1.184-1.068,3.009-0.974,4.076,0.21l0.032,0.035l3.879,4.278l0.037,0.04c1.074,1.184,0.984,3.014-0.2,4.088
				c-1.184,1.074-3.014,0.984-4.088-0.2L356.166,868.238z"/>
			<path style="fill:#FFFFFF;" d="M343.364,853.397l-3.648-4.604c-0.981-1.238-0.773-3.038,0.465-4.019
				c1.238-0.981,3.038-0.773,4.019,0.466l0.03,0.038l3.591,4.507l0.035,0.043c0.987,1.239,0.783,3.044-0.456,4.031
				c-1.239,0.987-3.044,0.783-4.031-0.456L343.364,853.397z"/>
			<path style="fill:#FFFFFF;" d="M331.552,837.767l-3.341-4.839c-0.89-1.289-0.566-3.055,0.722-3.944s3.055-0.566,3.944,0.722
				l0.028,0.041l3.288,4.737l0.033,0.047c0.896,1.29,0.576,3.062-0.714,3.957c-1.29,0.895-3.062,0.576-3.957-0.714L331.552,837.767z
				"/>
			<path style="fill:#FFFFFF;" d="M320.8,821.379l-3.005-5.056c-0.793-1.334-0.354-3.058,0.98-3.851
				c1.334-0.793,3.058-0.354,3.851,0.98l0.026,0.044l2.958,4.948l0.03,0.05c0.799,1.336,0.363,3.066-0.972,3.865
				c-1.336,0.799-3.066,0.363-3.864-0.972L320.8,821.379z"/>
			<path style="fill:#FFFFFF;" d="M311.197,804.288l-2.645-5.255c-0.691-1.374-0.138-3.048,1.236-3.739
				c1.374-0.691,3.048-0.138,3.739,1.235l0.023,0.047l2.605,5.142l0.027,0.053c0.697,1.376,0.147,3.056-1.229,3.753
				c-1.376,0.697-3.056,0.147-3.753-1.229L311.197,804.288z"/>
			<path style="fill:#FFFFFF;" d="M302.823,786.559l-2.261-5.432c-0.586-1.407,0.08-3.022,1.487-3.608
				c1.407-0.586,3.022,0.08,3.608,1.487l0.02,0.049l2.228,5.315l0.023,0.056c0.591,1.409-0.073,3.031-1.482,3.622
				c-1.409,0.591-3.031-0.073-3.622-1.482L302.823,786.559z"/>
			<path style="fill:#FFFFFF;" d="M295.757,768.273l-1.858-5.588c-0.476-1.433,0.299-2.98,1.732-3.457
				c1.433-0.476,2.98,0.299,3.457,1.732l0.017,0.051l1.833,5.468l0.019,0.058c0.481,1.435-0.292,2.99-1.728,3.471
				c-1.436,0.481-2.99-0.292-3.471-1.728L295.757,768.273z"/>
			<path style="fill:#FFFFFF;" d="M290.055,749.504l-1.438-5.704c-0.366-1.451,0.514-2.923,1.964-3.288
				c1.45-0.366,2.923,0.514,3.288,1.964l0.013,0.051l1.423,5.585l0.015,0.058c0.37,1.454-0.508,2.932-1.961,3.303
				c-1.454,0.37-2.932-0.508-3.303-1.961L290.055,749.504z"/>
			<path style="fill:#FFFFFF;" d="M285.749,730.379l-1.021-5.791c-0.257-1.459,0.717-2.851,2.176-3.108
				c1.459-0.257,2.851,0.717,3.108,2.176l0.009,0.05l1.016,5.675l0.01,0.057c0.262,1.463-0.712,2.861-2.174,3.123
				c-1.463,0.262-2.861-0.712-3.123-2.174L285.749,730.379z"/>
			<path style="fill:#FFFFFF;" d="M282.825,711.001l-0.611-5.846c-0.153-1.46,0.907-2.767,2.367-2.919
				c1.46-0.153,2.767,0.907,2.919,2.367l0.005,0.048l0.614,5.735l0.006,0.055c0.157,1.464-0.903,2.777-2.366,2.934
				c-1.464,0.157-2.777-0.903-2.934-2.366L282.825,711.001z"/>
			<path style="fill:#FFFFFF;" d="M281.261,691.474l-0.209-5.872c-0.052-1.453,1.084-2.672,2.537-2.724
				c1.453-0.052,2.672,1.084,2.724,2.537l0.002,0.046l0.22,5.765l0.002,0.053c0.056,1.457-1.08,2.683-2.537,2.739
				c-1.457,0.056-2.683-1.08-2.739-2.537L281.261,691.474z"/>
			<path style="fill:#FFFFFF;" d="M281.023,671.893l0.181-5.871c0.044-1.439,1.247-2.57,2.686-2.525
				c1.439,0.044,2.57,1.247,2.525,2.686l-0.001,0.044l-0.163,5.769l-0.002,0.051c-0.041,1.443-1.244,2.58-2.687,2.539
				c-1.443-0.041-2.58-1.244-2.54-2.687L281.023,671.893z"/>
			<path style="fill:#FFFFFF;" d="M282.072,652.345l0.559-5.846c0.136-1.419,1.396-2.46,2.816-2.324
				c1.419,0.136,2.46,1.396,2.324,2.815l-0.004,0.042l-0.535,5.749l-0.005,0.049c-0.132,1.424-1.394,2.471-2.818,2.338
				c-1.424-0.132-2.471-1.394-2.338-2.818L282.072,652.345z"/>
			<path style="fill:#FFFFFF;" d="M284.365,632.91l0.924-5.797c0.222-1.394,1.532-2.344,2.926-2.122
				c1.394,0.222,2.344,1.532,2.122,2.926l-0.006,0.04l-0.894,5.706l-0.007,0.047c-0.219,1.399-1.531,2.355-2.93,2.136
				c-1.399-0.219-2.355-1.531-2.136-2.93L284.365,632.91z"/>
			<path style="fill:#FFFFFF;" d="M287.858,613.659l1.276-5.729c0.304-1.364,1.656-2.224,3.02-1.92
				c1.364,0.304,2.224,1.656,1.92,3.02l-0.009,0.038l-1.241,5.642l-0.01,0.045c-0.301,1.369-1.655,2.235-3.024,1.934
				c-1.369-0.301-2.235-1.655-1.934-3.024L287.858,613.659z"/>
			<path style="fill:#FFFFFF;" d="M292.509,594.66l1.615-5.641c0.381-1.33,1.768-2.1,3.098-1.719s2.1,1.768,1.719,3.098l-0.01,0.036
				l-1.576,5.56l-0.012,0.043c-0.379,1.335-1.768,2.111-3.103,1.732c-1.335-0.378-2.111-1.768-1.732-3.103L292.509,594.66z"/>
			<path style="fill:#FFFFFF;" d="M298.278,575.974l1.94-5.529c0.453-1.292,1.869-1.972,3.161-1.519
				c1.292,0.453,1.972,1.869,1.519,3.161l-0.012,0.035l-1.897,5.452l-0.014,0.041c-0.452,1.297-1.869,1.983-3.167,1.532
				c-1.297-0.451-1.983-1.869-1.532-3.167L298.278,575.974z"/>
			<path style="fill:#FFFFFF;" d="M305.119,557.674l2.259-5.413c0.522-1.251,1.959-1.842,3.21-1.32
				c1.251,0.522,1.842,1.959,1.32,3.21l-0.014,0.033l-2.212,5.341l-0.016,0.039c-0.52,1.256-1.961,1.853-3.217,1.333
				c-1.256-0.52-1.853-1.961-1.333-3.217L305.119,557.674z"/>
			<path style="fill:#FFFFFF;" d="M313.011,539.782l2.568-5.279c0.587-1.206,2.04-1.709,3.247-1.122
				c1.206,0.587,1.709,2.04,1.122,3.247l-0.015,0.032l-2.517,5.21l-0.018,0.038c-0.585,1.212-2.042,1.719-3.254,1.134
				c-1.212-0.586-1.719-2.042-1.134-3.254L313.011,539.782z"/>
			<path style="fill:#FFFFFF;" d="M321.914,522.373l2.867-5.126c0.648-1.159,2.113-1.572,3.271-0.924
				c1.158,0.648,1.572,2.112,0.924,3.271l-0.017,0.031l-2.814,5.061l-0.02,0.036c-0.647,1.164-2.115,1.583-3.279,0.936
				c-1.164-0.647-1.583-2.115-0.936-3.279L321.914,522.373z"/>
			<path style="fill:#FFFFFF;" d="M331.801,505.501l3.152-4.945c0.706-1.108,2.176-1.433,3.284-0.727
				c1.108,0.706,1.433,2.176,0.727,3.284l-0.019,0.03l-3.095,4.884l-0.022,0.035c-0.705,1.113-2.179,1.444-3.292,0.738
				c-1.113-0.705-1.444-2.179-0.738-3.292L331.801,505.501z"/>
			<path style="fill:#FFFFFF;" d="M342.638,489.233l3.438-4.762c0.761-1.054,2.231-1.291,3.285-0.531
				c1.053,0.761,1.291,2.231,0.53,3.285l-0.02,0.029l-3.378,4.704l-0.024,0.033c-0.76,1.059-2.235,1.301-3.294,0.541
				c-1.059-0.76-1.301-2.235-0.541-3.294L342.638,489.233z"/>
			<path style="fill:#FFFFFF;" d="M354.406,473.614l3.71-4.551c0.812-0.996,2.278-1.146,3.274-0.333
				c0.996,0.812,1.146,2.278,0.333,3.274l-0.022,0.027l-3.646,4.497l-0.026,0.032c-0.812,1.002-2.283,1.155-3.284,0.343
				c-1.002-0.812-1.155-2.283-0.343-3.284L354.406,473.614z"/>
			<path style="fill:#FFFFFF;" d="M367.08,458.711l3.973-4.319c0.861-0.936,2.317-0.996,3.253-0.136s0.997,2.317,0.136,3.253
				l-0.024,0.026l-3.905,4.268l-0.028,0.031c-0.861,0.941-2.322,1.006-3.263,0.145c-0.941-0.861-1.006-2.322-0.145-3.263
				L367.08,458.711z"/>
			<path style="fill:#FFFFFF;" d="M380.618,444.604l4.224-4.065c0.904-0.87,2.341-0.842,3.211,0.062
				c0.87,0.904,0.842,2.341-0.061,3.211l-0.02,0.02l-4.151,4.031l-0.027,0.027c-0.905,0.879-2.351,0.858-3.23-0.047
				c-0.879-0.905-0.858-2.351,0.047-3.23L380.618,444.604z"/>
			<path style="fill:#FFFFFF;" d="M394.956,431.335l4.441-3.823c0.932-0.802,2.337-0.697,3.139,0.234
				c0.802,0.932,0.697,2.337-0.234,3.139l-0.02,0.017l-4.367,3.796l-0.028,0.024c-0.934,0.811-2.348,0.712-3.16-0.221
				c-0.811-0.934-0.712-2.348,0.221-3.16L394.956,431.335z"/>
			<path style="fill:#FFFFFF;" d="M409.996,418.876l4.64-3.577c0.954-0.735,2.323-0.558,3.059,0.396
				c0.735,0.954,0.558,2.323-0.396,3.059l-0.02,0.015l-4.568,3.555l-0.028,0.022c-0.956,0.744-2.335,0.572-3.08-0.384
				c-0.744-0.956-0.572-2.335,0.384-3.079L409.996,418.876z"/>
			<path style="fill:#FFFFFF;" d="M425.678,407.246l4.821-3.325c0.971-0.67,2.301-0.426,2.971,0.545
				c0.67,0.971,0.425,2.301-0.545,2.971l-0.019,0.013l-4.75,3.309l-0.028,0.019c-0.974,0.678-2.314,0.439-2.992-0.535
				c-0.678-0.974-0.439-2.314,0.535-2.992L425.678,407.246z"/>
			<path style="fill:#FFFFFF;" d="M441.944,396.457l4.985-3.072c0.983-0.606,2.271-0.3,2.876,0.683
				c0.606,0.983,0.3,2.271-0.683,2.876l-0.019,0.012l-4.916,3.061l-0.027,0.017c-0.986,0.614-2.284,0.313-2.898-0.674
				c-0.614-0.986-0.313-2.284,0.674-2.898L441.944,396.457z"/>
			<path style="fill:#FFFFFF;" d="M458.735,386.515l5.131-2.817c0.99-0.544,2.233-0.182,2.777,0.809
				c0.544,0.99,0.182,2.233-0.809,2.777l-0.018,0.01l-5.065,2.811l-0.027,0.015c-0.994,0.552-2.247,0.193-2.799-0.801
				c-0.552-0.994-0.193-2.247,0.801-2.799L458.735,386.515z"/>
			<path style="fill:#FFFFFF;" d="M475.995,377.421l5.261-2.563c0.993-0.484,2.19-0.071,2.674,0.922s0.071,2.19-0.922,2.674
				l-0.018,0.009l-5.197,2.561l-0.026,0.013c-0.998,0.492-2.205,0.081-2.696-0.916c-0.492-0.998-0.081-2.205,0.916-2.696
				L475.995,377.421z"/>
			<path style="fill:#FFFFFF;" d="M493.671,369.176l5.376-2.309c0.992-0.426,2.142,0.033,2.568,1.025
				c0.426,0.992-0.033,2.142-1.025,2.568l-0.017,0.007l-5.315,2.312l-0.025,0.011c-0.997,0.434-2.157-0.023-2.59-1.02
				c-0.434-0.997,0.023-2.157,1.02-2.59L493.671,369.176z"/>
			<path style="fill:#FFFFFF;" d="M511.712,361.774l5.476-2.057c0.987-0.371,2.088,0.129,2.459,1.116
				c0.371,0.987-0.129,2.088-1.116,2.459l-0.016,0.006l-5.417,2.063l-0.025,0.009c-0.993,0.378-2.104-0.12-2.482-1.113
				c-0.378-0.993,0.12-2.104,1.113-2.482L511.712,361.774z"/>
			<path style="fill:#FFFFFF;" d="M530.07,355.21l5.563-1.807c0.979-0.318,2.031,0.218,2.349,1.197
				c0.318,0.979-0.218,2.031-1.197,2.349l-0.016,0.005l-5.506,1.817l-0.024,0.008c-0.985,0.325-2.047-0.21-2.372-1.195
				c-0.325-0.985,0.21-2.047,1.195-2.372L530.07,355.21z"/>
			<path style="fill:#FFFFFF;" d="M548.701,349.478l5.628-1.556c0.969-0.268,1.971,0.3,2.238,1.269
				c0.268,0.969-0.3,1.971-1.269,2.238l-0.015,0.004l-5.575,1.569l-0.023,0.007c-0.974,0.274-1.987-0.293-2.261-1.268
				c-0.274-0.974,0.293-1.987,1.268-2.261L548.701,349.478z"/>
			<path style="fill:#FFFFFF;" d="M567.555,344.573l5.695-1.312c0.955-0.22,1.907,0.376,2.127,1.331
				c0.22,0.955-0.376,1.907-1.331,2.127l-0.014,0.003l-5.645,1.328l-0.022,0.005c-0.961,0.226-1.924-0.37-2.15-1.331
				c-0.226-0.961,0.37-1.923,1.331-2.15L567.555,344.573z"/>
			<path style="fill:#FFFFFF;" d="M586.607,340.486l5.751-1.068c0.939-0.174,1.841,0.445,2.016,1.384
				c0.174,0.939-0.445,1.841-1.384,2.016l-0.014,0.003l-5.703,1.087l-0.022,0.004c-0.945,0.18-1.858-0.44-2.038-1.386
				c-0.18-0.945,0.44-1.858,1.385-2.038L586.607,340.486z"/>
			<path style="fill:#FFFFFF;" d="M605.816,337.21l5.794-0.826c0.921-0.131,1.773,0.509,1.904,1.429
				c0.131,0.921-0.509,1.773-1.429,1.904l-0.013,0.002l-5.748,0.846l-0.021,0.003c-0.927,0.137-1.79-0.505-1.926-1.432
				c-0.137-0.927,0.505-1.79,1.432-1.927L605.816,337.21z"/>
			<path style="fill:#FFFFFF;" d="M625.147,334.743l5.824-0.583c0.901-0.09,1.704,0.567,1.794,1.467
				c0.09,0.901-0.567,1.703-1.467,1.794l-0.013,0.001l-5.78,0.606l-0.02,0.002c-0.908,0.095-1.72-0.563-1.815-1.471
				c-0.095-0.908,0.563-1.72,1.471-1.816L625.147,334.743z"/>
			<path style="fill:#FFFFFF;" d="M644.563,333.083l5.833-0.341c0.878-0.051,1.632,0.619,1.684,1.498
				c0.051,0.878-0.619,1.632-1.498,1.684l-0.012,0.001l-5.792,0.366l-0.02,0.001c-0.886,0.056-1.649-0.617-1.705-1.503
				c-0.056-0.886,0.617-1.649,1.503-1.705L644.563,333.083z"/>
			<path style="fill:#FFFFFF;" d="M664.02,332.226l5.849-0.1c0.855-0.015,1.56,0.667,1.574,1.521
				c0.015,0.855-0.667,1.56-1.521,1.575l-0.012,0l-5.81,0.127l-0.019,0c-0.862,0.019-1.577-0.665-1.595-1.527
				c-0.019-0.862,0.665-1.577,1.527-1.595L664.02,332.226z"/>
			<path style="fill:#FFFFFF;" d="M683.501,332.174l5.844,0.141c0.83,0.02,1.486,0.709,1.466,1.539
				c-0.02,0.83-0.709,1.486-1.539,1.466l-0.012,0l-5.807-0.113l-0.019,0c-0.838-0.016-1.503-0.709-1.487-1.546
				c0.016-0.837,0.708-1.503,1.546-1.487L683.501,332.174z"/>
			<path style="fill:#FFFFFF;" d="M702.966,332.928l5.831,0.388c0.803,0.053,1.411,0.748,1.358,1.551
				c-0.053,0.803-0.748,1.411-1.551,1.358l-0.014-0.001l-5.792-0.358l-0.02-0.001c-0.811-0.05-1.428-0.748-1.378-1.559
				c0.05-0.811,0.748-1.428,1.559-1.378L702.966,332.928z"/>
			<path style="fill:#FFFFFF;" d="M722.381,334.559l5.807,0.696c0.775,0.093,1.327,0.796,1.234,1.571
				c-0.093,0.775-0.796,1.327-1.571,1.234l-0.019-0.002l-5.76-0.663l-0.025-0.003c-0.782-0.09-1.344-0.798-1.254-1.58
				s0.797-1.344,1.58-1.254L722.381,334.559z"/>
			<path style="fill:#FFFFFF;" d="M741.686,337.319l5.752,1.092c0.742,0.141,1.229,0.856,1.089,1.598
				c-0.141,0.742-0.857,1.229-1.598,1.088l-0.025-0.005l-5.695-1.053l-0.031-0.006c-0.75-0.139-1.246-0.859-1.107-1.609
				c0.139-0.75,0.859-1.245,1.609-1.107L741.686,337.319z"/>
			<path style="fill:#FFFFFF;" d="M760.752,341.503l5.644,1.579c0.703,0.197,1.114,0.926,0.917,1.629
				c-0.197,0.703-0.926,1.114-1.63,0.917l-0.03-0.008l-5.579-1.533l-0.036-0.01c-0.711-0.196-1.13-0.931-0.934-1.642
				c0.196-0.711,0.931-1.13,1.642-0.934L760.752,341.503z"/>
			<path style="fill:#FFFFFF;" d="M779.374,347.421l5.449,2.154c0.656,0.259,0.977,1.001,0.718,1.657
				c-0.259,0.656-1.001,0.977-1.657,0.718l-0.035-0.014l-5.378-2.097l-0.04-0.016c-0.664-0.259-0.992-1.007-0.734-1.671
				s1.007-0.992,1.671-0.733L779.374,347.421z"/>
			<path style="fill:#FFFFFF;" d="M797.239,355.353l5.154,2.804c0.598,0.325,0.818,1.073,0.493,1.67
				c-0.325,0.598-1.073,0.819-1.67,0.493l-0.038-0.02l-5.082-2.734l-0.042-0.023c-0.606-0.326-0.833-1.081-0.507-1.687
				c0.326-0.606,1.081-0.833,1.687-0.507L797.239,355.353z"/>
			<path style="fill:#FFFFFF;" d="M813.946,365.541l4.697,3.535c0.523,0.394,0.628,1.138,0.234,1.661
				c-0.394,0.524-1.138,0.629-1.661,0.234l-0.039-0.029l-4.625-3.447l-0.044-0.033c-0.531-0.396-0.641-1.148-0.245-1.679
				c0.396-0.531,1.148-0.641,1.679-0.245L813.946,365.541z"/>
			<path style="fill:#FFFFFF;" d="M828.933,378.133l4.098,4.213c0.439,0.452,0.429,1.174-0.022,1.614
				c-0.452,0.439-1.174,0.429-1.614-0.022l-0.034-0.035l-4.042-4.117l-0.038-0.039c-0.447-0.455-0.44-1.186,0.015-1.633
				c0.455-0.447,1.186-0.44,1.633,0.015L828.933,378.133z"/>
			<path style="fill:#FFFFFF;" d="M841.773,392.91l3.359,4.827c0.346,0.497,0.223,1.18-0.274,1.526
				c-0.497,0.346-1.18,0.223-1.526-0.274l-0.03-0.042l-3.316-4.718l-0.033-0.046c-0.352-0.501-0.232-1.194,0.27-1.546
				c0.501-0.352,1.193-0.232,1.546,0.27L841.773,392.91z"/>
			<path style="fill:#FFFFFF;" d="M851.939,409.647l2.433,5.369c0.24,0.529,0.005,1.151-0.523,1.391
				c-0.529,0.24-1.151,0.005-1.391-0.523l-0.024-0.052l-2.406-5.245l-0.026-0.056c-0.245-0.534-0.011-1.166,0.524-1.411
				c0.534-0.245,1.166-0.011,1.411,0.524L851.939,409.647z"/>
			<path style="fill:#FFFFFF;" d="M858.747,428.03l1.271,5.751c0.12,0.542-0.223,1.079-0.765,1.199
				c-0.542,0.12-1.079-0.223-1.199-0.765l-0.014-0.061l-1.268-5.615l-0.015-0.065c-0.124-0.549,0.221-1.095,0.77-1.219
				c0.549-0.124,1.095,0.22,1.219,0.77L858.747,428.03z"/>
			<path style="fill:#FFFFFF;" d="M861.443,447.446l0.021,1.955c0.006,0.536-0.424,0.975-0.96,0.981
				c-0.536,0.006-0.975-0.424-0.981-0.96l0-0.019l-0.028-1.909l0-0.023c-0.008-0.538,0.422-0.981,0.96-0.989
				c0.538-0.008,0.981,0.422,0.989,0.96L861.443,447.446z"/>
		</g>
	</g>
</g>
</svg>
